<svg width="50" height="50" viewBox="0 0 50 50" fill="none" xmlns="http://www.w3.org/2000/svg">
<path d="M33.4705 18.7392C34.0807 18.129 34.0807 17.1397 33.4705 16.5295C32.8603 15.9193 31.871 15.9193 31.2608 16.5295L25 22.7903L18.7392 16.5295C18.129 15.9193 17.1396 15.9193 16.5294 16.5295C15.9192 17.1397 15.9192 18.129 16.5294 18.7392L22.7903 25L16.5294 31.2609C15.9192 31.8711 15.9192 32.8604 16.5294 33.4706C17.1396 34.0808 18.1289 34.0808 18.7391 33.4706L25 27.2097L31.2608 33.4706C31.871 34.0808 32.8603 34.0808 33.4705 33.4706C34.0807 32.8604 34.0807 31.8711 33.4705 31.2609L27.2097 25L33.4705 18.7392Z" fill="#E5E5E5"/>
</svg>
