<svg width="48" height="53" viewBox="0 0 48 53" fill="none" xmlns="http://www.w3.org/2000/svg">
<mask id="path-1-outside-1_121_4430" maskUnits="userSpaceOnUse" x="0" y="0" width="48" height="53" fill="black">
<rect fill="white" width="48" height="53"/>
<path fill-rule="evenodd" clip-rule="evenodd" d="M26.5 4C33.7219 4 40.1491 7.4025 44.2661 12.6919C44.7731 13.3433 45.6972 13.5282 46.3833 13.0691V13.0691C47.0745 12.6066 47.2611 11.6671 46.7553 11.0068C42.0949 4.92315 34.7556 1 26.5 1C12.4167 1 1 12.4167 1 26.5C1 40.5833 12.4167 52 26.5 52C34.653 52 41.9124 48.1738 46.5803 42.219C47.0891 41.57 46.9205 40.6369 46.2457 40.1628V40.1628C45.5649 39.6843 44.6284 39.8554 44.11 40.5063C39.9877 45.6824 33.6313 49 26.5 49C14.0736 49 4 38.9264 4 26.5C4 14.0736 14.0736 4 26.5 4ZM41.2836 38.522C41.8095 37.8762 42.7462 37.7036 43.4276 38.1824V38.1824C44.1017 38.6561 44.2711 39.5887 43.7577 40.233C39.717 45.304 33.4881 48.5541 26.5001 48.5541C14.32 48.5541 4.44609 38.6802 4.44609 26.5C4.44609 14.3199 14.32 4.44599 26.5001 4.44599C33.5614 4.44599 39.8475 7.76452 43.884 12.9271C44.3966 13.5826 44.2097 14.5234 43.5181 14.9862V14.9862C42.8324 15.445 41.9094 15.2599 41.3944 14.6153C37.9029 10.2455 32.5284 7.44599 26.5001 7.44599C15.9769 7.44599 7.44609 15.9768 7.44609 26.5C7.44609 37.0233 15.9769 45.5541 26.5001 45.5541C32.4651 45.5541 37.7898 42.8131 41.2836 38.522ZM38.454 36.5361C38.9904 35.8978 39.9276 35.7229 40.6098 36.2022V36.2022C41.283 36.6753 41.4535 37.6071 40.9338 38.245C37.5217 42.4332 32.3232 45.1081 26.4999 45.1081C16.2229 45.1081 7.89178 36.777 7.89178 26.5C7.89178 16.223 16.2229 7.89188 26.4999 7.89188C32.3666 7.89188 37.5993 10.6069 41.0099 14.849C41.5317 15.498 41.3445 16.4406 40.6523 16.9037V16.9037C39.9671 17.3622 39.0456 17.1766 38.5193 16.542C35.6563 13.0903 31.3348 10.8919 26.4999 10.8919C17.8798 10.8919 10.8918 17.8799 10.8918 26.5C10.8918 35.1201 17.8798 42.1081 26.4999 42.1081C31.2982 42.1081 35.5909 39.9428 38.454 36.5361ZM35.6192 34.5476C36.172 33.9215 37.11 33.7428 37.7933 34.223V34.223C38.4651 34.6951 38.6371 35.6258 38.1085 36.2542C35.3272 39.5608 31.159 41.6622 26.5 41.6622C18.1262 41.6622 11.3379 34.8739 11.3379 26.5C11.3379 18.1262 18.1262 11.3379 26.5 11.3379C31.1719 11.3379 35.3502 13.4508 38.1315 16.7732C38.6667 17.4126 38.479 18.3578 37.786 18.8215V18.8215C37.1015 19.2795 36.1823 19.0931 35.6386 18.4745C33.4096 15.9384 30.1418 14.3379 26.5 14.3379C19.783 14.3379 14.3379 19.783 14.3379 26.5C14.3379 33.217 19.783 38.6622 26.5 38.6622C30.1312 38.6622 33.3907 37.0709 35.6192 34.5476Z"/>
</mask>
<path d="M35.6386 18.4745L36.0141 18.1444L35.6386 18.4745ZM38.1315 16.7732L38.5149 16.4523L38.1315 16.7732ZM35.6192 34.5476L35.9939 34.8785L35.6192 34.5476ZM38.5193 16.542L38.1344 16.8612L38.5193 16.542ZM46.7553 11.0068L47.1523 10.7028L46.7553 11.0068ZM41.0099 14.849L41.3996 14.5357L41.0099 14.849ZM40.9338 38.245L41.3214 38.5608L40.9338 38.245ZM41.3944 14.6153L41.785 14.3032L41.3944 14.6153ZM43.884 12.9271L44.2779 12.6191L43.884 12.9271ZM46.5803 42.219L46.9738 42.5275L46.5803 42.219ZM38.1085 36.2542L38.4912 36.5761L38.1085 36.2542ZM44.11 40.5063L43.7189 40.1948L44.11 40.5063ZM38.454 36.5361L38.8368 36.8578L38.8368 36.8578L38.454 36.5361ZM43.7577 40.233L43.3667 39.9214L43.7577 40.233ZM44.2661 12.6919L44.6606 12.3848L44.2661 12.6919ZM44.6606 12.3848C40.4531 6.97892 33.8827 3.5 26.5 3.5V4.5C33.5612 4.5 39.8452 7.82608 43.8715 12.999L44.6606 12.3848ZM26.5 1.5C34.5935 1.5 41.7886 5.3454 46.3584 11.3109L47.1523 10.7028C42.4013 4.5009 34.9178 0.5 26.5 0.5V1.5ZM1.5 26.5C1.5 12.6929 12.6929 1.5 26.5 1.5V0.5C12.1406 0.5 0.5 12.1406 0.5 26.5H1.5ZM26.5 51.5C12.6929 51.5 1.5 40.3071 1.5 26.5H0.5C0.5 40.8594 12.1406 52.5 26.5 52.5V51.5ZM46.1868 41.9105C41.6096 47.7496 34.4929 51.5 26.5 51.5V52.5C34.8131 52.5 42.2152 48.5979 46.9738 42.5275L46.1868 41.9105ZM26.5 49.5C33.79 49.5 40.288 46.1078 44.5011 40.8178L43.7189 40.1948C39.6874 45.2569 33.4726 48.5 26.5 48.5V49.5ZM3.5 26.5C3.5 39.2025 13.7975 49.5 26.5 49.5V48.5C14.3497 48.5 4.5 38.6503 4.5 26.5H3.5ZM26.5 3.5C13.7975 3.5 3.5 13.7975 3.5 26.5H4.5C4.5 14.3497 14.3497 4.5 26.5 4.5V3.5ZM26.5001 49.0541C33.6468 49.0541 40.0173 45.7296 44.1487 40.5446L43.3667 39.9214C39.4168 44.8785 33.3295 48.0541 26.5001 48.0541V49.0541ZM3.94609 26.5C3.94609 38.9563 14.0439 49.0541 26.5001 49.0541V48.0541C14.5962 48.0541 4.94609 38.404 4.94609 26.5H3.94609ZM26.5001 3.94599C14.0439 3.94599 3.94609 14.0438 3.94609 26.5H4.94609C4.94609 14.5961 14.5962 4.94599 26.5001 4.94599V3.94599ZM44.2779 12.6191C40.1507 7.34056 33.7217 3.94599 26.5001 3.94599V4.94599C33.401 4.94599 39.5443 8.18848 43.4901 13.235L44.2779 12.6191ZM26.5001 7.94599C32.37 7.94599 37.6031 10.6712 41.0037 14.9274L41.785 14.3032C38.2027 9.81973 32.6869 6.94599 26.5001 6.94599V7.94599ZM7.94609 26.5C7.94609 16.2529 16.253 7.94599 26.5001 7.94599V6.94599C15.7007 6.94599 6.94609 15.7006 6.94609 26.5H7.94609ZM26.5001 45.0541C16.253 45.0541 7.94609 36.7472 7.94609 26.5H6.94609C6.94609 37.2994 15.7007 46.0541 26.5001 46.0541V45.0541ZM40.8959 38.2063C37.493 42.3858 32.3084 45.0541 26.5001 45.0541V46.0541C32.6218 46.0541 38.0867 43.2405 41.6714 38.8377L40.8959 38.2063ZM26.4999 45.6081C32.4798 45.6081 37.8185 42.8605 41.3214 38.5608L40.5461 37.9292C37.2249 42.0058 32.1665 44.6081 26.4999 44.6081V45.6081ZM7.39178 26.5C7.39178 37.0531 15.9468 45.6081 26.4999 45.6081V44.6081C16.4991 44.6081 8.39178 36.5008 8.39178 26.5H7.39178ZM26.4999 7.39188C15.9468 7.39188 7.39178 15.9469 7.39178 26.5H8.39178C8.39178 16.4992 16.4991 8.39188 26.4999 8.39188V7.39188ZM41.3996 14.5357C37.8981 10.1806 32.5245 7.39188 26.4999 7.39188V8.39188C32.2088 8.39188 37.3004 11.0331 40.6202 15.1623L41.3996 14.5357ZM26.4999 11.3919C31.1798 11.3919 35.3624 13.5191 38.1344 16.8612L38.9041 16.2228C35.9502 12.6615 31.4899 10.3919 26.4999 10.3919V11.3919ZM11.3918 26.5C11.3918 18.156 18.1559 11.3919 26.4999 11.3919V10.3919C17.6036 10.3919 10.3918 17.6037 10.3918 26.5H11.3918ZM26.4999 41.6081C18.1559 41.6081 11.3918 34.844 11.3918 26.5H10.3918C10.3918 35.3962 17.6036 42.6081 26.4999 42.6081V41.6081ZM38.0712 36.2144C35.299 39.5129 31.1444 41.6081 26.4999 41.6081V42.6081C31.4521 42.6081 35.8827 40.3727 38.8368 36.8578L38.0712 36.2144ZM26.5 42.1622C31.3128 42.1622 35.6189 39.9908 38.4912 36.5761L37.7259 35.9324C35.0355 39.1309 31.0052 41.1622 26.5 41.1622V42.1622ZM10.8379 26.5C10.8379 35.15 17.8501 42.1622 26.5 42.1622V41.1622C18.4023 41.1622 11.8379 34.5977 11.8379 26.5H10.8379ZM26.5 10.8379C17.8501 10.8379 10.8379 17.8501 10.8379 26.5H11.8379C11.8379 18.4023 18.4023 11.8379 26.5 11.8379V10.8379ZM38.5149 16.4523C35.6426 13.0212 31.3261 10.8379 26.5 10.8379V11.8379C31.0176 11.8379 35.0577 13.8804 37.7481 17.0942L38.5149 16.4523ZM26.5 14.8379C29.992 14.8379 33.125 16.372 35.263 18.8046L36.0141 18.1444C33.6943 15.5049 30.2915 13.8379 26.5 13.8379V14.8379ZM14.8379 26.5C14.8379 20.0592 20.0592 14.8379 26.5 14.8379V13.8379C19.5069 13.8379 13.8379 19.5069 13.8379 26.5H14.8379ZM26.5 38.1622C20.0592 38.1622 14.8379 32.9409 14.8379 26.5H13.8379C13.8379 33.4931 19.5069 39.1622 26.5 39.1622V38.1622ZM35.2444 34.2166C33.1068 36.637 29.9818 38.1622 26.5 38.1622V39.1622C30.2805 39.1622 33.6746 37.5048 35.9939 34.8785L35.2444 34.2166ZM37.508 18.4059C37.0622 18.7042 36.4175 18.6034 36.0141 18.1444L35.263 18.8046C35.9471 19.5829 37.1408 19.8548 38.0641 19.2371L37.508 18.4059ZM37.7481 17.0942C38.0709 17.4798 37.9827 18.0883 37.508 18.4059L38.0641 19.2371C38.9754 18.6273 39.2626 17.3454 38.5149 16.4523L37.7481 17.0942ZM38.0808 33.8139C37.1584 33.1657 35.9399 33.4291 35.2444 34.2166L35.9939 34.8785C36.4042 34.414 37.0615 34.3199 37.5058 34.6321L38.0808 33.8139ZM40.3742 16.4881C39.9261 16.788 39.286 16.6833 38.9041 16.2228L38.1344 16.8612C38.8052 17.6699 40.008 17.9364 40.9303 17.3192L40.3742 16.4881ZM46.6613 13.4847C47.5759 12.8727 47.8455 11.6078 47.1523 10.7028L46.3584 11.3109C46.6767 11.7264 46.5731 12.3405 46.1052 12.6536L46.6613 13.4847ZM40.6202 15.1623C40.9412 15.5615 40.8457 16.1727 40.3742 16.4881L40.9303 17.3192C41.8432 16.7084 42.1222 15.4345 41.3996 14.5357L40.6202 15.1623ZM40.3223 36.6113C40.7804 36.9332 40.8659 37.5368 40.5461 37.9292L41.3214 38.5608C42.0411 37.6775 41.7856 36.4174 40.8973 35.7931L40.3223 36.6113ZM43.24 14.5707C42.7903 14.8716 42.1533 14.7642 41.785 14.3032L41.0037 14.9274C41.6654 15.7556 42.8745 16.0184 43.7961 15.4018L43.24 14.5707ZM43.4901 13.235C43.8096 13.6437 43.7094 14.2566 43.24 14.5707L43.7961 15.4018C44.71 14.7903 44.9835 13.5216 44.2779 12.6191L43.4901 13.235ZM46.9738 42.5275C47.6712 41.6379 47.4262 40.3812 46.5332 39.7537L45.9583 40.5719C46.4147 40.8926 46.507 41.5021 46.1868 41.9105L46.9738 42.5275ZM37.5058 34.6321C37.9652 34.955 38.0447 35.5533 37.7259 35.9324L38.4912 36.5761C39.2295 35.6983 38.965 34.4353 38.0808 33.8139L37.5058 34.6321ZM46.5332 39.7537C45.6189 39.1111 44.3887 39.3538 43.7189 40.1948L44.5011 40.8178C44.8681 40.357 45.5109 40.2575 45.9583 40.5719L46.5332 39.7537ZM40.8973 35.7931C39.9786 35.1476 38.7548 35.4011 38.0712 36.2144L38.8368 36.8578C39.2261 36.3946 39.8766 36.2981 40.3223 36.6113L40.8973 35.7931ZM43.1401 38.5915C43.5973 38.9127 43.6867 39.5198 43.3667 39.9214L44.1487 40.5446C44.8555 39.6576 44.6062 38.3995 43.7151 37.7733L43.1401 38.5915ZM43.7151 37.7733C42.7989 37.1295 41.5715 37.3766 40.8959 38.2063L41.6714 38.8377C42.0475 38.3758 42.6935 38.2776 43.1401 38.5915L43.7151 37.7733ZM43.8715 12.999C44.5266 13.8407 45.7402 14.101 46.6613 13.4847L46.1052 12.6536C45.6542 12.9553 45.0195 12.8459 44.6606 12.3848L43.8715 12.999Z" fill="#E5E5E5" mask="url(#path-1-outside-1_121_4430)"/>
</svg>
