<svg width="26" height="26" viewBox="0 0 26 26" fill="none" xmlns="http://www.w3.org/2000/svg">
<path d="M12.1486 0.00699669C12.0927 0.012079 11.9148 0.0298672 11.7546 0.0425731C8.06178 0.375466 4.60274 2.36774 2.41193 5.42986C1.19198 7.13244 0.41173 9.06373 0.116911 11.1094C0.0127077 11.8234 0 12.0344 0 13.0025C0 13.9707 0.0127077 14.1816 0.116911 14.8957C0.82346 19.7773 4.29775 23.8788 9.00978 25.3984C9.85357 25.6703 10.7431 25.8558 11.7546 25.9676C12.1486 26.0108 13.8514 26.0108 14.2454 25.9676C15.9914 25.7745 17.4706 25.3425 18.9294 24.5979C19.1531 24.4836 19.1963 24.4531 19.1658 24.4277C19.1455 24.4124 18.1924 23.1342 17.0487 21.5892L14.9697 18.7812L12.3646 14.9262C10.9312 12.8069 9.75191 11.0738 9.74174 11.0738C9.73157 11.0713 9.72141 12.784 9.71632 14.8754C9.7087 18.5372 9.70616 18.6846 9.66041 18.771C9.59433 18.8955 9.5435 18.9463 9.43675 19.0023C9.35542 19.0429 9.28426 19.0505 8.90049 19.0505H8.4608L8.34389 18.9768C8.26764 18.9286 8.21173 18.865 8.17361 18.7913L8.12023 18.677L8.12532 13.5819L8.13294 8.48434L8.21173 8.38524C8.25239 8.33187 8.33881 8.26326 8.3998 8.23023C8.50401 8.1794 8.54467 8.17432 8.98436 8.17432C9.50283 8.17432 9.58925 8.19465 9.72395 8.34204C9.76207 8.3827 11.1726 10.5071 12.8602 13.0661C14.5478 15.625 16.8555 19.1191 17.9891 20.8344L20.0477 23.9525L20.1519 23.8838C21.0745 23.2841 22.0504 22.4303 22.8231 21.5409C24.4674 19.6528 25.5273 17.3505 25.8831 14.8957C25.9873 14.1816 26 13.9707 26 13.0025C26 12.0344 25.9873 11.8234 25.8831 11.1094C25.1765 6.22778 21.7022 2.12633 16.9902 0.606713C16.1591 0.337349 15.2747 0.151843 14.2835 0.0400319C14.0395 0.0146202 12.3595 -0.0133327 12.1486 0.00699669ZM17.4706 7.86938C17.5926 7.93037 17.6917 8.04726 17.7273 8.16924C17.7476 8.23531 17.7527 9.6482 17.7476 12.8323L17.74 17.4013L16.9343 16.1663L16.1261 14.9313V11.61C16.1261 9.46269 16.1363 8.25564 16.1515 8.19719C16.1922 8.05488 16.2811 7.94307 16.4031 7.877C16.5073 7.82364 16.5455 7.81856 16.9445 7.81856C17.3206 7.81856 17.3867 7.82364 17.4706 7.86938Z" fill="#999CA0"/>
</svg>
