<svg width="115" height="25" viewBox="0 0 115 25" fill="none" xmlns="http://www.w3.org/2000/svg">
<rect width="2.28422" height="16.7007" transform="matrix(0.996719 -0.080933 0.0737036 0.99728 3.44594 3.20117)" fill="white"/>
<circle cx="5.5" cy="18.5" r="3.5" fill="white"/>
<circle cx="5.5" cy="18.5" r="1.5" fill="#82DED9"/>
<ellipse rx="1.55545" ry="2.02964" transform="matrix(0.921881 0.387473 -0.365014 0.931002 106.175 5.92296)" fill="white"/>
<ellipse rx="1.55433" ry="2.03104" transform="matrix(0.933359 -0.358945 0.337663 0.941267 112.863 5.47004)" fill="white"/>
<rect width="1.13114" height="7.08452" transform="matrix(0.923181 -0.384364 0.362028 0.932167 104.909 6.06641)" fill="white"/>
<rect width="1.12794" height="6.45877" transform="matrix(0.967516 0.25281 -0.236807 0.971557 113.127 6.05273)" fill="white"/>
<rect width="1.12553" height="6.87991" transform="matrix(0.999797 -0.0201571 0.0188031 0.999823 109.628 13.0674)" fill="white"/>
<rect width="0.984361" height="3.1409" transform="matrix(0.629659 -0.776872 0.754858 0.655888 107.095 12.0615)" fill="white"/>
<rect width="0.987688" height="3.13012" transform="matrix(0.548136 0.836389 -0.818244 0.574871 112.189 11.5879)" fill="white"/>
<path d="M18.154 20L16.426 15.068H16.12H12.988V20H11.548V7.616H16.318C17.242 7.616 17.932 7.772 18.388 8.084C18.856 8.396 19.156 8.81 19.288 9.326C19.432 9.842 19.504 10.514 19.504 11.342C19.504 12.242 19.396 12.986 19.18 13.574C18.964 14.162 18.508 14.576 17.812 14.816L19.702 20H18.154ZM15.832 13.808C16.492 13.808 16.978 13.724 17.29 13.556C17.614 13.376 17.824 13.118 17.92 12.782C18.016 12.446 18.064 11.966 18.064 11.342C18.064 10.706 18.022 10.226 17.938 9.902C17.854 9.578 17.656 9.332 17.344 9.164C17.044 8.984 16.576 8.894 15.94 8.894H12.988V13.808H15.832ZM22.1828 20V7.616H29.1308V8.894H23.6228V13.106H28.4108V14.384H23.6228V18.722H29.1308V20H22.1828ZM33.7488 20V8.93H30.4008V7.616H38.5368V8.93H35.1888V20H33.7488ZM47.4103 20V14.402H41.9743V20H40.5343V7.616H41.9743V13.088H47.4103V7.616H48.8503V20H47.4103ZM51.9425 20V7.616H58.8905V8.894H53.3825V13.106H58.1705V14.384H53.3825V18.722H58.8905V20H51.9425ZM67.8825 20L66.1545 15.068H65.8485H62.7165V20H61.2765V7.616H66.0465C66.9705 7.616 67.6605 7.772 68.1165 8.084C68.5845 8.396 68.8845 8.81 69.0165 9.326C69.1605 9.842 69.2325 10.514 69.2325 11.342C69.2325 12.242 69.1245 12.986 68.9085 13.574C68.6925 14.162 68.2365 14.576 67.5405 14.816L69.4305 20H67.8825ZM65.5605 13.808C66.2205 13.808 66.7065 13.724 67.0185 13.556C67.3425 13.376 67.5525 13.118 67.6485 12.782C67.7445 12.446 67.7925 11.966 67.7925 11.342C67.7925 10.706 67.7505 10.226 67.6665 9.902C67.5825 9.578 67.3845 9.332 67.0725 9.164C66.7725 8.984 66.3045 8.894 65.6685 8.894H62.7165V13.808H65.5605ZM79.1113 20L78.0133 16.616H73.3333L72.2533 20H70.7953L74.7553 7.616H76.6453L80.6053 20H79.1113ZM75.7273 9.2H75.6373L73.6933 15.338H77.6353L75.7273 9.2ZM82.5812 7.616H87.1532C88.0892 7.616 88.7912 7.778 89.2592 8.102C89.7272 8.426 90.0332 8.864 90.1772 9.416C90.3212 9.956 90.3932 10.658 90.3932 11.522C90.3932 12.374 90.3212 13.07 90.1772 13.61C90.0332 14.15 89.7212 14.588 89.2412 14.924C88.7732 15.26 88.0712 15.428 87.1352 15.428H84.0212V20H82.5812V7.616ZM86.7572 14.168C87.4172 14.168 87.9032 14.078 88.2152 13.898C88.5272 13.718 88.7252 13.448 88.8092 13.088C88.9052 12.728 88.9532 12.206 88.9532 11.522C88.9532 10.826 88.9112 10.304 88.8272 9.956C88.7432 9.608 88.5452 9.344 88.2332 9.164C87.9212 8.984 87.4352 8.894 86.7752 8.894H84.0212V14.168H86.7572ZM99.6174 20V14.402H94.1814V20H92.7414V7.616H94.1814V13.088H99.6174V7.616H101.057V20H99.6174Z" fill="white"/>
</svg>
