<?xml version="1.0" encoding="utf-8"?>
<!-- Generator: Adobe Illustrator 24.3.0, SVG Export Plug-In . SVG Version: 6.00 Build 0)  -->
<svg version="1.1" id="Layer_1" xmlns="http://www.w3.org/2000/svg" xmlns:xlink="http://www.w3.org/1999/xlink" x="0px" y="0px"
	 viewBox="0 0 263 532" style="enable-background:new 0 0 263 532;" xml:space="preserve">
<style type="text/css">
	.st0{fill-rule:evenodd;clip-rule:evenodd;fill:#27303B;}
	.st1{fill:none;}
	.st2{fill-rule:evenodd;clip-rule:evenodd;fill:#E2F6D7;}
	.st3{fill-rule:evenodd;clip-rule:evenodd;fill:#FFFFFF;filter:url(#Adobe_OpacityMaskFilter);}
	.st4{mask:url(#mask0_158_1571_1_);}
	.st5{fill:#FFFFFF;}
	.st6{fill:#82DED9;}
	.st7{fill:#52A1C3;}
	.st8{fill:#DADADA;}
	.st9{fill:#C4C4C4;}
	.st10{fill:none;stroke:#FFFFFF;stroke-width:2;stroke-linecap:round;stroke-linejoin:round;}
</style>
<path class="st0" d="M0.1,265.8c0-75.7,0-151.3,0-227c0-12.1,4.8-22.2,13.6-30.4c4.5-4.2,9.8-6.9,16-7.8c1.6-0.2,3.2-0.3,4.8-0.3
	c48.6,0,97.2,0,145.8,0c15.3,0,30.6,0.1,45.9,0C236.3,0,244.4,3.8,251,11c6.3,6.9,9.9,15,10.8,24.3c0.1,1.2,0.1,2.4,0.1,3.7
	c0,93.3,0,186.5,0,279.8c0,58-0.1,116,0.1,174c0,14.4-9.6,29.4-22.7,35.4c-4.2,1.9-8.5,2.8-13.1,2.8c-52.2,0-104.5,0-156.7,0
	c-10.9,0-21.8-0.1-32.7,0c-8.6,0.1-16-2.8-22.4-8.3c-7.3-6.3-12-14.1-13.7-23.6c-0.4-2.2-0.5-4.4-0.5-6.6c0-36.2,0-72.5,0-108.7
	C0.1,344.4,0.1,305.1,0.1,265.8"/>
<g>
	<rect class="st1" width="262.2" height="531"/>
</g>
<g>
	<rect class="st1" width="262.2" height="531"/>
</g>
<path class="st2" d="M236.5,38.6v453.6c-0.1,0.7-0.2,1.4-0.3,2.1c-0.1,0.6-0.1,1.2-0.2,1.7c-2.2,9.3-7.3,15.4-15.8,18
	c-1.3,0.4-2.7,0.6-4.1,0.9H48.9c-0.4-0.1-0.9-0.2-1.3-0.3c-9-1.3-15.2-6.5-18.4-15.9c-1.1-3.3-1.3-6.8-1.3-10.3
	c0-142.4,0-284.8,0-427.2c0-2.8,0-5.5,0-8.3c0-0.4-0.1-0.9-0.1-1.3v-4.9c0.1-0.7,0.1-1.3,0.2-2c0.2-2.7,0.1-5.5,0.5-8.1
	c1.7-10.8,9.8-19,19.8-19.5c7.6-0.4,15.2-0.2,22.7-0.1c1.9,0,2.8,1.3,2.9,3.4c0.1,1.4,0.1,2.8,0.3,4.2c1,6.4,5.9,10.8,11.8,10.8
	c11.2,0,22.5,0,33.7,0c19.5,0,39.1,0,58.6,0c0.7,0,1.3,0,2-0.1c6.2-1.1,10.2-6.3,10.3-13.2c0-0.9,0.1-1.7,0.2-2.6
	c0.1-0.9,0.5-1.6,1.2-2c0.7-0.3,1.4-0.5,2.2-0.5c6.3,0,12.6,0,18.9,0c2.3,0,4.6,0.1,6.8,0.6c8.8,2.1,15.5,10.4,16.5,20.2
	C236.3,38.1,236.5,38.4,236.5,38.6"/>
<defs>
	<filter id="Adobe_OpacityMaskFilter" filterUnits="userSpaceOnUse">
		<feColorMatrix  type="matrix" values="1 0 0 0 0  0 1 0 0 0  0 0 1 0 0  0 0 0 1 0"/>
	</filter>
</defs>
<mask maskUnits="userSpaceOnUse" id="mask0_158_1571_1_">
	<path class="st3" d="M236.5,38.6v453.6c-0.1,0.7-0.2,1.4-0.3,2.1c-0.1,0.6-0.1,1.2-0.2,1.7c-2.2,9.3-7.3,15.4-15.8,18
		c-1.3,0.4-2.7,0.6-4.1,0.9H48.9c-0.4-0.1-0.9-0.2-1.3-0.3c-9-1.3-15.2-6.5-18.4-15.9c-1.1-3.3-1.3-6.8-1.3-10.3
		c0-142.4,0-284.8,0-427.2c0-2.8,0-5.5,0-8.3c0-0.4-0.1-0.9-0.1-1.3v-4.9c0.1-0.7,0.1-1.3,0.2-2c0.2-2.7,0.1-5.5,0.5-8.1
		c1.7-10.8,9.8-19,19.8-19.5c7.6-0.4,15.2-0.2,22.7-0.1c1.9,0,2.8,1.3,2.9,3.4c0.1,1.4,0.1,2.8,0.3,4.2c1,6.4,5.9,10.8,11.8,10.8
		c11.2,0,22.5,0,33.7,0c19.5,0,39.1,0,58.6,0c0.7,0,1.3,0,2-0.1c6.2-1.1,10.2-6.3,10.3-13.2c0-0.9,0.1-1.7,0.2-2.6
		c0.1-0.9,0.5-1.6,1.2-2c0.7-0.3,1.4-0.5,2.2-0.5c6.3,0,12.6,0,18.9,0c2.3,0,4.6,0.1,6.8,0.6c8.8,2.1,15.5,10.4,16.5,20.2
		C236.3,38.1,236.5,38.4,236.5,38.6"/>
</mask>
<g class="st4">
</g>
<path class="st5" d="M46,14h171c16.6,0,30,13.4,30,30v442c0,16.6-13.4,30-30,30H46c-16.6,0-30-13.4-30-30V44C16,27.4,29.4,14,46,14z
	"/>
<path class="st6" d="M38.8,14h185.3c12.6,0,22.8,10.2,22.8,22.8V211H16V36.8C16,24.2,26.2,14,38.8,14z"/>
<path class="st7" d="M98.7,94.9l2.5,2l-0.9,0.8l-2.5-2L98.7,94.9z M101.2,90.7v0.6c0,0.7-0.1,1.4-0.3,2c-0.2,0.6-0.5,1.1-0.8,1.5
	c-0.4,0.4-0.8,0.7-1.3,1c-0.5,0.2-1,0.3-1.6,0.3c-0.6,0-1.1-0.1-1.6-0.3c-0.5-0.2-0.9-0.5-1.3-1c-0.4-0.4-0.6-0.9-0.8-1.5
	c-0.2-0.6-0.3-1.3-0.3-2v-0.6c0-0.7,0.1-1.4,0.3-2c0.2-0.6,0.5-1.1,0.8-1.5c0.4-0.4,0.8-0.7,1.3-1c0.5-0.2,1-0.3,1.6-0.3
	c0.6,0,1.2,0.1,1.6,0.3c0.5,0.2,0.9,0.5,1.3,1c0.4,0.4,0.6,0.9,0.8,1.5C101.1,89.3,101.2,90,101.2,90.7z M99.9,91.3v-0.6
	c0-0.6-0.1-1.1-0.2-1.6c-0.1-0.5-0.3-0.8-0.5-1.1c-0.2-0.3-0.5-0.5-0.8-0.7C98,87.1,97.6,87,97.2,87c-0.4,0-0.8,0.1-1.1,0.2
	c-0.3,0.2-0.6,0.4-0.8,0.7s-0.4,0.7-0.5,1.1c-0.1,0.5-0.2,1-0.2,1.6v0.6c0,0.6,0.1,1.1,0.2,1.6c0.1,0.5,0.3,0.8,0.5,1.2
	c0.2,0.3,0.5,0.5,0.9,0.7c0.3,0.2,0.7,0.2,1.1,0.2c0.4,0,0.8-0.1,1.1-0.2c0.3-0.2,0.6-0.4,0.8-0.7c0.2-0.3,0.4-0.7,0.5-1.2
	C99.8,92.5,99.9,91.9,99.9,91.3z M108.9,86h1.3v6.7c0,0.7-0.2,1.4-0.5,1.9c-0.3,0.5-0.8,0.9-1.3,1.1c-0.5,0.2-1.1,0.4-1.8,0.4
	c-0.7,0-1.3-0.1-1.8-0.4c-0.5-0.3-1-0.6-1.3-1.1c-0.3-0.5-0.5-1.1-0.5-1.9V86h1.3v6.7c0,0.5,0.1,0.9,0.3,1.3
	c0.2,0.3,0.5,0.6,0.8,0.8c0.3,0.2,0.7,0.2,1.2,0.2c0.5,0,0.9-0.1,1.2-0.2c0.3-0.2,0.6-0.4,0.8-0.8c0.2-0.3,0.3-0.8,0.3-1.3V86z
	 M118.6,94.9V96h-5.3v-1.1H118.6z M113.6,86v10h-1.3V86H113.6z M117.9,90.3v1.1h-4.6v-1.1H117.9z M118.6,86v1.1h-5.2V86H118.6z
	 M125.6,93.5c0-0.2,0-0.4-0.1-0.6c-0.1-0.2-0.2-0.3-0.4-0.5c-0.2-0.1-0.4-0.3-0.7-0.4c-0.3-0.1-0.7-0.3-1.2-0.4
	c-0.5-0.1-0.9-0.3-1.3-0.5c-0.4-0.2-0.7-0.4-1-0.6c-0.3-0.2-0.5-0.5-0.7-0.8c-0.1-0.3-0.2-0.6-0.2-1c0-0.4,0.1-0.7,0.2-1.1
	c0.2-0.3,0.4-0.6,0.7-0.9c0.3-0.2,0.7-0.4,1.1-0.6c0.4-0.1,0.9-0.2,1.4-0.2c0.7,0,1.4,0.1,1.9,0.4c0.5,0.3,0.9,0.7,1.2,1.1
	c0.3,0.5,0.4,0.9,0.4,1.5h-1.3c0-0.4-0.1-0.7-0.2-1c-0.2-0.3-0.4-0.5-0.7-0.7c-0.3-0.2-0.7-0.3-1.2-0.3c-0.5,0-0.9,0.1-1.2,0.2
	c-0.3,0.1-0.5,0.3-0.7,0.6c-0.1,0.2-0.2,0.5-0.2,0.8c0,0.2,0,0.4,0.1,0.6c0.1,0.2,0.2,0.3,0.4,0.5c0.2,0.1,0.4,0.3,0.7,0.4
	c0.3,0.1,0.6,0.2,1.1,0.4c0.6,0.2,1.1,0.3,1.5,0.5c0.4,0.2,0.7,0.4,1,0.7c0.3,0.2,0.5,0.5,0.6,0.8c0.1,0.3,0.2,0.7,0.2,1
	c0,0.4-0.1,0.8-0.2,1.1c-0.2,0.3-0.4,0.6-0.7,0.8c-0.3,0.2-0.7,0.4-1.1,0.5c-0.4,0.1-0.9,0.2-1.4,0.2c-0.5,0-0.9-0.1-1.4-0.2
	c-0.4-0.1-0.8-0.3-1.2-0.6c-0.4-0.3-0.7-0.6-0.9-0.9c-0.2-0.4-0.3-0.8-0.3-1.3h1.3c0,0.3,0.1,0.6,0.2,0.9c0.1,0.2,0.3,0.4,0.5,0.6
	c0.2,0.2,0.5,0.3,0.8,0.4c0.3,0.1,0.6,0.1,0.9,0.1c0.5,0,0.8-0.1,1.2-0.2s0.6-0.3,0.7-0.5C125.5,94.1,125.6,93.8,125.6,93.5z
	 M132.3,86v10H131V86H132.3z M135.5,86v1.1h-7.7V86H135.5z M138.3,86v10H137V86H138.3z M148.4,90.7v0.6c0,0.7-0.1,1.4-0.3,2
	c-0.2,0.6-0.5,1.1-0.8,1.5c-0.4,0.4-0.8,0.7-1.3,1c-0.5,0.2-1,0.3-1.6,0.3c-0.6,0-1.1-0.1-1.6-0.3c-0.5-0.2-0.9-0.5-1.3-1
	c-0.4-0.4-0.6-0.9-0.8-1.5c-0.2-0.6-0.3-1.3-0.3-2v-0.6c0-0.7,0.1-1.4,0.3-2c0.2-0.6,0.5-1.1,0.8-1.5c0.4-0.4,0.8-0.7,1.3-1
	c0.5-0.2,1-0.3,1.6-0.3c0.6,0,1.2,0.1,1.6,0.3c0.5,0.2,0.9,0.5,1.3,1c0.4,0.4,0.6,0.9,0.8,1.5C148.3,89.3,148.4,90,148.4,90.7z
	 M147.1,91.3v-0.6c0-0.6-0.1-1.1-0.2-1.6c-0.1-0.5-0.3-0.8-0.5-1.1c-0.2-0.3-0.5-0.5-0.9-0.7c-0.3-0.2-0.7-0.2-1.1-0.2
	c-0.4,0-0.8,0.1-1.1,0.2c-0.3,0.2-0.6,0.4-0.8,0.7c-0.2,0.3-0.4,0.7-0.5,1.1c-0.1,0.5-0.2,1-0.2,1.6v0.6c0,0.6,0.1,1.1,0.2,1.6
	c0.1,0.5,0.3,0.8,0.5,1.2c0.2,0.3,0.5,0.5,0.9,0.7c0.3,0.2,0.7,0.2,1.1,0.2c0.4,0,0.8-0.1,1.1-0.2c0.3-0.2,0.6-0.4,0.8-0.7
	c0.2-0.3,0.4-0.7,0.5-1.2C147,92.5,147.1,91.9,147.1,91.3z M158,86v10h-1.3l-5-7.7V96h-1.3V86h1.3l5,7.7V86H158z M167.7,86v10h-1.3
	v-8.4l-2.6,0.9v-1.1l3.6-1.4H167.7z"/>
<path class="st5" d="M80.1,119.1v0.9h-4.6v-0.9H80.1z M75.6,115.5v8.5h-1.1v-8.5H75.6z M81,115.5v8.5h-1.1v-8.5H81z M82.6,120.9
	v-0.1c0-0.5,0.1-0.9,0.2-1.3c0.1-0.4,0.3-0.7,0.6-1c0.2-0.3,0.6-0.5,0.9-0.7c0.4-0.2,0.8-0.2,1.2-0.2c0.4,0,0.8,0.1,1.2,0.2
	c0.4,0.2,0.7,0.4,0.9,0.7c0.3,0.3,0.4,0.6,0.6,1c0.1,0.4,0.2,0.8,0.2,1.3v0.1c0,0.5-0.1,0.9-0.2,1.3c-0.1,0.4-0.3,0.7-0.6,1
	c-0.2,0.3-0.6,0.5-0.9,0.7c-0.4,0.2-0.8,0.2-1.2,0.2c-0.4,0-0.8-0.1-1.2-0.2c-0.4-0.2-0.7-0.4-0.9-0.7c-0.2-0.3-0.4-0.6-0.6-1
	C82.7,121.8,82.6,121.4,82.6,120.9z M83.7,120.8v0.1c0,0.3,0,0.6,0.1,0.9c0.1,0.3,0.2,0.5,0.3,0.7c0.2,0.2,0.3,0.4,0.6,0.5
	c0.2,0.1,0.5,0.2,0.8,0.2c0.3,0,0.6-0.1,0.8-0.2c0.2-0.1,0.4-0.3,0.6-0.5c0.1-0.2,0.3-0.5,0.3-0.7c0.1-0.3,0.1-0.6,0.1-0.9v-0.1
	c0-0.3,0-0.6-0.1-0.9c-0.1-0.3-0.2-0.5-0.3-0.7c-0.1-0.2-0.3-0.4-0.6-0.5c-0.2-0.1-0.5-0.2-0.8-0.2c-0.3,0-0.6,0.1-0.8,0.2
	c-0.2,0.1-0.4,0.3-0.6,0.5c-0.1,0.2-0.3,0.5-0.3,0.7C83.7,120.2,83.7,120.5,83.7,120.8z M91.3,122.9l1.6-5.2h0.7l-0.1,1l-1.7,5.3
	h-0.7L91.3,122.9z M90.2,117.7l1.4,5.3l0.1,1.1H91l-1.8-6.3H90.2z M95.2,122.9l1.3-5.2h1.1l-1.8,6.3h-0.7L95.2,122.9z M93.8,117.7
	l1.6,5.1l0.2,1.2h-0.7l-1.7-5.3l-0.1-1H93.8z M101.4,120.9v-0.1c0-0.5,0.1-0.9,0.2-1.3c0.1-0.4,0.3-0.7,0.6-1
	c0.2-0.3,0.6-0.5,0.9-0.7c0.4-0.2,0.8-0.2,1.2-0.2c0.4,0,0.8,0.1,1.2,0.2c0.4,0.2,0.7,0.4,0.9,0.7c0.3,0.3,0.4,0.6,0.6,1
	c0.1,0.4,0.2,0.8,0.2,1.3v0.1c0,0.5-0.1,0.9-0.2,1.3c-0.1,0.4-0.3,0.7-0.6,1c-0.2,0.3-0.6,0.5-0.9,0.7c-0.4,0.2-0.8,0.2-1.2,0.2
	s-0.8-0.1-1.2-0.2c-0.4-0.2-0.7-0.4-0.9-0.7c-0.2-0.3-0.4-0.6-0.6-1C101.5,121.8,101.4,121.4,101.4,120.9z M102.5,120.8v0.1
	c0,0.3,0,0.6,0.1,0.9c0.1,0.3,0.2,0.5,0.3,0.7c0.2,0.2,0.3,0.4,0.6,0.5c0.2,0.1,0.5,0.2,0.8,0.2c0.3,0,0.6-0.1,0.8-0.2
	c0.2-0.1,0.4-0.3,0.6-0.5c0.1-0.2,0.3-0.5,0.3-0.7c0.1-0.3,0.1-0.6,0.1-0.9v-0.1c0-0.3,0-0.6-0.1-0.9c-0.1-0.3-0.2-0.5-0.3-0.7
	c-0.1-0.2-0.3-0.4-0.6-0.5c-0.2-0.1-0.5-0.2-0.8-0.2c-0.3,0-0.6,0.1-0.8,0.2c-0.2,0.1-0.4,0.3-0.6,0.5c-0.1,0.2-0.3,0.5-0.3,0.7
	C102.6,120.2,102.5,120.5,102.5,120.8z M110.2,124h-1.1v-7c0-0.5,0.1-0.8,0.2-1.2c0.2-0.3,0.4-0.6,0.7-0.7c0.3-0.2,0.7-0.2,1.1-0.2
	c0.1,0,0.2,0,0.4,0c0.1,0,0.3,0,0.4,0.1l-0.1,0.9c-0.1,0-0.2,0-0.3,0c-0.1,0-0.2,0-0.3,0c-0.2,0-0.4,0-0.6,0.1
	c-0.2,0.1-0.3,0.2-0.4,0.4c-0.1,0.2-0.1,0.4-0.1,0.6V124z M111.5,117.7v0.8h-3.4v-0.8H111.5z M115.4,117.7v0.8H112v-0.8H115.4z
	 M113.1,116.1h1.1v6.3c0,0.2,0,0.4,0.1,0.5c0.1,0.1,0.2,0.2,0.3,0.2c0.1,0,0.2,0.1,0.3,0.1c0.1,0,0.2,0,0.3,0c0.1,0,0.2,0,0.2,0
	l0,0.9c-0.1,0-0.2,0.1-0.3,0.1c-0.1,0-0.3,0-0.5,0c-0.3,0-0.5-0.1-0.7-0.2c-0.2-0.1-0.4-0.3-0.5-0.5c-0.1-0.2-0.2-0.6-0.2-1V116.1z
	 M119.3,124.1c-0.4,0-0.8-0.1-1.2-0.2c-0.4-0.2-0.7-0.4-0.9-0.6c-0.3-0.3-0.4-0.6-0.6-1c-0.1-0.4-0.2-0.8-0.2-1.2v-0.2
	c0-0.5,0.1-1,0.2-1.4c0.2-0.4,0.4-0.8,0.6-1c0.3-0.3,0.6-0.5,0.9-0.6c0.3-0.1,0.7-0.2,1-0.2c0.5,0,0.8,0.1,1.2,0.2
	c0.3,0.2,0.6,0.4,0.8,0.7c0.2,0.3,0.4,0.6,0.5,1c0.1,0.4,0.2,0.8,0.2,1.2v0.5H117v-0.9h3.7v-0.1c0-0.3-0.1-0.6-0.2-0.8
	c-0.1-0.3-0.3-0.5-0.5-0.7c-0.2-0.2-0.5-0.3-0.9-0.3c-0.2,0-0.5,0.1-0.7,0.2c-0.2,0.1-0.4,0.3-0.5,0.5c-0.1,0.2-0.3,0.5-0.3,0.7
	c-0.1,0.3-0.1,0.6-0.1,1v0.2c0,0.3,0,0.6,0.1,0.8c0.1,0.3,0.2,0.5,0.4,0.7c0.2,0.2,0.4,0.4,0.6,0.5c0.2,0.1,0.5,0.2,0.8,0.2
	c0.4,0,0.7-0.1,1-0.2s0.5-0.4,0.7-0.6l0.7,0.5c-0.1,0.2-0.3,0.4-0.5,0.6c-0.2,0.2-0.5,0.3-0.8,0.5
	C120.1,124.1,119.7,124.1,119.3,124.1z M124.1,119v5H123v-6.3h1L124.1,119z M123.9,120.6l-0.5,0c0-0.4,0.1-0.8,0.2-1.2
	c0.1-0.4,0.3-0.7,0.5-1c0.2-0.3,0.5-0.5,0.8-0.6c0.3-0.2,0.7-0.2,1-0.2c0.3,0,0.6,0,0.8,0.1c0.2,0.1,0.5,0.2,0.6,0.4
	c0.2,0.2,0.3,0.4,0.4,0.7c0.1,0.3,0.1,0.6,0.1,1.1v4.2h-1.1v-4.2c0-0.3,0-0.6-0.1-0.8c-0.1-0.2-0.2-0.3-0.4-0.4
	c-0.2-0.1-0.4-0.1-0.7-0.1c-0.3,0-0.5,0.1-0.7,0.2c-0.2,0.1-0.4,0.3-0.6,0.5c-0.2,0.2-0.3,0.4-0.4,0.7
	C123.9,120,123.9,120.3,123.9,120.6z M136.6,122.8V115h1.1v9h-1L136.6,122.8z M132.4,120.9v-0.1c0-0.5,0.1-0.9,0.2-1.3
	c0.1-0.4,0.3-0.7,0.5-1c0.2-0.3,0.5-0.5,0.8-0.7c0.3-0.2,0.7-0.2,1-0.2c0.4,0,0.7,0.1,1,0.2c0.3,0.1,0.6,0.3,0.8,0.6
	c0.2,0.3,0.4,0.6,0.5,0.9c0.1,0.4,0.2,0.8,0.3,1.3v0.5c0,0.5-0.1,0.9-0.3,1.3c-0.1,0.4-0.3,0.7-0.5,0.9c-0.2,0.3-0.5,0.5-0.8,0.6
	c-0.3,0.1-0.7,0.2-1.1,0.2c-0.4,0-0.7-0.1-1-0.2c-0.3-0.2-0.6-0.4-0.8-0.7c-0.2-0.3-0.4-0.6-0.5-1
	C132.4,121.8,132.4,121.4,132.4,120.9z M133.5,120.8v0.1c0,0.3,0,0.6,0.1,0.9c0.1,0.3,0.2,0.5,0.3,0.7c0.1,0.2,0.3,0.4,0.5,0.5
	c0.2,0.1,0.5,0.2,0.8,0.2c0.4,0,0.7-0.1,0.9-0.2c0.2-0.2,0.4-0.4,0.6-0.6c0.1-0.2,0.2-0.5,0.3-0.8v-1.4c0-0.2-0.1-0.4-0.2-0.6
	c-0.1-0.2-0.2-0.4-0.3-0.5c-0.1-0.2-0.3-0.3-0.5-0.4c-0.2-0.1-0.4-0.1-0.7-0.1c-0.3,0-0.6,0.1-0.8,0.2c-0.2,0.1-0.4,0.3-0.5,0.5
	c-0.1,0.2-0.2,0.5-0.3,0.7C133.5,120.2,133.5,120.5,133.5,120.8z M139.1,120.9v-0.1c0-0.5,0.1-0.9,0.2-1.3c0.1-0.4,0.3-0.7,0.6-1
	c0.2-0.3,0.6-0.5,0.9-0.7c0.4-0.2,0.8-0.2,1.2-0.2c0.4,0,0.8,0.1,1.2,0.2c0.4,0.2,0.7,0.4,0.9,0.7c0.3,0.3,0.4,0.6,0.6,1
	c0.1,0.4,0.2,0.8,0.2,1.3v0.1c0,0.5-0.1,0.9-0.2,1.3c-0.1,0.4-0.3,0.7-0.6,1c-0.2,0.3-0.6,0.5-0.9,0.7c-0.4,0.2-0.8,0.2-1.2,0.2
	c-0.4,0-0.8-0.1-1.2-0.2c-0.4-0.2-0.7-0.4-0.9-0.7c-0.2-0.3-0.4-0.6-0.6-1C139.2,121.8,139.1,121.4,139.1,120.9z M140.2,120.8v0.1
	c0,0.3,0,0.6,0.1,0.9c0.1,0.3,0.2,0.5,0.3,0.7c0.2,0.2,0.3,0.4,0.6,0.5c0.2,0.1,0.5,0.2,0.8,0.2c0.3,0,0.6-0.1,0.8-0.2
	c0.2-0.1,0.4-0.3,0.6-0.5c0.1-0.2,0.3-0.5,0.3-0.7c0.1-0.3,0.1-0.6,0.1-0.9v-0.1c0-0.3,0-0.6-0.1-0.9c-0.1-0.3-0.2-0.5-0.3-0.7
	c-0.1-0.2-0.3-0.4-0.6-0.5c-0.2-0.1-0.5-0.2-0.8-0.2c-0.3,0-0.6,0.1-0.8,0.2c-0.2,0.1-0.4,0.3-0.6,0.5c-0.1,0.2-0.3,0.5-0.3,0.7
	C140.3,120.2,140.2,120.5,140.2,120.8z M151,123.3l1.8-5.7h1.2l-2.5,7.3c-0.1,0.2-0.1,0.3-0.2,0.5c-0.1,0.2-0.2,0.4-0.4,0.5
	c-0.1,0.2-0.3,0.3-0.5,0.4c-0.2,0.1-0.5,0.2-0.7,0.2c-0.1,0-0.2,0-0.3,0c-0.1,0-0.2,0-0.3-0.1l0-0.9c0,0,0.1,0,0.1,0
	c0.1,0,0.1,0,0.1,0c0.2,0,0.5,0,0.6-0.1c0.2-0.1,0.3-0.2,0.4-0.3c0.1-0.1,0.2-0.4,0.3-0.6L151,123.3z M149.7,117.7l1.6,4.9l0.3,1.1
	l-0.8,0.4l-2.3-6.5H149.7z M154.5,120.9v-0.1c0-0.5,0.1-0.9,0.2-1.3c0.1-0.4,0.3-0.7,0.6-1c0.2-0.3,0.6-0.5,0.9-0.7
	c0.4-0.2,0.8-0.2,1.2-0.2c0.4,0,0.8,0.1,1.2,0.2c0.4,0.2,0.7,0.4,0.9,0.7c0.3,0.3,0.4,0.6,0.6,1c0.1,0.4,0.2,0.8,0.2,1.3v0.1
	c0,0.5-0.1,0.9-0.2,1.3c-0.1,0.4-0.3,0.7-0.6,1c-0.2,0.3-0.6,0.5-0.9,0.7c-0.4,0.2-0.8,0.2-1.2,0.2c-0.4,0-0.8-0.1-1.2-0.2
	c-0.4-0.2-0.7-0.4-0.9-0.7c-0.2-0.3-0.4-0.6-0.6-1C154.6,121.8,154.5,121.4,154.5,120.9z M155.6,120.8v0.1c0,0.3,0,0.6,0.1,0.9
	c0.1,0.3,0.2,0.5,0.3,0.7c0.2,0.2,0.3,0.4,0.6,0.5c0.2,0.1,0.5,0.2,0.8,0.2c0.3,0,0.6-0.1,0.8-0.2c0.2-0.1,0.4-0.3,0.6-0.5
	c0.1-0.2,0.3-0.5,0.3-0.7c0.1-0.3,0.1-0.6,0.1-0.9v-0.1c0-0.3,0-0.6-0.1-0.9c-0.1-0.3-0.2-0.5-0.3-0.7c-0.1-0.2-0.3-0.4-0.6-0.5
	c-0.2-0.1-0.5-0.2-0.8-0.2c-0.3,0-0.6,0.1-0.8,0.2c-0.2,0.1-0.4,0.3-0.6,0.5c-0.1,0.2-0.3,0.5-0.3,0.7
	C155.7,120.2,155.6,120.5,155.6,120.8z M165.6,122.5v-4.9h1.1v6.3h-1L165.6,122.5z M165.8,121.2l0.5,0c0,0.4,0,0.8-0.1,1.2
	c-0.1,0.4-0.2,0.7-0.4,0.9c-0.2,0.3-0.5,0.5-0.8,0.6c-0.3,0.1-0.7,0.2-1.2,0.2c-0.3,0-0.6,0-0.9-0.1c-0.3-0.1-0.5-0.2-0.7-0.4
	c-0.2-0.2-0.3-0.4-0.4-0.7c-0.1-0.3-0.1-0.7-0.1-1.1v-4.1h1.1v4.1c0,0.3,0,0.5,0.1,0.7c0.1,0.2,0.2,0.3,0.3,0.4
	c0.1,0.1,0.2,0.2,0.4,0.2c0.1,0,0.3,0.1,0.4,0.1c0.5,0,0.8-0.1,1.1-0.3c0.3-0.2,0.5-0.4,0.6-0.7
	C165.7,121.9,165.8,121.6,165.8,121.2z M172.7,124h-1.1v-6.9c0-0.5,0.1-0.9,0.3-1.2c0.2-0.3,0.5-0.6,0.8-0.8
	c0.3-0.2,0.8-0.3,1.2-0.3c0.3,0,0.6,0,0.8,0.1c0.3,0.1,0.5,0.2,0.8,0.3l-0.2,0.9c-0.2-0.1-0.4-0.1-0.6-0.2c-0.2-0.1-0.5-0.1-0.8-0.1
	c-0.5,0-0.8,0.1-1,0.3c-0.2,0.2-0.3,0.5-0.3,0.9V124z M174,117.7v0.8h-3.4v-0.8H174z M176.1,117.7v6.3h-1.1v-6.3H176.1z M179,119v5
	h-1.1v-6.3h1L179,119z M178.8,120.6l-0.5,0c0-0.4,0.1-0.8,0.2-1.2c0.1-0.4,0.3-0.7,0.5-1c0.2-0.3,0.5-0.5,0.8-0.6
	c0.3-0.2,0.7-0.2,1-0.2c0.3,0,0.6,0,0.8,0.1c0.2,0.1,0.5,0.2,0.6,0.4c0.2,0.2,0.3,0.4,0.4,0.7c0.1,0.3,0.1,0.6,0.1,1.1v4.2h-1.1
	v-4.2c0-0.3,0-0.6-0.1-0.8c-0.1-0.2-0.2-0.3-0.4-0.4c-0.2-0.1-0.4-0.1-0.7-0.1c-0.3,0-0.5,0.1-0.7,0.2c-0.2,0.1-0.4,0.3-0.6,0.5
	c-0.2,0.2-0.3,0.4-0.4,0.7C178.8,120,178.8,120.3,178.8,120.6z M188.6,122.8V115h1.1v9h-1L188.6,122.8z M184.3,120.9v-0.1
	c0-0.5,0.1-0.9,0.2-1.3c0.1-0.4,0.3-0.7,0.5-1c0.2-0.3,0.5-0.5,0.8-0.7c0.3-0.2,0.7-0.2,1-0.2c0.4,0,0.7,0.1,1,0.2
	c0.3,0.1,0.6,0.3,0.8,0.6c0.2,0.3,0.4,0.6,0.5,0.9c0.1,0.4,0.2,0.8,0.3,1.3v0.5c0,0.5-0.1,0.9-0.3,1.3c-0.1,0.4-0.3,0.7-0.5,0.9
	c-0.2,0.3-0.5,0.5-0.8,0.6c-0.3,0.1-0.7,0.2-1.1,0.2c-0.4,0-0.7-0.1-1-0.2c-0.3-0.2-0.6-0.4-0.8-0.7c-0.2-0.3-0.4-0.6-0.5-1
	C184.3,121.8,184.3,121.4,184.3,120.9z M185.4,120.8v0.1c0,0.3,0,0.6,0.1,0.9c0.1,0.3,0.2,0.5,0.3,0.7c0.1,0.2,0.3,0.4,0.5,0.5
	c0.2,0.1,0.5,0.2,0.8,0.2c0.4,0,0.7-0.1,0.9-0.2c0.2-0.2,0.4-0.4,0.6-0.6s0.2-0.5,0.3-0.8v-1.4c0-0.2-0.1-0.4-0.2-0.6
	c-0.1-0.2-0.2-0.4-0.3-0.5c-0.1-0.2-0.3-0.3-0.5-0.4c-0.2-0.1-0.4-0.1-0.7-0.1c-0.3,0-0.6,0.1-0.8,0.2c-0.2,0.1-0.4,0.3-0.5,0.5
	c-0.1,0.2-0.2,0.5-0.3,0.7C185.4,120.2,185.4,120.5,185.4,120.8z M70.3,137.3l1.8-5.7h1.2l-2.5,7.3c-0.1,0.2-0.1,0.3-0.2,0.5
	c-0.1,0.2-0.2,0.4-0.4,0.5s-0.3,0.3-0.5,0.4c-0.2,0.1-0.5,0.2-0.7,0.2c-0.1,0-0.2,0-0.3,0c-0.1,0-0.2,0-0.3-0.1l0-0.9
	c0,0,0.1,0,0.1,0c0.1,0,0.1,0,0.1,0c0.2,0,0.5,0,0.6-0.1c0.2-0.1,0.3-0.2,0.4-0.3c0.1-0.1,0.2-0.4,0.3-0.6L70.3,137.3z M69,131.7
	l1.6,4.9l0.3,1.1l-0.8,0.4l-2.3-6.5H69z M73.8,134.9v-0.1c0-0.5,0.1-0.9,0.2-1.3c0.1-0.4,0.3-0.7,0.6-1c0.2-0.3,0.6-0.5,0.9-0.7
	c0.4-0.2,0.8-0.2,1.2-0.2c0.4,0,0.8,0.1,1.2,0.2c0.4,0.2,0.7,0.4,0.9,0.7c0.3,0.3,0.4,0.6,0.6,1c0.1,0.4,0.2,0.8,0.2,1.3v0.1
	c0,0.5-0.1,0.9-0.2,1.3c-0.1,0.4-0.3,0.7-0.6,1c-0.2,0.3-0.6,0.5-0.9,0.7c-0.4,0.2-0.8,0.2-1.2,0.2s-0.8-0.1-1.2-0.2
	c-0.4-0.2-0.7-0.4-0.9-0.7c-0.2-0.3-0.4-0.6-0.6-1C73.8,135.8,73.8,135.4,73.8,134.9z M74.9,134.8v0.1c0,0.3,0,0.6,0.1,0.9
	c0.1,0.3,0.2,0.5,0.3,0.7c0.2,0.2,0.3,0.4,0.6,0.5c0.2,0.1,0.5,0.2,0.8,0.2c0.3,0,0.6-0.1,0.8-0.2c0.2-0.1,0.4-0.3,0.6-0.5
	c0.1-0.2,0.3-0.5,0.3-0.7c0.1-0.3,0.1-0.6,0.1-0.9v-0.1c0-0.3,0-0.6-0.1-0.9c-0.1-0.3-0.2-0.5-0.3-0.7c-0.1-0.2-0.3-0.4-0.6-0.5
	c-0.2-0.1-0.5-0.2-0.8-0.2c-0.3,0-0.6,0.1-0.8,0.2c-0.2,0.1-0.4,0.3-0.6,0.5c-0.1,0.2-0.3,0.5-0.3,0.7
	C74.9,134.2,74.9,134.5,74.9,134.8z M84.8,136.5v-4.9h1.1v6.3h-1L84.8,136.5z M85,135.2l0.5,0c0,0.4,0,0.8-0.1,1.2
	c-0.1,0.4-0.2,0.7-0.4,0.9c-0.2,0.3-0.5,0.5-0.8,0.6c-0.3,0.1-0.7,0.2-1.2,0.2c-0.3,0-0.6,0-0.8-0.1c-0.3-0.1-0.5-0.2-0.7-0.4
	c-0.2-0.2-0.3-0.4-0.4-0.7c-0.1-0.3-0.1-0.7-0.1-1.1v-4.1H82v4.1c0,0.3,0,0.5,0.1,0.7c0.1,0.2,0.2,0.3,0.3,0.4
	c0.1,0.1,0.2,0.2,0.4,0.2c0.1,0,0.3,0.1,0.4,0.1c0.5,0,0.8-0.1,1.1-0.3c0.3-0.2,0.5-0.4,0.6-0.7C84.9,135.9,85,135.6,85,135.2z
	 M88.6,132.7v5.3h-1.1v-6.3h1.1L88.6,132.7z M90.6,131.6l0,1c-0.1,0-0.2,0-0.3,0c-0.1,0-0.2,0-0.3,0c-0.2,0-0.5,0-0.7,0.1
	s-0.4,0.2-0.5,0.3c-0.1,0.1-0.2,0.3-0.3,0.5c-0.1,0.2-0.1,0.4-0.1,0.6l-0.3,0.2c0-0.4,0-0.7,0.1-1.1c0.1-0.3,0.2-0.6,0.4-0.9
	c0.2-0.3,0.4-0.5,0.6-0.6c0.2-0.1,0.5-0.2,0.9-0.2c0.1,0,0.2,0,0.3,0C90.5,131.6,90.6,131.6,90.6,131.6z M95.3,136.3
	c0-0.2,0-0.3-0.1-0.4c-0.1-0.1-0.2-0.3-0.4-0.4c-0.2-0.1-0.5-0.2-0.9-0.3c-0.4-0.1-0.7-0.2-1-0.3c-0.3-0.1-0.5-0.2-0.7-0.4
	c-0.2-0.1-0.3-0.3-0.5-0.5c-0.1-0.2-0.2-0.4-0.2-0.7c0-0.2,0.1-0.5,0.2-0.7c0.1-0.2,0.3-0.4,0.5-0.6c0.2-0.2,0.5-0.3,0.7-0.4
	c0.3-0.1,0.6-0.1,1-0.1c0.5,0,0.9,0.1,1.3,0.3c0.4,0.2,0.6,0.4,0.8,0.7c0.2,0.3,0.3,0.6,0.3,1h-1.1c0-0.2-0.1-0.3-0.2-0.5
	c-0.1-0.2-0.3-0.3-0.5-0.4c-0.2-0.1-0.4-0.2-0.7-0.2c-0.3,0-0.5,0-0.7,0.1c-0.2,0.1-0.3,0.2-0.4,0.3c-0.1,0.1-0.1,0.3-0.1,0.4
	c0,0.1,0,0.2,0.1,0.3c0,0.1,0.1,0.2,0.2,0.3c0.1,0.1,0.3,0.1,0.4,0.2c0.2,0.1,0.4,0.1,0.7,0.2c0.5,0.1,0.9,0.3,1.3,0.4
	c0.3,0.2,0.6,0.4,0.8,0.6c0.2,0.2,0.2,0.5,0.2,0.9c0,0.3-0.1,0.5-0.2,0.8c-0.1,0.2-0.3,0.4-0.5,0.6c-0.2,0.2-0.5,0.3-0.8,0.4
	c-0.3,0.1-0.6,0.1-1,0.1c-0.6,0-1-0.1-1.4-0.3c-0.4-0.2-0.7-0.5-0.9-0.8c-0.2-0.3-0.3-0.6-0.3-1h1.1c0,0.3,0.1,0.5,0.3,0.7
	c0.2,0.2,0.3,0.3,0.6,0.4c0.2,0.1,0.5,0.1,0.7,0.1c0.3,0,0.5,0,0.7-0.1c0.2-0.1,0.4-0.2,0.5-0.3C95.2,136.6,95.3,136.5,95.3,136.3z
	 M100.4,138.1c-0.4,0-0.8-0.1-1.2-0.2c-0.4-0.2-0.7-0.4-0.9-0.6c-0.3-0.3-0.4-0.6-0.6-1c-0.1-0.4-0.2-0.8-0.2-1.2v-0.2
	c0-0.5,0.1-1,0.2-1.4c0.2-0.4,0.4-0.8,0.6-1c0.3-0.3,0.6-0.5,0.9-0.6c0.3-0.1,0.7-0.2,1-0.2c0.5,0,0.8,0.1,1.2,0.2
	c0.3,0.2,0.6,0.4,0.8,0.7c0.2,0.3,0.4,0.6,0.5,1c0.1,0.4,0.2,0.8,0.2,1.2v0.5h-4.7v-0.9h3.7v-0.1c0-0.3-0.1-0.6-0.2-0.8
	c-0.1-0.3-0.3-0.5-0.5-0.7c-0.2-0.2-0.5-0.3-0.9-0.3c-0.2,0-0.5,0.1-0.7,0.2c-0.2,0.1-0.4,0.3-0.5,0.5c-0.1,0.2-0.3,0.5-0.3,0.7
	s-0.1,0.6-0.1,1v0.2c0,0.3,0,0.6,0.1,0.8c0.1,0.3,0.2,0.5,0.4,0.7c0.2,0.2,0.4,0.4,0.6,0.5c0.2,0.1,0.5,0.2,0.8,0.2
	c0.4,0,0.7-0.1,1-0.2s0.5-0.4,0.7-0.6l0.7,0.5c-0.1,0.2-0.3,0.4-0.5,0.6c-0.2,0.2-0.5,0.3-0.8,0.5
	C101.2,138.1,100.8,138.1,100.4,138.1z M105.3,129v9h-1.1v-9H105.3z M108.7,138h-1.1v-7c0-0.5,0.1-0.8,0.2-1.2
	c0.2-0.3,0.4-0.6,0.7-0.7c0.3-0.2,0.7-0.2,1.1-0.2c0.1,0,0.2,0,0.4,0c0.1,0,0.3,0,0.4,0.1l-0.1,0.9c-0.1,0-0.2,0-0.3,0
	c-0.1,0-0.2,0-0.3,0c-0.2,0-0.4,0-0.6,0.1c-0.2,0.1-0.3,0.2-0.4,0.4c-0.1,0.2-0.1,0.4-0.1,0.7V138z M110,131.7v0.8h-3.4v-0.8H110z
	 M115.3,129v9h-1.1v-9H115.3z M115,134.6l-0.5,0c0-0.4,0.1-0.8,0.2-1.2c0.1-0.4,0.3-0.7,0.5-1c0.2-0.3,0.5-0.5,0.8-0.6
	c0.3-0.2,0.7-0.2,1-0.2c0.3,0,0.6,0,0.8,0.1c0.2,0.1,0.5,0.2,0.6,0.4c0.2,0.2,0.3,0.4,0.4,0.7c0.1,0.3,0.1,0.6,0.1,1.1v4.2h-1.1
	v-4.2c0-0.3,0-0.6-0.1-0.8c-0.1-0.2-0.2-0.3-0.4-0.4c-0.2-0.1-0.4-0.1-0.7-0.1c-0.3,0-0.5,0.1-0.7,0.2c-0.2,0.1-0.4,0.3-0.6,0.5
	c-0.2,0.2-0.3,0.4-0.4,0.7C115.1,134,115,134.3,115,134.6z M124.6,136.9v-3.3c0-0.2-0.1-0.5-0.2-0.6c-0.1-0.2-0.2-0.3-0.4-0.4
	c-0.2-0.1-0.4-0.2-0.7-0.2c-0.3,0-0.5,0-0.7,0.1c-0.2,0.1-0.4,0.2-0.5,0.4c-0.1,0.2-0.2,0.3-0.2,0.5h-1.1c0-0.2,0.1-0.5,0.2-0.7
	c0.1-0.2,0.3-0.4,0.5-0.6c0.2-0.2,0.5-0.3,0.8-0.4c0.3-0.1,0.7-0.2,1-0.2c0.5,0,0.9,0.1,1.2,0.2c0.4,0.2,0.6,0.4,0.8,0.7
	c0.2,0.3,0.3,0.7,0.3,1.2v3c0,0.2,0,0.4,0.1,0.7c0,0.2,0.1,0.4,0.2,0.6v0.1h-1.1c-0.1-0.1-0.1-0.3-0.1-0.5
	C124.6,137.3,124.6,137.1,124.6,136.9z M124.8,134.2l0,0.8h-1.1c-0.3,0-0.6,0-0.8,0.1c-0.2,0-0.4,0.1-0.6,0.2
	c-0.2,0.1-0.3,0.2-0.4,0.4c-0.1,0.1-0.1,0.3-0.1,0.5c0,0.2,0,0.4,0.1,0.5c0.1,0.2,0.2,0.3,0.4,0.4c0.2,0.1,0.4,0.1,0.7,0.1
	c0.3,0,0.6-0.1,0.9-0.2c0.3-0.1,0.5-0.3,0.6-0.5c0.2-0.2,0.2-0.4,0.2-0.6l0.5,0.5c0,0.2-0.1,0.3-0.2,0.5s-0.3,0.4-0.5,0.6
	c-0.2,0.2-0.4,0.3-0.7,0.5c-0.3,0.1-0.6,0.2-0.9,0.2c-0.4,0-0.8-0.1-1.1-0.3c-0.3-0.2-0.6-0.4-0.8-0.7c-0.2-0.3-0.3-0.6-0.3-1
	c0-0.3,0.1-0.6,0.2-0.9c0.1-0.3,0.3-0.5,0.6-0.7c0.2-0.2,0.6-0.3,0.9-0.4c0.4-0.1,0.7-0.1,1.2-0.1H124.8z M131.4,136.8V129h1.1v9h-1
	L131.4,136.8z M127.1,134.9v-0.1c0-0.5,0.1-0.9,0.2-1.3c0.1-0.4,0.3-0.7,0.5-1c0.2-0.3,0.5-0.5,0.8-0.7c0.3-0.2,0.7-0.2,1-0.2
	c0.4,0,0.7,0.1,1,0.2c0.3,0.1,0.6,0.3,0.8,0.6c0.2,0.3,0.4,0.6,0.5,1c0.1,0.4,0.2,0.8,0.3,1.3v0.5c0,0.5-0.1,0.9-0.3,1.3
	c-0.1,0.4-0.3,0.7-0.5,1c-0.2,0.3-0.5,0.5-0.8,0.6c-0.3,0.1-0.7,0.2-1.1,0.2c-0.4,0-0.7-0.1-1-0.2c-0.3-0.2-0.6-0.4-0.8-0.7
	c-0.2-0.3-0.4-0.6-0.5-1C127.1,135.8,127.1,135.4,127.1,134.9z M128.2,134.8v0.1c0,0.3,0,0.6,0.1,0.9c0.1,0.3,0.2,0.5,0.3,0.7
	c0.1,0.2,0.3,0.4,0.5,0.5c0.2,0.1,0.5,0.2,0.8,0.2c0.4,0,0.7-0.1,0.9-0.2c0.2-0.2,0.4-0.4,0.6-0.6c0.1-0.2,0.2-0.5,0.3-0.8v-1.4
	c0-0.2-0.1-0.4-0.2-0.6c-0.1-0.2-0.2-0.4-0.3-0.5c-0.1-0.2-0.3-0.3-0.5-0.4c-0.2-0.1-0.4-0.1-0.7-0.1c-0.3,0-0.6,0.1-0.8,0.2
	c-0.2,0.1-0.4,0.3-0.5,0.5c-0.1,0.2-0.2,0.5-0.3,0.7C128.2,134.2,128.2,134.5,128.2,134.8z M140.8,136.9v-3.3c0-0.2-0.1-0.5-0.2-0.6
	c-0.1-0.2-0.2-0.3-0.4-0.4c-0.2-0.1-0.4-0.2-0.7-0.2c-0.3,0-0.5,0-0.7,0.1c-0.2,0.1-0.4,0.2-0.5,0.4c-0.1,0.2-0.2,0.3-0.2,0.5h-1.1
	c0-0.2,0.1-0.5,0.2-0.7c0.1-0.2,0.3-0.4,0.5-0.6c0.2-0.2,0.5-0.3,0.8-0.4c0.3-0.1,0.7-0.2,1-0.2c0.5,0,0.9,0.1,1.2,0.2
	c0.4,0.2,0.6,0.4,0.8,0.7c0.2,0.3,0.3,0.7,0.3,1.2v3c0,0.2,0,0.4,0.1,0.7c0,0.2,0.1,0.4,0.2,0.6v0.1H141c-0.1-0.1-0.1-0.3-0.1-0.5
	C140.9,137.3,140.8,137.1,140.8,136.9z M141,134.2l0,0.8H140c-0.3,0-0.6,0-0.8,0.1c-0.2,0-0.4,0.1-0.6,0.2c-0.2,0.1-0.3,0.2-0.4,0.4
	c-0.1,0.1-0.1,0.3-0.1,0.5c0,0.2,0,0.4,0.1,0.5c0.1,0.2,0.2,0.3,0.4,0.4c0.2,0.1,0.4,0.1,0.7,0.1c0.3,0,0.6-0.1,0.9-0.2
	c0.3-0.1,0.5-0.3,0.6-0.5c0.2-0.2,0.2-0.4,0.2-0.6l0.5,0.5c0,0.2-0.1,0.3-0.2,0.5c-0.1,0.2-0.3,0.4-0.5,0.6
	c-0.2,0.2-0.4,0.3-0.7,0.5c-0.3,0.1-0.6,0.2-0.9,0.2c-0.4,0-0.8-0.1-1.1-0.3c-0.3-0.2-0.6-0.4-0.8-0.7c-0.2-0.3-0.3-0.6-0.3-1
	c0-0.3,0.1-0.6,0.2-0.9c0.1-0.3,0.3-0.5,0.6-0.7c0.2-0.2,0.6-0.3,0.9-0.4c0.4-0.1,0.7-0.1,1.2-0.1H141z M147.7,129v9h-1.1v-9H147.7z
	 M147.4,134.6l-0.5,0c0-0.4,0.1-0.8,0.2-1.2c0.1-0.4,0.3-0.7,0.5-1c0.2-0.3,0.5-0.5,0.8-0.6c0.3-0.2,0.7-0.2,1-0.2
	c0.3,0,0.6,0,0.8,0.1c0.2,0.1,0.5,0.2,0.6,0.4c0.2,0.2,0.3,0.4,0.4,0.7c0.1,0.3,0.1,0.6,0.1,1.1v4.2h-1.1v-4.2c0-0.3,0-0.6-0.1-0.8
	c-0.1-0.2-0.2-0.3-0.4-0.4c-0.2-0.1-0.4-0.1-0.7-0.1c-0.3,0-0.5,0.1-0.7,0.2c-0.2,0.1-0.4,0.3-0.6,0.5c-0.2,0.2-0.3,0.4-0.4,0.7
	C147.5,134,147.4,134.3,147.4,134.6z M157,136.9v-3.3c0-0.2-0.1-0.5-0.2-0.6c-0.1-0.2-0.2-0.3-0.4-0.4c-0.2-0.1-0.4-0.2-0.7-0.2
	c-0.3,0-0.5,0-0.7,0.1c-0.2,0.1-0.4,0.2-0.5,0.4c-0.1,0.2-0.2,0.3-0.2,0.5h-1.1c0-0.2,0.1-0.5,0.2-0.7c0.1-0.2,0.3-0.4,0.5-0.6
	c0.2-0.2,0.5-0.3,0.8-0.4c0.3-0.1,0.7-0.2,1-0.2c0.5,0,0.9,0.1,1.2,0.2c0.4,0.2,0.6,0.4,0.8,0.7c0.2,0.3,0.3,0.7,0.3,1.2v3
	c0,0.2,0,0.4,0.1,0.7c0,0.2,0.1,0.4,0.2,0.6v0.1h-1.1c-0.1-0.1-0.1-0.3-0.1-0.5C157,137.3,157,137.1,157,136.9z M157.1,134.2l0,0.8
	h-1.1c-0.3,0-0.6,0-0.8,0.1c-0.2,0-0.4,0.1-0.6,0.2c-0.2,0.1-0.3,0.2-0.4,0.4c-0.1,0.1-0.1,0.3-0.1,0.5c0,0.2,0,0.4,0.1,0.5
	c0.1,0.2,0.2,0.3,0.4,0.4c0.2,0.1,0.4,0.1,0.7,0.1c0.3,0,0.6-0.1,0.9-0.2s0.5-0.3,0.6-0.5c0.2-0.2,0.2-0.4,0.2-0.6l0.5,0.5
	c0,0.2-0.1,0.3-0.2,0.5c-0.1,0.2-0.3,0.4-0.5,0.6c-0.2,0.2-0.4,0.3-0.7,0.5c-0.3,0.1-0.6,0.2-0.9,0.2c-0.4,0-0.8-0.1-1.1-0.3
	c-0.3-0.2-0.6-0.4-0.8-0.7c-0.2-0.3-0.3-0.6-0.3-1c0-0.3,0.1-0.6,0.2-0.9c0.1-0.3,0.3-0.5,0.6-0.7c0.2-0.2,0.5-0.3,0.9-0.4
	c0.4-0.1,0.7-0.1,1.2-0.1H157.1z M160.8,132.7v5.3h-1.1v-6.3h1.1L160.8,132.7z M162.8,131.6l0,1c-0.1,0-0.2,0-0.3,0
	c-0.1,0-0.2,0-0.3,0c-0.2,0-0.5,0-0.7,0.1c-0.2,0.1-0.4,0.2-0.5,0.3c-0.1,0.1-0.2,0.3-0.3,0.5c-0.1,0.2-0.1,0.4-0.1,0.6l-0.3,0.2
	c0-0.4,0-0.7,0.1-1.1c0.1-0.3,0.2-0.6,0.4-0.9c0.2-0.3,0.4-0.5,0.6-0.6c0.2-0.1,0.5-0.2,0.9-0.2c0.1,0,0.2,0,0.3,0
	C162.7,131.6,162.8,131.6,162.8,131.6z M167.7,136.8V129h1.1v9h-1L167.7,136.8z M163.4,134.9v-0.1c0-0.5,0.1-0.9,0.2-1.3
	c0.1-0.4,0.3-0.7,0.5-1c0.2-0.3,0.5-0.5,0.8-0.7c0.3-0.2,0.7-0.2,1-0.2c0.4,0,0.7,0.1,1,0.2c0.3,0.1,0.6,0.3,0.8,0.6
	c0.2,0.3,0.4,0.6,0.5,1c0.1,0.4,0.2,0.8,0.3,1.3v0.5c0,0.5-0.1,0.9-0.3,1.3c-0.1,0.4-0.3,0.7-0.5,1c-0.2,0.3-0.5,0.5-0.8,0.6
	c-0.3,0.1-0.7,0.2-1.1,0.2c-0.4,0-0.7-0.1-1-0.2c-0.3-0.2-0.6-0.4-0.8-0.7c-0.2-0.3-0.4-0.6-0.5-1
	C163.5,135.8,163.4,135.4,163.4,134.9z M164.5,134.8v0.1c0,0.3,0,0.6,0.1,0.9c0.1,0.3,0.2,0.5,0.3,0.7s0.3,0.4,0.5,0.5
	c0.2,0.1,0.5,0.2,0.8,0.2c0.4,0,0.7-0.1,0.9-0.2c0.2-0.2,0.4-0.4,0.6-0.6c0.1-0.2,0.2-0.5,0.3-0.8v-1.4c0-0.2-0.1-0.4-0.2-0.6
	c-0.1-0.2-0.2-0.4-0.3-0.5c-0.1-0.2-0.3-0.3-0.5-0.4c-0.2-0.1-0.4-0.1-0.7-0.1c-0.3,0-0.6,0.1-0.8,0.2c-0.2,0.1-0.4,0.3-0.5,0.5
	c-0.1,0.2-0.2,0.5-0.3,0.7C164.6,134.2,164.5,134.5,164.5,134.8z M176.1,131.7v0.8h-3.4v-0.8H176.1z M173.8,130.1h1.1v6.3
	c0,0.2,0,0.4,0.1,0.5c0.1,0.1,0.2,0.2,0.3,0.2c0.1,0,0.2,0.1,0.3,0.1c0.1,0,0.2,0,0.3,0c0.1,0,0.2,0,0.2,0l0,0.9
	c-0.1,0-0.2,0.1-0.3,0.1c-0.1,0-0.3,0-0.5,0c-0.3,0-0.5-0.1-0.7-0.2c-0.2-0.1-0.4-0.3-0.5-0.5c-0.1-0.2-0.2-0.6-0.2-1V130.1z
	 M178.6,131.7v6.3h-1.1v-6.3H178.6z M177.4,130c0-0.2,0.1-0.3,0.2-0.4c0.1-0.1,0.3-0.2,0.5-0.2c0.2,0,0.4,0.1,0.5,0.2
	c0.1,0.1,0.2,0.3,0.2,0.4c0,0.2-0.1,0.3-0.2,0.4c-0.1,0.1-0.3,0.2-0.5,0.2c-0.2,0-0.4-0.1-0.5-0.2
	C177.4,130.3,177.4,130.1,177.4,130z M181.4,132.9v5.1h-1.1v-6.3h1L181.4,132.9z M181.1,134.6l-0.5,0c0-0.4,0.1-0.8,0.2-1.2
	c0.1-0.4,0.3-0.7,0.5-1c0.2-0.3,0.5-0.5,0.8-0.6c0.3-0.2,0.7-0.2,1.1-0.2c0.3,0,0.6,0,0.8,0.1c0.2,0.1,0.5,0.2,0.7,0.4
	c0.2,0.2,0.3,0.4,0.4,0.7c0.1,0.3,0.2,0.6,0.2,1v4.2h-1.1v-4.2c0-0.3-0.1-0.6-0.2-0.8c-0.1-0.2-0.3-0.3-0.5-0.4
	c-0.2-0.1-0.4-0.1-0.7-0.1c-0.3,0-0.6,0.1-0.8,0.2c-0.2,0.1-0.4,0.3-0.5,0.5c-0.1,0.2-0.2,0.4-0.3,0.7
	C181.2,134,181.1,134.3,181.1,134.6z M185.3,134l-0.7,0.2c0-0.3,0.1-0.7,0.2-1c0.1-0.3,0.3-0.6,0.5-0.9c0.2-0.2,0.5-0.4,0.8-0.6
	c0.3-0.1,0.7-0.2,1.1-0.2c0.3,0,0.6,0,0.9,0.1c0.3,0.1,0.5,0.2,0.7,0.4c0.2,0.2,0.3,0.4,0.4,0.7c0.1,0.3,0.1,0.6,0.1,1v4.2h-1.1
	v-4.2c0-0.4-0.1-0.6-0.2-0.8c-0.1-0.2-0.3-0.3-0.5-0.4c-0.2-0.1-0.4-0.1-0.7-0.1c-0.2,0-0.4,0-0.6,0.1c-0.2,0.1-0.3,0.2-0.5,0.3
	c-0.1,0.1-0.2,0.3-0.3,0.5C185.3,133.6,185.3,133.8,185.3,134z M193.4,138.1c-0.4,0-0.8-0.1-1.2-0.2c-0.4-0.2-0.7-0.4-0.9-0.6
	c-0.3-0.3-0.4-0.6-0.6-1c-0.1-0.4-0.2-0.8-0.2-1.2v-0.2c0-0.5,0.1-1,0.2-1.4c0.2-0.4,0.4-0.8,0.6-1c0.3-0.3,0.6-0.5,0.9-0.6
	c0.3-0.1,0.7-0.2,1-0.2c0.5,0,0.8,0.1,1.2,0.2c0.3,0.2,0.6,0.4,0.8,0.7c0.2,0.3,0.4,0.6,0.5,1c0.1,0.4,0.2,0.8,0.2,1.2v0.5h-4.7
	v-0.9h3.7v-0.1c0-0.3-0.1-0.6-0.2-0.8c-0.1-0.3-0.3-0.5-0.5-0.7c-0.2-0.2-0.5-0.3-0.9-0.3c-0.2,0-0.5,0.1-0.7,0.2
	c-0.2,0.1-0.4,0.3-0.5,0.5c-0.1,0.2-0.3,0.5-0.3,0.7s-0.1,0.6-0.1,1v0.2c0,0.3,0,0.6,0.1,0.8c0.1,0.3,0.2,0.5,0.4,0.7
	c0.2,0.2,0.4,0.4,0.6,0.5c0.2,0.1,0.5,0.2,0.8,0.2c0.4,0,0.7-0.1,1-0.2c0.3-0.2,0.5-0.4,0.7-0.6l0.7,0.5c-0.1,0.2-0.3,0.4-0.5,0.6
	c-0.2,0.2-0.5,0.3-0.8,0.5C194.2,138.1,193.9,138.1,193.4,138.1z M59.9,152h-1.1v-7c0-0.5,0.1-0.8,0.2-1.2c0.2-0.3,0.4-0.6,0.7-0.7
	c0.3-0.2,0.7-0.2,1.1-0.2c0.1,0,0.2,0,0.4,0c0.1,0,0.3,0,0.4,0.1l-0.1,0.9c-0.1,0-0.2,0-0.3,0c-0.1,0-0.2,0-0.3,0
	c-0.2,0-0.4,0-0.6,0.1c-0.2,0.1-0.3,0.2-0.4,0.4c-0.1,0.2-0.1,0.4-0.1,0.7V152z M61.2,145.7v0.8h-3.4v-0.8H61.2z M62.1,148.9v-0.1
	c0-0.5,0.1-0.9,0.2-1.3c0.1-0.4,0.3-0.7,0.6-1c0.2-0.3,0.6-0.5,0.9-0.7c0.4-0.2,0.8-0.2,1.2-0.2c0.4,0,0.8,0.1,1.2,0.2
	c0.4,0.2,0.7,0.4,0.9,0.7c0.3,0.3,0.4,0.6,0.6,1c0.1,0.4,0.2,0.8,0.2,1.3v0.1c0,0.5-0.1,0.9-0.2,1.3c-0.1,0.4-0.3,0.7-0.6,1
	c-0.2,0.3-0.6,0.5-0.9,0.7c-0.4,0.2-0.8,0.2-1.2,0.2c-0.4,0-0.8-0.1-1.2-0.2c-0.4-0.2-0.7-0.4-0.9-0.7c-0.2-0.3-0.4-0.6-0.6-1
	C62.2,149.8,62.1,149.4,62.1,148.9z M63.2,148.8v0.1c0,0.3,0,0.6,0.1,0.9c0.1,0.3,0.2,0.5,0.3,0.7c0.2,0.2,0.3,0.4,0.6,0.5
	c0.2,0.1,0.5,0.2,0.8,0.2c0.3,0,0.6-0.1,0.8-0.2c0.2-0.1,0.4-0.3,0.6-0.5s0.3-0.5,0.3-0.7c0.1-0.3,0.1-0.6,0.1-0.9v-0.1
	c0-0.3,0-0.6-0.1-0.9c-0.1-0.3-0.2-0.5-0.3-0.7c-0.1-0.2-0.3-0.4-0.6-0.5c-0.2-0.1-0.5-0.2-0.8-0.2c-0.3,0-0.6,0.1-0.8,0.2
	c-0.2,0.1-0.4,0.3-0.6,0.5c-0.1,0.2-0.3,0.5-0.3,0.7C63.3,148.2,63.2,148.5,63.2,148.8z M71.8,151.2c0.3,0,0.5-0.1,0.7-0.2
	c0.2-0.1,0.4-0.2,0.5-0.4c0.1-0.2,0.2-0.4,0.2-0.6h1c0,0.4-0.1,0.7-0.4,1c-0.2,0.3-0.5,0.6-0.9,0.8c-0.4,0.2-0.8,0.3-1.2,0.3
	c-0.5,0-0.9-0.1-1.2-0.3c-0.4-0.2-0.6-0.4-0.9-0.7c-0.2-0.3-0.4-0.6-0.5-1c-0.1-0.4-0.2-0.8-0.2-1.2v-0.2c0-0.4,0.1-0.8,0.2-1.2
	c0.1-0.4,0.3-0.7,0.5-1c0.2-0.3,0.5-0.5,0.9-0.7c0.4-0.2,0.8-0.3,1.2-0.3c0.5,0,0.9,0.1,1.3,0.3c0.4,0.2,0.7,0.5,0.9,0.8
	c0.2,0.3,0.3,0.7,0.4,1.2h-1c0-0.3-0.1-0.5-0.2-0.7c-0.1-0.2-0.3-0.4-0.5-0.5c-0.2-0.1-0.5-0.2-0.8-0.2c-0.3,0-0.6,0.1-0.8,0.2
	c-0.2,0.1-0.4,0.3-0.5,0.5c-0.1,0.2-0.2,0.5-0.3,0.7c-0.1,0.3-0.1,0.5-0.1,0.8v0.2c0,0.3,0,0.6,0.1,0.8c0.1,0.3,0.1,0.5,0.3,0.7
	c0.1,0.2,0.3,0.4,0.5,0.5C71.2,151.2,71.5,151.2,71.8,151.2z M79.4,150.5v-4.9h1.1v6.3h-1L79.4,150.5z M79.6,149.2l0.5,0
	c0,0.4,0,0.8-0.1,1.2c-0.1,0.4-0.2,0.7-0.4,0.9c-0.2,0.3-0.5,0.5-0.8,0.6c-0.3,0.1-0.7,0.2-1.2,0.2c-0.3,0-0.6,0-0.8-0.1
	c-0.3-0.1-0.5-0.2-0.7-0.4c-0.2-0.2-0.3-0.4-0.4-0.7c-0.1-0.3-0.1-0.7-0.1-1.1v-4.1h1.1v4.1c0,0.3,0,0.5,0.1,0.7
	c0.1,0.2,0.2,0.3,0.3,0.4c0.1,0.1,0.2,0.2,0.4,0.2c0.1,0,0.3,0.1,0.4,0.1c0.5,0,0.8-0.1,1.1-0.3c0.3-0.2,0.5-0.4,0.6-0.7
	C79.6,149.9,79.6,149.6,79.6,149.2z M85.9,150.3c0-0.2,0-0.3-0.1-0.4c-0.1-0.1-0.2-0.3-0.4-0.4c-0.2-0.1-0.5-0.2-0.9-0.3
	c-0.4-0.1-0.7-0.2-1-0.3c-0.3-0.1-0.5-0.2-0.7-0.4c-0.2-0.1-0.3-0.3-0.5-0.5c-0.1-0.2-0.2-0.4-0.2-0.7c0-0.2,0.1-0.5,0.2-0.7
	c0.1-0.2,0.3-0.4,0.5-0.6c0.2-0.2,0.5-0.3,0.7-0.4c0.3-0.1,0.6-0.1,1-0.1c0.5,0,0.9,0.1,1.3,0.3c0.4,0.2,0.6,0.4,0.8,0.7
	c0.2,0.3,0.3,0.6,0.3,1h-1.1c0-0.2-0.1-0.3-0.2-0.5c-0.1-0.2-0.3-0.3-0.5-0.4c-0.2-0.1-0.4-0.2-0.7-0.2c-0.3,0-0.5,0-0.7,0.1
	c-0.2,0.1-0.3,0.2-0.4,0.3c-0.1,0.1-0.1,0.3-0.1,0.4c0,0.1,0,0.2,0.1,0.3c0,0.1,0.1,0.2,0.2,0.3c0.1,0.1,0.3,0.1,0.4,0.2
	c0.2,0.1,0.4,0.1,0.7,0.2c0.5,0.1,0.9,0.3,1.3,0.4c0.3,0.2,0.6,0.4,0.8,0.6c0.2,0.2,0.2,0.5,0.2,0.9c0,0.3-0.1,0.5-0.2,0.8
	c-0.1,0.2-0.3,0.4-0.5,0.6c-0.2,0.2-0.5,0.3-0.8,0.4c-0.3,0.1-0.6,0.1-1,0.1c-0.6,0-1-0.1-1.4-0.3c-0.4-0.2-0.7-0.5-0.9-0.8
	c-0.2-0.3-0.3-0.6-0.3-1H83c0,0.3,0.1,0.5,0.3,0.7c0.2,0.2,0.3,0.3,0.6,0.4c0.2,0.1,0.5,0.1,0.7,0.1c0.3,0,0.5,0,0.7-0.1
	c0.2-0.1,0.4-0.2,0.5-0.3C85.8,150.6,85.9,150.5,85.9,150.3z M89.6,145.7v6.3h-1.1v-6.3H89.6z M88.4,144c0-0.2,0.1-0.3,0.2-0.4
	c0.1-0.1,0.3-0.2,0.5-0.2c0.2,0,0.4,0.1,0.5,0.2c0.1,0.1,0.2,0.3,0.2,0.4c0,0.2-0.1,0.3-0.2,0.4c-0.1,0.1-0.3,0.2-0.5,0.2
	c-0.2,0-0.4-0.1-0.5-0.2C88.4,144.3,88.4,144.1,88.4,144z M92.4,147v5h-1.1v-6.3h1L92.4,147z M92.1,148.6l-0.5,0
	c0-0.4,0.1-0.8,0.2-1.2c0.1-0.4,0.3-0.7,0.5-1c0.2-0.3,0.5-0.5,0.8-0.6c0.3-0.2,0.7-0.2,1-0.2c0.3,0,0.6,0,0.8,0.1
	c0.2,0.1,0.5,0.2,0.6,0.4c0.2,0.2,0.3,0.4,0.4,0.7c0.1,0.3,0.1,0.6,0.1,1.1v4.2h-1.1v-4.2c0-0.3,0-0.6-0.1-0.8
	c-0.1-0.2-0.2-0.3-0.4-0.4c-0.2-0.1-0.4-0.1-0.7-0.1c-0.3,0-0.5,0.1-0.7,0.2c-0.2,0.1-0.4,0.3-0.6,0.5c-0.2,0.2-0.3,0.4-0.4,0.7
	C92.2,148,92.1,148.3,92.1,148.6z M102,145.7h1v6.2c0,0.6-0.1,1-0.3,1.4c-0.2,0.4-0.5,0.7-0.9,0.9c-0.4,0.2-0.9,0.3-1.4,0.3
	c-0.2,0-0.5,0-0.8-0.1c-0.3-0.1-0.6-0.2-0.9-0.3c-0.3-0.2-0.5-0.4-0.7-0.7l0.6-0.6c0.3,0.3,0.5,0.5,0.8,0.7c0.3,0.1,0.6,0.2,0.9,0.2
	c0.3,0,0.6-0.1,0.9-0.2s0.4-0.3,0.6-0.6c0.1-0.2,0.2-0.6,0.2-0.9v-4.9L102,145.7z M97.7,148.9v-0.1c0-0.5,0.1-0.9,0.2-1.3
	c0.1-0.4,0.3-0.7,0.5-1c0.2-0.3,0.5-0.5,0.8-0.7c0.3-0.2,0.7-0.2,1-0.2c0.4,0,0.7,0.1,1,0.2c0.3,0.1,0.6,0.3,0.8,0.6
	c0.2,0.3,0.4,0.6,0.5,1c0.1,0.4,0.2,0.8,0.3,1.3v0.5c0,0.5-0.1,0.9-0.3,1.3c-0.1,0.4-0.3,0.7-0.5,1c-0.2,0.3-0.5,0.5-0.8,0.6
	c-0.3,0.1-0.7,0.2-1.1,0.2c-0.4,0-0.7-0.1-1-0.2c-0.3-0.2-0.6-0.4-0.8-0.7c-0.2-0.3-0.4-0.6-0.5-1C97.7,149.8,97.7,149.4,97.7,148.9
	z M98.8,148.8v0.1c0,0.3,0,0.6,0.1,0.9c0.1,0.3,0.2,0.5,0.3,0.7c0.1,0.2,0.3,0.4,0.5,0.5c0.2,0.1,0.5,0.2,0.8,0.2
	c0.4,0,0.7-0.1,0.9-0.2c0.2-0.2,0.4-0.4,0.6-0.6c0.1-0.2,0.2-0.5,0.3-0.8v-1.4c0-0.2-0.1-0.4-0.2-0.6c-0.1-0.2-0.2-0.4-0.3-0.5
	c-0.1-0.2-0.3-0.3-0.5-0.4c-0.2-0.1-0.4-0.1-0.7-0.1c-0.3,0-0.6,0.1-0.8,0.2c-0.2,0.1-0.4,0.3-0.5,0.5c-0.1,0.2-0.2,0.5-0.3,0.7
	C98.8,148.2,98.8,148.5,98.8,148.8z M107.4,148.9v-0.1c0-0.5,0.1-0.9,0.2-1.3c0.1-0.4,0.3-0.7,0.6-1c0.2-0.3,0.6-0.5,0.9-0.7
	c0.4-0.2,0.8-0.2,1.2-0.2c0.4,0,0.8,0.1,1.2,0.2c0.4,0.2,0.7,0.4,0.9,0.7c0.3,0.3,0.4,0.6,0.6,1c0.1,0.4,0.2,0.8,0.2,1.3v0.1
	c0,0.5-0.1,0.9-0.2,1.3c-0.1,0.4-0.3,0.7-0.6,1c-0.2,0.3-0.6,0.5-0.9,0.7c-0.4,0.2-0.8,0.2-1.2,0.2s-0.8-0.1-1.2-0.2
	c-0.4-0.2-0.7-0.4-0.9-0.7c-0.2-0.3-0.4-0.6-0.6-1C107.4,149.8,107.4,149.4,107.4,148.9z M108.4,148.8v0.1c0,0.3,0,0.6,0.1,0.9
	c0.1,0.3,0.2,0.5,0.3,0.7c0.2,0.2,0.3,0.4,0.6,0.5c0.2,0.1,0.5,0.2,0.8,0.2c0.3,0,0.6-0.1,0.8-0.2c0.2-0.1,0.4-0.3,0.6-0.5
	c0.1-0.2,0.3-0.5,0.3-0.7c0.1-0.3,0.1-0.6,0.1-0.9v-0.1c0-0.3,0-0.6-0.1-0.9c-0.1-0.3-0.2-0.5-0.3-0.7c-0.1-0.2-0.3-0.4-0.6-0.5
	c-0.2-0.1-0.5-0.2-0.8-0.2c-0.3,0-0.6,0.1-0.8,0.2c-0.2,0.1-0.4,0.3-0.6,0.5c-0.1,0.2-0.3,0.5-0.3,0.7
	C108.5,148.2,108.4,148.5,108.4,148.8z M115.6,146.7v5.3h-1.1v-6.3h1.1L115.6,146.7z M117.6,145.6l0,1c-0.1,0-0.2,0-0.3,0
	c-0.1,0-0.2,0-0.3,0c-0.2,0-0.5,0-0.7,0.1c-0.2,0.1-0.4,0.2-0.5,0.3c-0.1,0.1-0.2,0.3-0.3,0.5c-0.1,0.2-0.1,0.4-0.1,0.6l-0.3,0.2
	c0-0.4,0-0.7,0.1-1.1c0.1-0.3,0.2-0.6,0.4-0.9c0.2-0.3,0.4-0.5,0.6-0.6c0.2-0.1,0.5-0.2,0.9-0.2c0.1,0,0.2,0,0.3,0
	C117.4,145.6,117.5,145.6,117.6,145.6z M124.2,145.7v0.8h-3.4v-0.8H124.2z M121.9,144.1h1.1v6.3c0,0.2,0,0.4,0.1,0.5
	c0.1,0.1,0.2,0.2,0.3,0.2c0.1,0,0.2,0.1,0.3,0.1c0.1,0,0.2,0,0.3,0c0.1,0,0.2,0,0.2,0l0,0.9c-0.1,0-0.2,0.1-0.3,0.1
	c-0.1,0-0.3,0-0.5,0c-0.3,0-0.5-0.1-0.7-0.2c-0.2-0.1-0.4-0.3-0.5-0.5c-0.1-0.2-0.2-0.6-0.2-1V144.1z M126.5,143v9h-1.1v-9H126.5z
	 M126.3,148.6l-0.5,0c0-0.4,0.1-0.8,0.2-1.2c0.1-0.4,0.3-0.7,0.5-1c0.2-0.3,0.5-0.5,0.8-0.6c0.3-0.2,0.7-0.2,1-0.2
	c0.3,0,0.6,0,0.8,0.1c0.2,0.1,0.5,0.2,0.6,0.4c0.2,0.2,0.3,0.4,0.4,0.7c0.1,0.3,0.1,0.6,0.1,1.1v4.2h-1.1v-4.2c0-0.3,0-0.6-0.1-0.8
	c-0.1-0.2-0.2-0.3-0.4-0.4c-0.2-0.1-0.4-0.1-0.7-0.1c-0.3,0-0.5,0.1-0.7,0.2c-0.2,0.1-0.4,0.3-0.6,0.5c-0.2,0.2-0.3,0.4-0.4,0.7
	C126.3,148,126.3,148.3,126.3,148.6z M133.2,145.7v6.3h-1.1v-6.3H133.2z M132.1,144c0-0.2,0.1-0.3,0.2-0.4c0.1-0.1,0.3-0.2,0.5-0.2
	c0.2,0,0.4,0.1,0.5,0.2c0.1,0.1,0.2,0.3,0.2,0.4c0,0.2-0.1,0.3-0.2,0.4c-0.1,0.1-0.3,0.2-0.5,0.2c-0.2,0-0.4-0.1-0.5-0.2
	C132.1,144.3,132.1,144.1,132.1,144z M136.1,147v5H135v-6.3h1L136.1,147z M135.8,148.6l-0.5,0c0-0.4,0.1-0.8,0.2-1.2
	c0.1-0.4,0.3-0.7,0.5-1c0.2-0.3,0.5-0.5,0.8-0.6c0.3-0.2,0.7-0.2,1-0.2c0.3,0,0.6,0,0.8,0.1c0.2,0.1,0.5,0.2,0.6,0.4
	c0.2,0.2,0.3,0.4,0.4,0.7c0.1,0.3,0.1,0.6,0.1,1.1v4.2h-1.1v-4.2c0-0.3,0-0.6-0.1-0.8c-0.1-0.2-0.2-0.3-0.4-0.4
	c-0.2-0.1-0.4-0.1-0.7-0.1c-0.3,0-0.5,0.1-0.7,0.2c-0.2,0.1-0.4,0.3-0.6,0.5c-0.2,0.2-0.3,0.4-0.4,0.7
	C135.9,148,135.8,148.3,135.8,148.6z M142.7,143v9h-1.1v-9H142.7z M146.6,145.7l-2.8,3l-1.5,1.6l-0.1-1.2l1.1-1.3l2-2.1H146.6z
	 M145.6,152l-2.3-3l0.6-1l3,4H145.6z M148.9,145.7v6.3h-1.1v-6.3H148.9z M147.7,144c0-0.2,0.1-0.3,0.2-0.4c0.1-0.1,0.3-0.2,0.5-0.2
	c0.2,0,0.4,0.1,0.5,0.2c0.1,0.1,0.2,0.3,0.2,0.4c0,0.2-0.1,0.3-0.2,0.4c-0.1,0.1-0.3,0.2-0.5,0.2c-0.2,0-0.4-0.1-0.5-0.2
	C147.8,144.3,147.7,144.1,147.7,144z M151.7,147v5h-1.1v-6.3h1L151.7,147z M151.4,148.6l-0.5,0c0-0.4,0.1-0.8,0.2-1.2
	c0.1-0.4,0.3-0.7,0.5-1c0.2-0.3,0.5-0.5,0.8-0.6c0.3-0.2,0.7-0.2,1-0.2c0.3,0,0.6,0,0.8,0.1c0.2,0.1,0.5,0.2,0.6,0.4
	c0.2,0.2,0.3,0.4,0.4,0.7c0.1,0.3,0.1,0.6,0.1,1.1v4.2h-1.1v-4.2c0-0.3,0-0.6-0.1-0.8c-0.1-0.2-0.2-0.3-0.4-0.4
	c-0.2-0.1-0.4-0.1-0.7-0.1c-0.3,0-0.5,0.1-0.7,0.2c-0.2,0.1-0.4,0.3-0.6,0.5c-0.2,0.2-0.3,0.4-0.4,0.7
	C151.5,148,151.4,148.3,151.4,148.6z M161.4,145.7h1v6.2c0,0.6-0.1,1-0.3,1.4c-0.2,0.4-0.5,0.7-0.9,0.9c-0.4,0.2-0.9,0.3-1.4,0.3
	c-0.2,0-0.5,0-0.8-0.1c-0.3-0.1-0.6-0.2-0.9-0.3c-0.3-0.2-0.5-0.4-0.7-0.7l0.6-0.6c0.3,0.3,0.5,0.5,0.8,0.7c0.3,0.1,0.6,0.2,0.9,0.2
	c0.3,0,0.6-0.1,0.9-0.2s0.4-0.3,0.6-0.6c0.1-0.2,0.2-0.6,0.2-0.9v-4.9L161.4,145.7z M157,148.9v-0.1c0-0.5,0.1-0.9,0.2-1.3
	c0.1-0.4,0.3-0.7,0.5-1c0.2-0.3,0.5-0.5,0.8-0.7c0.3-0.2,0.7-0.2,1-0.2c0.4,0,0.7,0.1,1,0.2c0.3,0.1,0.6,0.3,0.8,0.6
	c0.2,0.3,0.4,0.6,0.5,1c0.1,0.4,0.2,0.8,0.3,1.3v0.5c0,0.5-0.1,0.9-0.3,1.3c-0.1,0.4-0.3,0.7-0.5,1c-0.2,0.3-0.5,0.5-0.8,0.6
	c-0.3,0.1-0.7,0.2-1.1,0.2c-0.4,0-0.7-0.1-1-0.2c-0.3-0.2-0.6-0.4-0.8-0.7s-0.4-0.6-0.5-1C157,149.8,157,149.4,157,148.9z
	 M158.1,148.8v0.1c0,0.3,0,0.6,0.1,0.9c0.1,0.3,0.2,0.5,0.3,0.7c0.1,0.2,0.3,0.4,0.5,0.5c0.2,0.1,0.5,0.2,0.8,0.2
	c0.4,0,0.7-0.1,0.9-0.2c0.2-0.2,0.4-0.4,0.6-0.6c0.1-0.2,0.2-0.5,0.3-0.8v-1.4c0-0.2-0.1-0.4-0.2-0.6c-0.1-0.2-0.2-0.4-0.3-0.5
	c-0.1-0.2-0.3-0.3-0.5-0.4c-0.2-0.1-0.4-0.1-0.7-0.1c-0.3,0-0.6,0.1-0.8,0.2c-0.2,0.1-0.4,0.3-0.5,0.5c-0.1,0.2-0.2,0.5-0.3,0.7
	C158.1,148.2,158.1,148.5,158.1,148.8z M169.5,151.2c0.3,0,0.5-0.1,0.7-0.2c0.2-0.1,0.4-0.2,0.5-0.4c0.1-0.2,0.2-0.4,0.2-0.6h1
	c0,0.4-0.1,0.7-0.4,1c-0.2,0.3-0.5,0.6-0.9,0.8c-0.4,0.2-0.8,0.3-1.2,0.3c-0.5,0-0.9-0.1-1.2-0.3c-0.4-0.2-0.6-0.4-0.9-0.7
	c-0.2-0.3-0.4-0.6-0.5-1c-0.1-0.4-0.2-0.8-0.2-1.2v-0.2c0-0.4,0.1-0.8,0.2-1.2c0.1-0.4,0.3-0.7,0.5-1c0.2-0.3,0.5-0.5,0.9-0.7
	c0.4-0.2,0.8-0.3,1.2-0.3c0.5,0,0.9,0.1,1.3,0.3c0.4,0.2,0.7,0.5,0.9,0.8c0.2,0.3,0.3,0.7,0.4,1.2h-1c0-0.3-0.1-0.5-0.2-0.7
	c-0.1-0.2-0.3-0.4-0.5-0.5c-0.2-0.1-0.5-0.2-0.8-0.2c-0.3,0-0.6,0.1-0.8,0.2c-0.2,0.1-0.4,0.3-0.5,0.5c-0.1,0.2-0.2,0.5-0.3,0.7
	c-0.1,0.3-0.1,0.5-0.1,0.8v0.2c0,0.3,0,0.6,0.1,0.8c0.1,0.3,0.1,0.5,0.3,0.7c0.1,0.2,0.3,0.4,0.5,0.5
	C168.9,151.2,169.2,151.2,169.5,151.2z M174.4,143v9h-1.1v-9H174.4z M178.8,152.1c-0.4,0-0.8-0.1-1.2-0.2c-0.4-0.2-0.7-0.4-0.9-0.6
	c-0.3-0.3-0.4-0.6-0.6-1c-0.1-0.4-0.2-0.8-0.2-1.2v-0.2c0-0.5,0.1-1,0.2-1.4c0.2-0.4,0.4-0.8,0.6-1c0.3-0.3,0.6-0.5,0.9-0.6
	c0.3-0.1,0.7-0.2,1-0.2c0.5,0,0.8,0.1,1.2,0.2c0.3,0.2,0.6,0.4,0.8,0.7c0.2,0.3,0.4,0.6,0.5,1c0.1,0.4,0.2,0.8,0.2,1.2v0.5h-4.7
	v-0.9h3.7v-0.1c0-0.3-0.1-0.6-0.2-0.8c-0.1-0.3-0.3-0.5-0.5-0.7c-0.2-0.2-0.5-0.3-0.9-0.3c-0.2,0-0.5,0.1-0.7,0.2
	c-0.2,0.1-0.4,0.3-0.5,0.5c-0.1,0.2-0.3,0.5-0.3,0.7s-0.1,0.6-0.1,1v0.2c0,0.3,0,0.6,0.1,0.8c0.1,0.3,0.2,0.5,0.4,0.7
	c0.2,0.2,0.4,0.4,0.6,0.5c0.2,0.1,0.5,0.2,0.8,0.2c0.4,0,0.7-0.1,1-0.2c0.3-0.2,0.5-0.4,0.7-0.6l0.7,0.5c-0.1,0.2-0.3,0.4-0.5,0.6
	c-0.2,0.2-0.5,0.3-0.8,0.5C179.6,152.1,179.2,152.1,178.8,152.1z M186.3,150.9v-3.3c0-0.2-0.1-0.5-0.2-0.6c-0.1-0.2-0.2-0.3-0.4-0.4
	c-0.2-0.1-0.4-0.2-0.7-0.2c-0.3,0-0.5,0-0.7,0.1c-0.2,0.1-0.4,0.2-0.5,0.4c-0.1,0.2-0.2,0.3-0.2,0.5h-1.1c0-0.2,0.1-0.5,0.2-0.7
	c0.1-0.2,0.3-0.4,0.5-0.6c0.2-0.2,0.5-0.3,0.8-0.4c0.3-0.1,0.7-0.2,1-0.2c0.5,0,0.9,0.1,1.2,0.2c0.4,0.2,0.6,0.4,0.8,0.7
	c0.2,0.3,0.3,0.7,0.3,1.2v3c0,0.2,0,0.4,0.1,0.7c0,0.2,0.1,0.4,0.2,0.6v0.1h-1.1c-0.1-0.1-0.1-0.3-0.1-0.5
	C186.3,151.3,186.3,151.1,186.3,150.9z M186.5,148.2l0,0.8h-1.1c-0.3,0-0.6,0-0.8,0.1c-0.2,0-0.4,0.1-0.6,0.2
	c-0.2,0.1-0.3,0.2-0.4,0.4c-0.1,0.1-0.1,0.3-0.1,0.5c0,0.2,0,0.4,0.1,0.5c0.1,0.2,0.2,0.3,0.4,0.4c0.2,0.1,0.4,0.1,0.7,0.1
	c0.3,0,0.6-0.1,0.9-0.2c0.3-0.1,0.5-0.3,0.6-0.5c0.2-0.2,0.2-0.4,0.2-0.6l0.5,0.5c0,0.2-0.1,0.3-0.2,0.5c-0.1,0.2-0.3,0.4-0.5,0.6
	c-0.2,0.2-0.4,0.3-0.7,0.5c-0.3,0.1-0.6,0.2-0.9,0.2c-0.4,0-0.8-0.1-1.1-0.3c-0.3-0.2-0.6-0.4-0.8-0.7c-0.2-0.3-0.3-0.6-0.3-1
	c0-0.3,0.1-0.6,0.2-0.9c0.1-0.3,0.3-0.5,0.6-0.7c0.2-0.2,0.6-0.3,0.9-0.4c0.4-0.1,0.7-0.1,1.2-0.1H186.5z M190.1,146.7v5.3h-1.1
	v-6.3h1.1L190.1,146.7z M192.1,145.6l0,1c-0.1,0-0.2,0-0.3,0c-0.1,0-0.2,0-0.3,0c-0.2,0-0.5,0-0.7,0.1c-0.2,0.1-0.4,0.2-0.5,0.3
	c-0.1,0.1-0.2,0.3-0.3,0.5c-0.1,0.2-0.1,0.4-0.1,0.6l-0.3,0.2c0-0.4,0-0.7,0.1-1.1c0.1-0.3,0.2-0.6,0.4-0.9c0.2-0.3,0.4-0.5,0.6-0.6
	c0.2-0.1,0.5-0.2,0.9-0.2c0.1,0,0.2,0,0.3,0C192,145.6,192.1,145.6,192.1,145.6z M194.3,143v9h-1.1v-9H194.3z M197.8,151.3l1.8-5.7
	h1.2l-2.5,7.3c-0.1,0.2-0.1,0.3-0.2,0.5c-0.1,0.2-0.2,0.4-0.4,0.5c-0.1,0.2-0.3,0.3-0.5,0.4c-0.2,0.1-0.5,0.2-0.7,0.2
	c-0.1,0-0.2,0-0.3,0c-0.1,0-0.2,0-0.3-0.1l0-0.9c0,0,0.1,0,0.1,0c0.1,0,0.1,0,0.1,0c0.2,0,0.5,0,0.6-0.1c0.2-0.1,0.3-0.2,0.4-0.3
	c0.1-0.1,0.2-0.4,0.3-0.6L197.8,151.3z M196.5,145.7l1.6,4.9l0.3,1.1l-0.8,0.4l-2.3-6.5H196.5z M204.1,149.6H203
	c0-0.4,0-0.7,0.1-0.9c0.1-0.2,0.2-0.5,0.3-0.7c0.1-0.2,0.3-0.4,0.6-0.7c0.2-0.2,0.3-0.4,0.5-0.5c0.2-0.2,0.3-0.3,0.4-0.5
	c0.1-0.2,0.1-0.4,0.1-0.7c0-0.3,0-0.5-0.1-0.7c-0.1-0.2-0.2-0.3-0.4-0.5c-0.2-0.1-0.4-0.2-0.7-0.2c-0.2,0-0.4,0-0.6,0.1
	c-0.2,0.1-0.4,0.2-0.5,0.4c-0.1,0.2-0.2,0.4-0.2,0.7h-1.1c0-0.4,0.1-0.8,0.3-1.1c0.2-0.3,0.5-0.6,0.9-0.7c0.4-0.2,0.8-0.3,1.2-0.3
	c0.5,0,0.9,0.1,1.3,0.3c0.4,0.2,0.6,0.4,0.8,0.8c0.2,0.3,0.3,0.7,0.3,1.2c0,0.4-0.1,0.7-0.2,1c-0.1,0.3-0.3,0.6-0.5,0.8
	c-0.2,0.3-0.5,0.5-0.7,0.7c-0.2,0.2-0.4,0.4-0.4,0.7C204.1,149,204.1,149.3,204.1,149.6z M202.9,151.5c0-0.2,0.1-0.3,0.2-0.4
	c0.1-0.1,0.3-0.2,0.5-0.2c0.2,0,0.4,0.1,0.5,0.2c0.1,0.1,0.2,0.3,0.2,0.4c0,0.2-0.1,0.3-0.2,0.4c-0.1,0.1-0.3,0.2-0.5,0.2
	c-0.2,0-0.4-0.1-0.5-0.2C203,151.8,202.9,151.6,202.9,151.5z"/>
<path class="st8" d="M62,249h52c5.5,0,10,4.5,10,10v34c0,5.5-4.5,10-10,10H62c-5.5,0-10-4.5-10-10v-34C52,253.5,56.5,249,62,249z"/>
<path class="st5" d="M75.3,270l-2.4,6.5h-1l2.7-7.1h0.6L75.3,270z M77.3,276.5L75,270l0-0.6h0.6l2.7,7.1H77.3z M77.2,273.9v0.8h-4
	v-0.8H77.2z M80.1,269v7.5h-0.9V269H80.1z M82.9,275.6l1.4-4.3h0.6l-0.1,0.9l-1.4,4.4h-0.6L82.9,275.6z M81.9,271.2l1.2,4.4l0.1,0.9
	h-0.6l-1.5-5.3H81.9z M86.1,275.6l1.1-4.4h0.9l-1.5,5.3H86L86.1,275.6z M84.9,271.2l1.3,4.3l0.2,1h-0.6l-1.4-4.4l-0.1-0.9H84.9z
	 M92.2,275.6v-2.7c0-0.2,0-0.4-0.1-0.5c-0.1-0.2-0.2-0.3-0.4-0.4c-0.2-0.1-0.4-0.1-0.6-0.1c-0.2,0-0.4,0-0.6,0.1
	c-0.2,0.1-0.3,0.2-0.4,0.3c-0.1,0.1-0.1,0.3-0.1,0.4H89c0-0.2,0-0.4,0.1-0.6c0.1-0.2,0.2-0.4,0.4-0.5c0.2-0.2,0.4-0.3,0.7-0.4
	c0.3-0.1,0.6-0.1,0.9-0.1c0.4,0,0.7,0.1,1,0.2c0.3,0.1,0.5,0.3,0.7,0.6c0.2,0.3,0.3,0.6,0.3,1v2.5c0,0.2,0,0.4,0,0.6
	c0,0.2,0.1,0.4,0.1,0.5v0.1h-0.9c0-0.1-0.1-0.2-0.1-0.4C92.2,275.9,92.2,275.7,92.2,275.6z M92.3,273.3l0,0.6h-0.9
	c-0.3,0-0.5,0-0.7,0.1c-0.2,0-0.4,0.1-0.5,0.2c-0.1,0.1-0.2,0.2-0.3,0.3c-0.1,0.1-0.1,0.3-0.1,0.4c0,0.2,0,0.3,0.1,0.5
	c0.1,0.1,0.2,0.2,0.3,0.3c0.2,0.1,0.3,0.1,0.6,0.1c0.3,0,0.5-0.1,0.7-0.2c0.2-0.1,0.4-0.3,0.5-0.4c0.1-0.2,0.2-0.3,0.2-0.5l0.4,0.4
	c0,0.1-0.1,0.3-0.2,0.5c-0.1,0.2-0.2,0.3-0.4,0.5c-0.2,0.1-0.4,0.3-0.6,0.4c-0.2,0.1-0.5,0.1-0.8,0.1c-0.4,0-0.7-0.1-0.9-0.2
	c-0.3-0.1-0.5-0.3-0.6-0.6c-0.1-0.2-0.2-0.5-0.2-0.8c0-0.3,0.1-0.5,0.2-0.7c0.1-0.2,0.3-0.4,0.5-0.5c0.2-0.1,0.5-0.3,0.8-0.3
	c0.3-0.1,0.6-0.1,1-0.1H92.3z M95.9,276l1.5-4.7h1l-2.1,6.1c0,0.1-0.1,0.3-0.2,0.4c-0.1,0.2-0.2,0.3-0.3,0.4
	c-0.1,0.1-0.3,0.2-0.4,0.3c-0.2,0.1-0.4,0.1-0.6,0.1c-0.1,0-0.2,0-0.3,0c-0.1,0-0.2,0-0.2,0l0-0.7c0,0,0.1,0,0.1,0
	c0.1,0,0.1,0,0.1,0c0.2,0,0.4,0,0.5-0.1c0.1-0.1,0.3-0.1,0.4-0.3c0.1-0.1,0.2-0.3,0.3-0.5L95.9,276z M94.8,271.2l1.4,4.1l0.2,1
	l-0.6,0.3l-1.9-5.4H94.8z M102.2,275.1c0-0.1,0-0.3-0.1-0.4c-0.1-0.1-0.2-0.2-0.3-0.3c-0.2-0.1-0.4-0.2-0.8-0.2
	c-0.3-0.1-0.6-0.1-0.8-0.2c-0.2-0.1-0.4-0.2-0.6-0.3c-0.2-0.1-0.3-0.3-0.4-0.4c-0.1-0.2-0.1-0.4-0.1-0.6c0-0.2,0-0.4,0.1-0.6
	c0.1-0.2,0.2-0.4,0.4-0.5c0.2-0.1,0.4-0.3,0.6-0.3c0.2-0.1,0.5-0.1,0.8-0.1c0.4,0,0.8,0.1,1.1,0.2c0.3,0.1,0.5,0.4,0.7,0.6
	c0.2,0.2,0.2,0.5,0.2,0.8h-0.9c0-0.1,0-0.3-0.1-0.4c-0.1-0.1-0.2-0.3-0.4-0.3c-0.2-0.1-0.4-0.1-0.6-0.1c-0.3,0-0.5,0-0.6,0.1
	c-0.2,0.1-0.3,0.2-0.3,0.3c-0.1,0.1-0.1,0.2-0.1,0.4c0,0.1,0,0.2,0,0.3c0,0.1,0.1,0.1,0.2,0.2c0.1,0.1,0.2,0.1,0.4,0.2
	c0.2,0.1,0.4,0.1,0.6,0.2c0.4,0.1,0.8,0.2,1.1,0.4c0.3,0.1,0.5,0.3,0.6,0.5c0.1,0.2,0.2,0.4,0.2,0.7c0,0.2,0,0.4-0.1,0.6
	c-0.1,0.2-0.2,0.4-0.4,0.5c-0.2,0.1-0.4,0.2-0.6,0.3c-0.2,0.1-0.5,0.1-0.8,0.1c-0.5,0-0.9-0.1-1.2-0.2c-0.3-0.2-0.6-0.4-0.7-0.6
	c-0.2-0.3-0.2-0.5-0.2-0.8h0.9c0,0.2,0.1,0.4,0.2,0.6c0.1,0.1,0.3,0.2,0.5,0.3c0.2,0.1,0.4,0.1,0.6,0.1c0.2,0,0.5,0,0.6-0.1
	c0.2-0.1,0.3-0.2,0.4-0.3C102.2,275.4,102.2,275.2,102.2,275.1z"/>
<path class="st8" d="M62,318h52c5.5,0,10,4.5,10,10v34c0,5.5-4.5,10-10,10H62c-5.5,0-10-4.5-10-10v-34C52,322.5,56.5,318,62,318z"/>
<path class="st5" d="M66.7,341.7v0.4c0,0.5-0.1,1-0.2,1.4c-0.1,0.4-0.3,0.8-0.6,1.1c-0.3,0.3-0.6,0.5-0.9,0.7
	c-0.3,0.2-0.7,0.2-1.2,0.2c-0.4,0-0.8-0.1-1.2-0.2c-0.3-0.2-0.7-0.4-0.9-0.7c-0.3-0.3-0.5-0.7-0.6-1.1c-0.1-0.4-0.2-0.9-0.2-1.4
	v-0.4c0-0.5,0.1-1,0.2-1.4c0.1-0.4,0.3-0.8,0.6-1.1c0.3-0.3,0.6-0.5,0.9-0.7c0.4-0.2,0.7-0.2,1.2-0.2c0.4,0,0.8,0.1,1.2,0.2
	c0.4,0.2,0.7,0.4,0.9,0.7c0.3,0.3,0.4,0.7,0.6,1.1C66.6,340.7,66.7,341.2,66.7,341.7z M65.7,342.2v-0.5c0-0.4,0-0.8-0.1-1.1
	c-0.1-0.3-0.2-0.6-0.4-0.8c-0.2-0.2-0.4-0.4-0.6-0.5c-0.2-0.1-0.5-0.2-0.8-0.2c-0.3,0-0.6,0.1-0.8,0.2c-0.2,0.1-0.4,0.3-0.6,0.5
	c-0.2,0.2-0.3,0.5-0.4,0.8c-0.1,0.3-0.1,0.7-0.1,1.1v0.5c0,0.4,0,0.8,0.1,1.1c0.1,0.3,0.2,0.6,0.4,0.8c0.2,0.2,0.4,0.4,0.6,0.5
	c0.2,0.1,0.5,0.2,0.8,0.2c0.3,0,0.6-0.1,0.8-0.2c0.2-0.1,0.4-0.3,0.6-0.5c0.2-0.2,0.3-0.5,0.4-0.8C65.7,343,65.7,342.6,65.7,342.2z
	 M70.1,344.9c0.2,0,0.4,0,0.6-0.1c0.2-0.1,0.3-0.2,0.4-0.4c0.1-0.2,0.2-0.3,0.2-0.5h0.9c0,0.3-0.1,0.6-0.3,0.9
	c-0.2,0.3-0.4,0.5-0.8,0.6c-0.3,0.2-0.7,0.2-1,0.2c-0.4,0-0.7-0.1-1-0.2c-0.3-0.1-0.5-0.3-0.7-0.6c-0.2-0.2-0.3-0.5-0.4-0.8
	c-0.1-0.3-0.1-0.7-0.1-1v-0.2c0-0.4,0-0.7,0.1-1c0.1-0.3,0.2-0.6,0.4-0.8c0.2-0.2,0.4-0.4,0.7-0.6c0.3-0.1,0.6-0.2,1-0.2
	c0.4,0,0.8,0.1,1.1,0.3c0.3,0.2,0.6,0.4,0.7,0.7c0.2,0.3,0.3,0.6,0.3,1h-0.9c0-0.2-0.1-0.4-0.2-0.6c-0.1-0.2-0.2-0.3-0.4-0.4
	c-0.2-0.1-0.4-0.2-0.6-0.2c-0.3,0-0.5,0.1-0.7,0.2c-0.2,0.1-0.3,0.3-0.4,0.4c-0.1,0.2-0.2,0.4-0.2,0.6c0,0.2-0.1,0.4-0.1,0.7v0.2
	c0,0.2,0,0.5,0.1,0.7c0,0.2,0.1,0.4,0.2,0.6c0.1,0.2,0.3,0.3,0.4,0.4C69.5,344.8,69.8,344.9,70.1,344.9z M75.3,344.9
	c0.2,0,0.4,0,0.6-0.1c0.2-0.1,0.3-0.2,0.4-0.4c0.1-0.2,0.2-0.3,0.2-0.5h0.9c0,0.3-0.1,0.6-0.3,0.9c-0.2,0.3-0.4,0.5-0.8,0.6
	c-0.3,0.2-0.7,0.2-1,0.2c-0.4,0-0.7-0.1-1-0.2c-0.3-0.1-0.5-0.3-0.7-0.6c-0.2-0.2-0.3-0.5-0.4-0.8c-0.1-0.3-0.1-0.7-0.1-1v-0.2
	c0-0.4,0-0.7,0.1-1c0.1-0.3,0.2-0.6,0.4-0.8c0.2-0.2,0.4-0.4,0.7-0.6c0.3-0.1,0.6-0.2,1-0.2c0.4,0,0.8,0.1,1.1,0.3
	c0.3,0.2,0.6,0.4,0.7,0.7c0.2,0.3,0.3,0.6,0.3,1h-0.9c0-0.2-0.1-0.4-0.2-0.6c-0.1-0.2-0.2-0.3-0.4-0.4c-0.2-0.1-0.4-0.2-0.6-0.2
	c-0.3,0-0.5,0.1-0.7,0.2c-0.2,0.1-0.3,0.3-0.4,0.4c-0.1,0.2-0.2,0.4-0.2,0.6c0,0.2-0.1,0.4-0.1,0.7v0.2c0,0.2,0,0.5,0.1,0.7
	c0,0.2,0.1,0.4,0.2,0.6c0.1,0.2,0.3,0.3,0.4,0.4C74.8,344.8,75,344.9,75.3,344.9z M81.5,344.6v-2.7c0-0.2,0-0.4-0.1-0.5
	c-0.1-0.2-0.2-0.3-0.4-0.4c-0.2-0.1-0.4-0.1-0.6-0.1c-0.2,0-0.4,0-0.6,0.1c-0.2,0.1-0.3,0.2-0.4,0.3c-0.1,0.1-0.1,0.3-0.1,0.4h-0.9
	c0-0.2,0-0.4,0.1-0.6c0.1-0.2,0.2-0.4,0.4-0.5c0.2-0.2,0.4-0.3,0.7-0.4c0.3-0.1,0.6-0.1,0.9-0.1c0.4,0,0.7,0.1,1,0.2
	c0.3,0.1,0.5,0.3,0.7,0.6c0.2,0.3,0.3,0.6,0.3,1v2.5c0,0.2,0,0.4,0,0.6c0,0.2,0.1,0.4,0.1,0.5v0.1h-0.9c0-0.1-0.1-0.2-0.1-0.4
	C81.5,344.9,81.5,344.7,81.5,344.6z M81.7,342.3l0,0.6h-0.9c-0.3,0-0.5,0-0.7,0.1c-0.2,0-0.4,0.1-0.5,0.2c-0.1,0.1-0.2,0.2-0.3,0.3
	c-0.1,0.1-0.1,0.3-0.1,0.4c0,0.2,0,0.3,0.1,0.5c0.1,0.1,0.2,0.2,0.3,0.3c0.2,0.1,0.3,0.1,0.6,0.1c0.3,0,0.5-0.1,0.7-0.2
	c0.2-0.1,0.4-0.3,0.5-0.4c0.1-0.2,0.2-0.3,0.2-0.5l0.4,0.4c0,0.1-0.1,0.3-0.2,0.5c-0.1,0.2-0.2,0.3-0.4,0.5
	c-0.2,0.1-0.4,0.3-0.6,0.4c-0.2,0.1-0.5,0.1-0.8,0.1c-0.4,0-0.7-0.1-0.9-0.2c-0.3-0.1-0.5-0.3-0.6-0.6c-0.1-0.2-0.2-0.5-0.2-0.8
	c0-0.3,0.1-0.5,0.2-0.7c0.1-0.2,0.3-0.4,0.5-0.5c0.2-0.1,0.5-0.3,0.8-0.3c0.3-0.1,0.6-0.1,1-0.1H81.7z M86.1,340.2v0.7h-2.9v-0.7
	H86.1z M84.2,338.9h0.9v5.3c0,0.2,0,0.3,0.1,0.4c0.1,0.1,0.1,0.2,0.2,0.2c0.1,0,0.2,0,0.3,0c0.1,0,0.2,0,0.2,0c0.1,0,0.1,0,0.2,0
	l0,0.7c-0.1,0-0.2,0-0.3,0.1c-0.1,0-0.3,0-0.4,0c-0.2,0-0.4,0-0.6-0.1c-0.2-0.1-0.3-0.2-0.4-0.4c-0.1-0.2-0.2-0.5-0.2-0.8V338.9z
	 M88.1,340.2v5.3h-0.9v-5.3H88.1z M87.1,338.8c0-0.1,0-0.3,0.1-0.4c0.1-0.1,0.2-0.2,0.4-0.2c0.2,0,0.3,0,0.4,0.2
	c0.1,0.1,0.1,0.2,0.1,0.4c0,0.1,0,0.3-0.1,0.4c-0.1,0.1-0.2,0.1-0.4,0.1c-0.2,0-0.3,0-0.4-0.1C87.2,339.1,87.1,339,87.1,338.8z
	 M89.3,342.9v-0.1c0-0.4,0.1-0.7,0.2-1.1c0.1-0.3,0.3-0.6,0.5-0.9c0.2-0.2,0.5-0.4,0.8-0.6c0.3-0.1,0.6-0.2,1-0.2
	c0.4,0,0.7,0.1,1,0.2c0.3,0.1,0.6,0.3,0.8,0.6c0.2,0.2,0.4,0.5,0.5,0.9c0.1,0.3,0.2,0.7,0.2,1.1v0.1c0,0.4-0.1,0.7-0.2,1.1
	c-0.1,0.3-0.3,0.6-0.5,0.9c-0.2,0.2-0.5,0.4-0.8,0.6c-0.3,0.1-0.6,0.2-1,0.2c-0.4,0-0.7-0.1-1-0.2c-0.3-0.1-0.6-0.3-0.8-0.6
	c-0.2-0.2-0.4-0.5-0.5-0.9C89.4,343.7,89.3,343.3,89.3,342.9z M90.2,342.8v0.1c0,0.3,0,0.5,0.1,0.7c0.1,0.2,0.2,0.4,0.3,0.6
	c0.1,0.2,0.3,0.3,0.5,0.4c0.2,0.1,0.4,0.2,0.7,0.2c0.2,0,0.5-0.1,0.6-0.2c0.2-0.1,0.3-0.2,0.5-0.4c0.1-0.2,0.2-0.4,0.3-0.6
	c0.1-0.2,0.1-0.5,0.1-0.7v-0.1c0-0.3,0-0.5-0.1-0.7c-0.1-0.2-0.2-0.4-0.3-0.6c-0.1-0.2-0.3-0.3-0.5-0.4c-0.2-0.1-0.4-0.2-0.7-0.2
	c-0.2,0-0.5,0.1-0.7,0.2c-0.2,0.1-0.3,0.2-0.5,0.4c-0.1,0.2-0.2,0.4-0.3,0.6C90.2,342.3,90.2,342.5,90.2,342.8z M96.2,341.3v4.2
	h-0.9v-5.3h0.9L96.2,341.3z M95.9,342.7l-0.4,0c0-0.4,0.1-0.7,0.2-1c0.1-0.3,0.3-0.6,0.4-0.8s0.4-0.4,0.7-0.5
	c0.3-0.1,0.6-0.2,0.9-0.2c0.3,0,0.5,0,0.7,0.1c0.2,0.1,0.4,0.2,0.5,0.3c0.1,0.2,0.3,0.4,0.3,0.6c0.1,0.2,0.1,0.5,0.1,0.9v3.5h-0.9
	V342c0-0.3,0-0.5-0.1-0.7c-0.1-0.2-0.2-0.3-0.4-0.4c-0.2-0.1-0.3-0.1-0.6-0.1c-0.2,0-0.4,0-0.6,0.1c-0.2,0.1-0.3,0.2-0.5,0.4
	c-0.1,0.2-0.2,0.4-0.3,0.6C96,342.2,95.9,342.4,95.9,342.7z M103.9,344.6v-2.7c0-0.2,0-0.4-0.1-0.5c-0.1-0.2-0.2-0.3-0.4-0.4
	c-0.2-0.1-0.4-0.1-0.6-0.1c-0.2,0-0.4,0-0.6,0.1c-0.2,0.1-0.3,0.2-0.4,0.3c-0.1,0.1-0.1,0.3-0.1,0.4h-0.9c0-0.2,0-0.4,0.1-0.6
	c0.1-0.2,0.2-0.4,0.4-0.5c0.2-0.2,0.4-0.3,0.7-0.4c0.3-0.1,0.5-0.1,0.9-0.1c0.4,0,0.7,0.1,1,0.2c0.3,0.1,0.5,0.3,0.7,0.6
	c0.2,0.3,0.3,0.6,0.3,1v2.5c0,0.2,0,0.4,0,0.6c0,0.2,0.1,0.4,0.1,0.5v0.1H104c0-0.1-0.1-0.2-0.1-0.4
	C103.9,344.9,103.9,344.7,103.9,344.6z M104.1,342.3l0,0.6h-0.9c-0.3,0-0.5,0-0.7,0.1c-0.2,0-0.4,0.1-0.5,0.2
	c-0.1,0.1-0.2,0.2-0.3,0.3c-0.1,0.1-0.1,0.3-0.1,0.4c0,0.2,0,0.3,0.1,0.5c0.1,0.1,0.2,0.2,0.3,0.3c0.2,0.1,0.3,0.1,0.6,0.1
	c0.3,0,0.5-0.1,0.7-0.2c0.2-0.1,0.4-0.3,0.5-0.4c0.1-0.2,0.2-0.3,0.2-0.5l0.4,0.4c0,0.1-0.1,0.3-0.2,0.5c-0.1,0.2-0.2,0.3-0.4,0.5
	c-0.2,0.1-0.4,0.3-0.6,0.4c-0.2,0.1-0.5,0.1-0.8,0.1c-0.4,0-0.7-0.1-0.9-0.2c-0.3-0.1-0.5-0.3-0.6-0.6c-0.1-0.2-0.2-0.5-0.2-0.8
	c0-0.3,0.1-0.5,0.2-0.7c0.1-0.2,0.3-0.4,0.5-0.5c0.2-0.1,0.5-0.3,0.8-0.3c0.3-0.1,0.6-0.1,1-0.1H104.1z M107.2,338v7.5h-0.9V338
	H107.2z M109.6,338v7.5h-0.9V338H109.6z M112.6,345l1.5-4.7h1l-2.1,6.1c0,0.1-0.1,0.3-0.2,0.4c-0.1,0.2-0.2,0.3-0.3,0.4
	c-0.1,0.1-0.3,0.2-0.4,0.3c-0.2,0.1-0.4,0.1-0.6,0.1c-0.1,0-0.2,0-0.3,0c-0.1,0-0.2,0-0.2,0l0-0.7c0,0,0.1,0,0.1,0
	c0.1,0,0.1,0,0.1,0c0.2,0,0.4,0,0.5-0.1c0.1-0.1,0.3-0.1,0.4-0.3c0.1-0.1,0.2-0.3,0.3-0.5L112.6,345z M111.5,340.2l1.4,4.1l0.2,1
	l-0.7,0.3l-1.9-5.4H111.5z"/>
<path class="st8" d="M148,249h52c5.5,0,10,4.5,10,10v34c0,5.5-4.5,10-10,10h-52c-5.5,0-10-4.5-10-10v-34
	C138,253.5,142.5,249,148,249z"/>
<path class="st5" d="M167.8,272.7v0.4c0,0.5-0.1,1-0.2,1.4c-0.1,0.4-0.3,0.8-0.6,1.1c-0.3,0.3-0.6,0.5-0.9,0.7
	c-0.3,0.2-0.7,0.2-1.2,0.2c-0.4,0-0.8-0.1-1.2-0.2c-0.3-0.2-0.7-0.4-0.9-0.7c-0.3-0.3-0.4-0.7-0.6-1.1c-0.1-0.4-0.2-0.9-0.2-1.4
	v-0.4c0-0.5,0.1-1,0.2-1.4c0.1-0.4,0.3-0.8,0.6-1.1c0.3-0.3,0.6-0.5,0.9-0.7c0.4-0.2,0.7-0.2,1.2-0.2c0.4,0,0.8,0.1,1.2,0.2
	c0.4,0.2,0.7,0.4,0.9,0.7c0.3,0.3,0.4,0.7,0.6,1.1C167.7,271.7,167.8,272.2,167.8,272.7z M166.9,273.2v-0.5c0-0.4,0-0.8-0.1-1.1
	c-0.1-0.3-0.2-0.6-0.4-0.8c-0.2-0.2-0.4-0.4-0.6-0.5c-0.2-0.1-0.5-0.2-0.8-0.2c-0.3,0-0.6,0.1-0.8,0.2c-0.2,0.1-0.4,0.3-0.6,0.5
	c-0.2,0.2-0.3,0.5-0.4,0.8c-0.1,0.3-0.1,0.7-0.1,1.1v0.5c0,0.4,0,0.8,0.1,1.1c0.1,0.3,0.2,0.6,0.4,0.8c0.2,0.2,0.4,0.4,0.6,0.5
	c0.2,0.1,0.5,0.2,0.8,0.2c0.3,0,0.6-0.1,0.8-0.2c0.2-0.1,0.4-0.3,0.6-0.5c0.2-0.2,0.3-0.5,0.4-0.8
	C166.8,274,166.9,273.6,166.9,273.2z M170.4,276.5h-0.9v-5.8c0-0.4,0.1-0.7,0.2-1c0.1-0.3,0.3-0.5,0.6-0.6c0.3-0.1,0.6-0.2,0.9-0.2
	c0.1,0,0.2,0,0.3,0c0.1,0,0.2,0,0.3,0.1l0,0.7c-0.1,0-0.1,0-0.2,0c-0.1,0-0.2,0-0.3,0c-0.2,0-0.4,0-0.5,0.1
	c-0.1,0.1-0.2,0.2-0.3,0.3c-0.1,0.1-0.1,0.3-0.1,0.5V276.5z M171.6,271.2v0.7h-2.9v-0.7H171.6z M174.8,271.2v0.7h-2.9v-0.7H174.8z
	 M172.9,269.9h0.9v5.3c0,0.2,0,0.3,0.1,0.4c0.1,0.1,0.1,0.2,0.2,0.2c0.1,0,0.2,0,0.3,0c0.1,0,0.2,0,0.2,0c0.1,0,0.1,0,0.2,0l0,0.7
	c-0.1,0-0.2,0-0.3,0.1c-0.1,0-0.3,0-0.4,0c-0.2,0-0.4,0-0.6-0.1c-0.2-0.1-0.3-0.2-0.4-0.4c-0.1-0.2-0.2-0.5-0.2-0.8V269.9z
	 M178,276.6c-0.4,0-0.7-0.1-1-0.2c-0.3-0.1-0.6-0.3-0.8-0.5c-0.2-0.2-0.4-0.5-0.5-0.8c-0.1-0.3-0.2-0.7-0.2-1v-0.2
	c0-0.4,0.1-0.8,0.2-1.1c0.1-0.3,0.3-0.6,0.5-0.9c0.2-0.2,0.5-0.4,0.7-0.5c0.3-0.1,0.6-0.2,0.9-0.2c0.4,0,0.7,0.1,1,0.2
	c0.3,0.1,0.5,0.3,0.7,0.5c0.2,0.2,0.3,0.5,0.4,0.8c0.1,0.3,0.1,0.7,0.1,1v0.4h-3.9v-0.7h3v-0.1c0-0.2-0.1-0.5-0.1-0.7
	c-0.1-0.2-0.2-0.4-0.4-0.5c-0.2-0.1-0.4-0.2-0.7-0.2c-0.2,0-0.4,0-0.6,0.1c-0.2,0.1-0.3,0.2-0.4,0.4c-0.1,0.2-0.2,0.4-0.3,0.6
	c-0.1,0.2-0.1,0.5-0.1,0.8v0.2c0,0.3,0,0.5,0.1,0.7c0.1,0.2,0.2,0.4,0.3,0.6c0.1,0.2,0.3,0.3,0.5,0.4c0.2,0.1,0.4,0.1,0.7,0.1
	c0.3,0,0.6-0.1,0.8-0.2c0.2-0.1,0.4-0.3,0.6-0.5l0.5,0.4c-0.1,0.2-0.3,0.3-0.4,0.5c-0.2,0.2-0.4,0.3-0.6,0.4
	C178.7,276.5,178.4,276.6,178,276.6z M182,272.3v4.2h-0.9v-5.3h0.9L182,272.3z M181.8,273.7l-0.4,0c0-0.4,0.1-0.7,0.2-1
	c0.1-0.3,0.3-0.6,0.4-0.8c0.2-0.2,0.4-0.4,0.7-0.5c0.3-0.1,0.6-0.2,0.9-0.2c0.3,0,0.5,0,0.7,0.1c0.2,0.1,0.4,0.2,0.5,0.3
	c0.1,0.2,0.3,0.4,0.3,0.6c0.1,0.2,0.1,0.5,0.1,0.9v3.5h-0.9V273c0-0.3,0-0.5-0.1-0.7c-0.1-0.2-0.2-0.3-0.4-0.4
	c-0.2-0.1-0.3-0.1-0.6-0.1c-0.2,0-0.4,0-0.6,0.1c-0.2,0.1-0.3,0.2-0.5,0.4c-0.1,0.2-0.2,0.4-0.3,0.6
	C181.9,273.2,181.8,273.4,181.8,273.7z"/>
<path class="st8" d="M148,318h52c5.5,0,10,4.5,10,10v34c0,5.5-4.5,10-10,10h-52c-5.5,0-10-4.5-10-10v-34
	C138,322.5,142.5,318,148,318z"/>
<path class="st5" d="M160,338.4v7.1h-0.9l-3.6-5.5v5.5h-0.9v-7.1h0.9l3.6,5.5v-5.5H160z M161.3,342.9v-0.1c0-0.4,0.1-0.7,0.2-1.1
	c0.1-0.3,0.3-0.6,0.5-0.9c0.2-0.2,0.5-0.4,0.8-0.6c0.3-0.1,0.6-0.2,1-0.2c0.4,0,0.7,0.1,1,0.2c0.3,0.1,0.6,0.3,0.8,0.6
	c0.2,0.2,0.4,0.5,0.5,0.9c0.1,0.3,0.2,0.7,0.2,1.1v0.1c0,0.4-0.1,0.7-0.2,1.1c-0.1,0.3-0.3,0.6-0.5,0.9c-0.2,0.2-0.5,0.4-0.8,0.6
	c-0.3,0.1-0.6,0.2-1,0.2s-0.7-0.1-1-0.2c-0.3-0.1-0.6-0.3-0.8-0.6c-0.2-0.2-0.4-0.5-0.5-0.9C161.3,343.7,161.3,343.3,161.3,342.9z
	 M162.2,342.8v0.1c0,0.3,0,0.5,0.1,0.7c0.1,0.2,0.2,0.4,0.3,0.6c0.1,0.2,0.3,0.3,0.5,0.4c0.2,0.1,0.4,0.2,0.7,0.2
	c0.2,0,0.5-0.1,0.6-0.2c0.2-0.1,0.3-0.2,0.5-0.4c0.1-0.2,0.2-0.4,0.3-0.6c0.1-0.2,0.1-0.5,0.1-0.7v-0.1c0-0.3,0-0.5-0.1-0.7
	c-0.1-0.2-0.2-0.4-0.3-0.6c-0.1-0.2-0.3-0.3-0.5-0.4c-0.2-0.1-0.4-0.2-0.7-0.2c-0.2,0-0.5,0.1-0.7,0.2c-0.2,0.1-0.3,0.2-0.5,0.4
	c-0.1,0.2-0.2,0.4-0.3,0.6C162.2,342.3,162.2,342.5,162.2,342.8z M169.4,340.2v0.7h-2.9v-0.7H169.4z M167.6,338.9h0.9v5.3
	c0,0.2,0,0.3,0.1,0.4c0.1,0.1,0.1,0.2,0.2,0.2c0.1,0,0.2,0,0.3,0c0.1,0,0.2,0,0.2,0c0.1,0,0.1,0,0.2,0l0,0.7c-0.1,0-0.2,0-0.3,0.1
	c-0.1,0-0.3,0-0.4,0c-0.2,0-0.4,0-0.6-0.1c-0.2-0.1-0.3-0.2-0.4-0.4c-0.1-0.2-0.2-0.5-0.2-0.8V338.9z M176.1,344.6v-2.7
	c0-0.2,0-0.4-0.1-0.5c-0.1-0.2-0.2-0.3-0.4-0.4c-0.2-0.1-0.4-0.1-0.6-0.1c-0.2,0-0.4,0-0.6,0.1c-0.2,0.1-0.3,0.2-0.4,0.3
	c-0.1,0.1-0.1,0.3-0.1,0.4h-0.9c0-0.2,0-0.4,0.1-0.6c0.1-0.2,0.2-0.4,0.4-0.5c0.2-0.2,0.4-0.3,0.7-0.4c0.3-0.1,0.6-0.1,0.9-0.1
	c0.4,0,0.7,0.1,1,0.2c0.3,0.1,0.5,0.3,0.7,0.6c0.2,0.3,0.3,0.6,0.3,1v2.5c0,0.2,0,0.4,0,0.6c0,0.2,0.1,0.4,0.1,0.5v0.1h-0.9
	c0-0.1-0.1-0.2-0.1-0.4C176.1,344.9,176.1,344.7,176.1,344.6z M176.3,342.3l0,0.6h-0.9c-0.3,0-0.5,0-0.7,0.1c-0.2,0-0.4,0.1-0.5,0.2
	c-0.1,0.1-0.2,0.2-0.3,0.3c-0.1,0.1-0.1,0.3-0.1,0.4c0,0.2,0,0.3,0.1,0.5c0.1,0.1,0.2,0.2,0.3,0.3c0.2,0.1,0.3,0.1,0.6,0.1
	c0.3,0,0.5-0.1,0.7-0.2c0.2-0.1,0.4-0.3,0.5-0.4c0.1-0.2,0.2-0.3,0.2-0.5l0.4,0.4c0,0.1-0.1,0.3-0.2,0.5c-0.1,0.2-0.2,0.3-0.4,0.5
	c-0.2,0.1-0.4,0.3-0.6,0.4c-0.2,0.1-0.5,0.1-0.8,0.1c-0.4,0-0.7-0.1-0.9-0.2c-0.3-0.1-0.5-0.3-0.6-0.6c-0.1-0.2-0.2-0.5-0.2-0.8
	c0-0.3,0.1-0.5,0.2-0.7c0.1-0.2,0.3-0.4,0.5-0.5c0.2-0.1,0.5-0.3,0.8-0.3c0.3-0.1,0.6-0.1,1-0.1H176.3z M180.6,340.2v0.7h-2.9v-0.7
	H180.6z M178.8,338.9h0.9v5.3c0,0.2,0,0.3,0.1,0.4c0.1,0.1,0.1,0.2,0.2,0.2c0.1,0,0.2,0,0.3,0c0.1,0,0.2,0,0.2,0c0.1,0,0.1,0,0.2,0
	l0,0.7c-0.1,0-0.2,0-0.3,0.1c-0.1,0-0.3,0-0.4,0c-0.2,0-0.4,0-0.6-0.1c-0.2-0.1-0.3-0.2-0.4-0.4c-0.1-0.2-0.2-0.5-0.2-0.8V338.9z
	 M187.3,344.6v-2.7c0-0.2,0-0.4-0.1-0.5c-0.1-0.2-0.2-0.3-0.4-0.4c-0.2-0.1-0.4-0.1-0.6-0.1c-0.2,0-0.4,0-0.6,0.1
	c-0.2,0.1-0.3,0.2-0.4,0.3c-0.1,0.1-0.1,0.3-0.1,0.4h-0.9c0-0.2,0-0.4,0.1-0.6c0.1-0.2,0.2-0.4,0.4-0.5c0.2-0.2,0.4-0.3,0.7-0.4
	c0.3-0.1,0.6-0.1,0.9-0.1c0.4,0,0.7,0.1,1,0.2c0.3,0.1,0.5,0.3,0.7,0.6c0.2,0.3,0.3,0.6,0.3,1v2.5c0,0.2,0,0.4,0,0.6
	c0,0.2,0.1,0.4,0.1,0.5v0.1h-0.9c0-0.1-0.1-0.2-0.1-0.4C187.3,344.9,187.3,344.7,187.3,344.6z M187.5,342.3l0,0.6h-0.9
	c-0.3,0-0.5,0-0.7,0.1c-0.2,0-0.4,0.1-0.5,0.2c-0.1,0.1-0.2,0.2-0.3,0.3c-0.1,0.1-0.1,0.3-0.1,0.4c0,0.2,0,0.3,0.1,0.5
	c0.1,0.1,0.2,0.2,0.3,0.3c0.2,0.1,0.3,0.1,0.6,0.1c0.3,0,0.5-0.1,0.7-0.2c0.2-0.1,0.4-0.3,0.5-0.4c0.1-0.2,0.2-0.3,0.2-0.5l0.4,0.4
	c0,0.1-0.1,0.3-0.2,0.5c-0.1,0.2-0.2,0.3-0.4,0.5c-0.2,0.1-0.4,0.3-0.6,0.4c-0.2,0.1-0.5,0.1-0.8,0.1c-0.4,0-0.7-0.1-0.9-0.2
	c-0.3-0.1-0.5-0.3-0.6-0.6c-0.1-0.2-0.2-0.5-0.2-0.8c0-0.3,0.1-0.5,0.2-0.7c0.1-0.2,0.3-0.4,0.5-0.5c0.2-0.1,0.5-0.3,0.8-0.3
	c0.3-0.1,0.6-0.1,1-0.1H187.5z M190.6,338v7.5h-0.9V338H190.6z M193,338v7.5h-0.9V338H193z"/>
<circle class="st7" cx="70.5" cy="404.5" r="8.5"/>
<circle class="st9" cx="94.5" cy="404.5" r="8.5"/>
<circle class="st9" cx="118.5" cy="404.5" r="8.5"/>
<circle class="st9" cx="142.5" cy="404.5" r="8.5"/>
<circle class="st9" cx="166.5" cy="404.5" r="8.5"/>
<circle class="st9" cx="190.5" cy="404.5" r="8.5"/>
<path class="st5" d="M71,406h-0.6v-4.2l-1.3,0.5v-0.6l1.8-0.7H71V406z"/>
<path class="st5" d="M96.2,406h-3.3v-0.5l1.7-1.9c0.3-0.3,0.4-0.5,0.5-0.7c0.1-0.2,0.1-0.4,0.1-0.6c0-0.3-0.1-0.5-0.2-0.6
	c-0.2-0.2-0.4-0.2-0.6-0.2c-0.3,0-0.6,0.1-0.7,0.3c-0.2,0.2-0.3,0.4-0.3,0.7h-0.6c0-0.5,0.1-0.8,0.4-1.1c0.3-0.3,0.7-0.4,1.2-0.4
	c0.5,0,0.8,0.1,1.1,0.4c0.3,0.2,0.4,0.6,0.4,1c0,0.5-0.3,1.1-0.9,1.8l-1.3,1.4h2.5V406z"/>
<path class="st5" d="M117.9,403.2h0.5c0.3,0,0.5-0.1,0.7-0.2c0.2-0.2,0.3-0.4,0.3-0.6c0-0.6-0.3-0.9-0.9-0.9c-0.3,0-0.5,0.1-0.7,0.2
	c-0.2,0.2-0.2,0.4-0.2,0.6h-0.6c0-0.4,0.1-0.7,0.4-1c0.3-0.3,0.7-0.4,1.1-0.4c0.5,0,0.8,0.1,1.1,0.4c0.3,0.2,0.4,0.6,0.4,1
	c0,0.2-0.1,0.4-0.2,0.6c-0.1,0.2-0.3,0.4-0.6,0.5c0.3,0.1,0.5,0.2,0.6,0.4c0.2,0.2,0.2,0.4,0.2,0.7c0,0.4-0.1,0.8-0.4,1.1
	c-0.3,0.3-0.7,0.4-1.1,0.4c-0.5,0-0.8-0.1-1.1-0.4c-0.3-0.3-0.4-0.6-0.4-1h0.6c0,0.3,0.1,0.5,0.3,0.6c0.2,0.2,0.4,0.2,0.7,0.2
	c0.3,0,0.5-0.1,0.7-0.2c0.2-0.2,0.2-0.4,0.2-0.7c0-0.3-0.1-0.5-0.3-0.7c-0.2-0.2-0.4-0.2-0.8-0.2h-0.5V403.2z"/>
<path class="st5" d="M143.6,404.3h0.7v0.5h-0.7v1.2H143v-1.2h-2.3v-0.4l2.2-3.4h0.7V404.3z M141.4,404.3h1.5v-2.4l-0.1,0.1
	L141.4,404.3z"/>
<path class="st5" d="M165.2,403.5l0.3-2.5h2.6v0.6h-2l-0.1,1.4c0.2-0.1,0.5-0.2,0.8-0.2c0.5,0,0.8,0.1,1.1,0.5
	c0.3,0.3,0.4,0.7,0.4,1.2c0,0.5-0.1,0.9-0.4,1.2c-0.3,0.3-0.7,0.4-1.2,0.4c-0.4,0-0.8-0.1-1.1-0.4c-0.3-0.2-0.4-0.6-0.5-1h0.6
	c0,0.3,0.1,0.5,0.3,0.6c0.2,0.1,0.4,0.2,0.7,0.2c0.3,0,0.5-0.1,0.7-0.3c0.2-0.2,0.3-0.5,0.3-0.8c0-0.3-0.1-0.6-0.3-0.8
	c-0.2-0.2-0.4-0.3-0.7-0.3c-0.3,0-0.5,0.1-0.6,0.2l-0.2,0.1L165.2,403.5z"/>
<path class="st5" d="M191.4,401v0.5h-0.1c-0.5,0-0.9,0.2-1.2,0.4c-0.3,0.3-0.5,0.7-0.5,1.2c0.3-0.3,0.6-0.5,1.1-0.5
	c0.4,0,0.8,0.2,1,0.5c0.3,0.3,0.4,0.7,0.4,1.2c0,0.5-0.1,0.9-0.4,1.2c-0.3,0.3-0.7,0.5-1.1,0.5c-0.5,0-0.9-0.2-1.2-0.5
	c-0.3-0.4-0.4-0.8-0.4-1.4v-0.2c0-0.9,0.2-1.6,0.6-2.1c0.4-0.5,1-0.7,1.7-0.7H191.4z M190.6,403.3c-0.2,0-0.4,0.1-0.6,0.2
	c-0.2,0.1-0.3,0.3-0.4,0.5v0.2c0,0.4,0.1,0.7,0.3,1c0.2,0.3,0.4,0.4,0.7,0.4c0.3,0,0.5-0.1,0.7-0.3c0.2-0.2,0.2-0.5,0.2-0.8
	c0-0.3-0.1-0.6-0.2-0.8C191.1,403.4,190.9,403.3,190.6,403.3z"/>
<path class="st7" d="M89,428h79c5.5,0,10,4.5,10,10v29c0,5.5-4.5,10-10,10H89c-5.5,0-10-4.5-10-10v-29C79,432.5,83.5,428,89,428z"/>
<path class="st5" d="M108.1,468.1l2,1.6l-0.7,0.6l-2-1.6L108.1,468.1z M110,464.8v0.5c0,0.6-0.1,1.1-0.2,1.6
	c-0.1,0.5-0.4,0.9-0.6,1.2c-0.3,0.3-0.6,0.6-1,0.7c-0.4,0.2-0.8,0.3-1.3,0.3c-0.5,0-0.9-0.1-1.3-0.3c-0.4-0.2-0.7-0.4-1-0.7
	c-0.3-0.3-0.5-0.7-0.7-1.2c-0.2-0.5-0.2-1-0.2-1.6v-0.5c0-0.6,0.1-1.1,0.2-1.6c0.2-0.5,0.4-0.9,0.6-1.2c0.3-0.3,0.6-0.6,1-0.8
	c0.4-0.2,0.8-0.3,1.3-0.3c0.5,0,0.9,0.1,1.3,0.3c0.4,0.2,0.7,0.4,1,0.8c0.3,0.3,0.5,0.7,0.6,1.2C110,463.7,110,464.3,110,464.8z
	 M109,465.3v-0.5c0-0.5,0-0.9-0.1-1.2c-0.1-0.4-0.2-0.7-0.4-0.9c-0.2-0.2-0.4-0.4-0.7-0.6c-0.3-0.1-0.6-0.2-0.9-0.2
	c-0.3,0-0.6,0.1-0.9,0.2c-0.3,0.1-0.5,0.3-0.7,0.6c-0.2,0.2-0.3,0.5-0.4,0.9c-0.1,0.4-0.2,0.8-0.2,1.2v0.5c0,0.5,0.1,0.9,0.2,1.2
	c0.1,0.4,0.2,0.7,0.4,0.9c0.2,0.2,0.4,0.4,0.7,0.6c0.3,0.1,0.6,0.2,0.9,0.2c0.3,0,0.6-0.1,0.9-0.2s0.5-0.3,0.7-0.6
	c0.2-0.2,0.3-0.5,0.4-0.9C109,466.2,109,465.8,109,465.3z M115,467.7v-4.5h1v5.8h-1L115,467.7z M115.2,466.4l0.4,0
	c0,0.4,0,0.7-0.1,1.1c-0.1,0.3-0.2,0.6-0.4,0.8s-0.4,0.4-0.7,0.6c-0.3,0.1-0.6,0.2-1.1,0.2c-0.3,0-0.5,0-0.8-0.1
	c-0.2-0.1-0.4-0.2-0.6-0.4c-0.2-0.2-0.3-0.4-0.4-0.7c-0.1-0.3-0.1-0.6-0.1-1v-3.8h1v3.8c0,0.3,0,0.5,0.1,0.6
	c0.1,0.2,0.1,0.3,0.2,0.4c0.1,0.1,0.2,0.2,0.3,0.2c0.1,0,0.3,0.1,0.4,0.1c0.4,0,0.8-0.1,1-0.2c0.2-0.2,0.4-0.4,0.5-0.7
	C115.2,467.1,115.2,466.8,115.2,466.4z M120,469.1c-0.4,0-0.8-0.1-1.1-0.2c-0.3-0.1-0.6-0.3-0.8-0.6c-0.2-0.3-0.4-0.5-0.5-0.9
	c-0.1-0.3-0.2-0.7-0.2-1.1v-0.2c0-0.5,0.1-0.9,0.2-1.3c0.1-0.4,0.3-0.7,0.6-0.9s0.5-0.5,0.8-0.6c0.3-0.1,0.6-0.2,0.9-0.2
	c0.4,0,0.8,0.1,1.1,0.2c0.3,0.1,0.6,0.3,0.7,0.6c0.2,0.3,0.3,0.6,0.4,0.9c0.1,0.3,0.1,0.7,0.1,1.1v0.4h-4.3v-0.8h3.3v-0.1
	c0-0.3-0.1-0.5-0.2-0.8c-0.1-0.2-0.2-0.4-0.4-0.6c-0.2-0.2-0.5-0.2-0.8-0.2c-0.2,0-0.4,0-0.6,0.1c-0.2,0.1-0.4,0.2-0.5,0.4
	c-0.1,0.2-0.2,0.4-0.3,0.7c-0.1,0.3-0.1,0.6-0.1,0.9v0.2c0,0.3,0,0.5,0.1,0.8c0.1,0.2,0.2,0.5,0.3,0.6c0.2,0.2,0.3,0.3,0.5,0.4
	c0.2,0.1,0.5,0.2,0.7,0.2c0.4,0,0.6-0.1,0.9-0.2c0.2-0.1,0.5-0.3,0.6-0.6l0.6,0.5c-0.1,0.2-0.3,0.4-0.5,0.5s-0.4,0.3-0.7,0.4
	C120.7,469.1,120.3,469.1,120,469.1z M126.8,467.5c0-0.1,0-0.3-0.1-0.4c-0.1-0.1-0.2-0.2-0.4-0.3c-0.2-0.1-0.5-0.2-0.9-0.3
	c-0.3-0.1-0.6-0.1-0.9-0.2c-0.3-0.1-0.5-0.2-0.7-0.3c-0.2-0.1-0.3-0.3-0.4-0.5c-0.1-0.2-0.1-0.4-0.1-0.6c0-0.2,0.1-0.4,0.2-0.7
	c0.1-0.2,0.2-0.4,0.4-0.5c0.2-0.2,0.4-0.3,0.7-0.4c0.3-0.1,0.6-0.1,0.9-0.1c0.5,0,0.9,0.1,1.2,0.2c0.3,0.2,0.6,0.4,0.8,0.7
	c0.2,0.3,0.3,0.6,0.3,0.9h-1c0-0.2,0-0.3-0.1-0.5c-0.1-0.2-0.2-0.3-0.4-0.4c-0.2-0.1-0.4-0.2-0.7-0.2c-0.3,0-0.5,0-0.7,0.1
	c-0.2,0.1-0.3,0.2-0.4,0.3c-0.1,0.1-0.1,0.3-0.1,0.4c0,0.1,0,0.2,0.1,0.3c0,0.1,0.1,0.2,0.2,0.2c0.1,0.1,0.2,0.1,0.4,0.2
	s0.4,0.1,0.7,0.2c0.5,0.1,0.9,0.2,1.2,0.4c0.3,0.2,0.5,0.3,0.7,0.6c0.2,0.2,0.2,0.5,0.2,0.8c0,0.3-0.1,0.5-0.2,0.7
	c-0.1,0.2-0.3,0.4-0.5,0.5c-0.2,0.2-0.4,0.3-0.7,0.4c-0.3,0.1-0.6,0.1-0.9,0.1c-0.5,0-0.9-0.1-1.3-0.3c-0.4-0.2-0.6-0.4-0.8-0.7
	c-0.2-0.3-0.3-0.6-0.3-0.9h1c0,0.3,0.1,0.5,0.2,0.6c0.1,0.2,0.3,0.3,0.5,0.3c0.2,0.1,0.4,0.1,0.6,0.1c0.3,0,0.5,0,0.7-0.1
	c0.2-0.1,0.3-0.2,0.4-0.3C126.7,467.8,126.8,467.6,126.8,467.5z M131.5,463.2v0.8h-3.1v-0.8H131.5z M129.4,461.8h1v5.8
	c0,0.2,0,0.3,0.1,0.4c0.1,0.1,0.1,0.2,0.2,0.2c0.1,0,0.2,0,0.3,0c0.1,0,0.2,0,0.3,0c0.1,0,0.2,0,0.2,0l0,0.8c-0.1,0-0.2,0-0.3,0.1
	c-0.1,0-0.3,0-0.5,0c-0.2,0-0.5,0-0.7-0.1c-0.2-0.1-0.4-0.3-0.5-0.5c-0.1-0.2-0.2-0.5-0.2-0.9V461.8z M133.7,463.2v5.8h-1v-5.8
	H133.7z M132.7,461.6c0-0.2,0-0.3,0.1-0.4c0.1-0.1,0.2-0.2,0.4-0.2c0.2,0,0.3,0.1,0.4,0.2c0.1,0.1,0.2,0.2,0.2,0.4
	c0,0.2-0.1,0.3-0.2,0.4c-0.1,0.1-0.2,0.2-0.4,0.2c-0.2,0-0.3-0.1-0.4-0.2C132.7,461.9,132.7,461.8,132.7,461.6z M135.1,466.2V466
	c0-0.4,0.1-0.8,0.2-1.2c0.1-0.4,0.3-0.7,0.5-0.9c0.2-0.3,0.5-0.5,0.8-0.6c0.3-0.2,0.7-0.2,1.1-0.2c0.4,0,0.8,0.1,1.1,0.2
	c0.3,0.1,0.6,0.4,0.8,0.6c0.2,0.3,0.4,0.6,0.5,0.9c0.1,0.4,0.2,0.7,0.2,1.2v0.1c0,0.4-0.1,0.8-0.2,1.2s-0.3,0.7-0.5,0.9
	c-0.2,0.3-0.5,0.5-0.8,0.6c-0.3,0.1-0.7,0.2-1.1,0.2c-0.4,0-0.8-0.1-1.1-0.2c-0.3-0.1-0.6-0.4-0.8-0.6c-0.2-0.3-0.4-0.6-0.5-0.9
	C135.1,467,135.1,466.6,135.1,466.2z M136.1,466v0.1c0,0.3,0,0.6,0.1,0.8c0.1,0.3,0.2,0.5,0.3,0.7c0.1,0.2,0.3,0.4,0.5,0.5
	c0.2,0.1,0.4,0.2,0.7,0.2c0.3,0,0.5-0.1,0.7-0.2c0.2-0.1,0.4-0.3,0.5-0.5c0.1-0.2,0.2-0.4,0.3-0.7c0.1-0.3,0.1-0.5,0.1-0.8V466
	c0-0.3,0-0.6-0.1-0.8c-0.1-0.3-0.2-0.5-0.3-0.7c-0.1-0.2-0.3-0.4-0.5-0.5c-0.2-0.1-0.4-0.2-0.7-0.2c-0.3,0-0.5,0.1-0.7,0.2
	c-0.2,0.1-0.4,0.3-0.5,0.5c-0.1,0.2-0.2,0.4-0.3,0.7C136.1,465.5,136.1,465.7,136.1,466z M142.6,464.4v4.6h-1v-5.8h0.9L142.6,464.4z
	 M142.4,465.9l-0.4,0c0-0.4,0.1-0.8,0.2-1.1c0.1-0.3,0.3-0.6,0.5-0.9c0.2-0.3,0.5-0.4,0.7-0.6c0.3-0.1,0.6-0.2,1-0.2
	c0.3,0,0.5,0,0.8,0.1c0.2,0.1,0.4,0.2,0.6,0.4c0.2,0.2,0.3,0.4,0.4,0.7c0.1,0.3,0.1,0.6,0.1,1v3.8h-1v-3.8c0-0.3,0-0.5-0.1-0.7
	c-0.1-0.2-0.2-0.3-0.4-0.4c-0.2-0.1-0.4-0.1-0.6-0.1c-0.2,0-0.5,0.1-0.7,0.2c-0.2,0.1-0.4,0.2-0.5,0.4c-0.1,0.2-0.3,0.4-0.3,0.6
	C142.4,465.4,142.4,465.6,142.4,465.9z M155.4,468.2v0.8h-5.1v-0.7l2.6-2.9c0.3-0.4,0.6-0.6,0.7-0.9c0.2-0.2,0.3-0.5,0.4-0.7
	c0.1-0.2,0.1-0.4,0.1-0.6c0-0.3-0.1-0.5-0.2-0.7c-0.1-0.2-0.3-0.4-0.5-0.5c-0.2-0.1-0.5-0.2-0.7-0.2c-0.3,0-0.6,0.1-0.9,0.2
	c-0.2,0.1-0.4,0.3-0.5,0.6c-0.1,0.2-0.2,0.5-0.2,0.8h-1c0-0.4,0.1-0.8,0.3-1.2c0.2-0.4,0.5-0.7,0.9-0.9c0.4-0.2,0.8-0.3,1.4-0.3
	c0.5,0,0.9,0.1,1.3,0.3c0.4,0.2,0.6,0.4,0.8,0.7c0.2,0.3,0.3,0.7,0.3,1.1c0,0.2,0,0.5-0.1,0.7c-0.1,0.2-0.2,0.5-0.3,0.7
	c-0.1,0.2-0.3,0.5-0.5,0.7c-0.2,0.2-0.4,0.4-0.6,0.7l-2.1,2.3H155.4z"/>
<path class="st5" d="M117.8,441.2V454h-1.7l-6.4-9.9v9.9h-1.7v-12.8h1.7l6.5,9.9v-9.9H117.8z M128.9,452.6v1.4h-6.8v-1.4H128.9z
	 M122.5,441.2V454h-1.7v-12.8H122.5z M128,446.7v1.4h-5.9v-1.4H128z M128.8,441.2v1.4h-6.7v-1.4H128.8z M132.1,441.2l3.1,4.9
	l3.1-4.9h2l-4,6.3l4.1,6.5h-2l-3.2-5l-3.2,5h-2l4.1-6.5l-4-6.3H132.1z M147,441.2V454h-1.7v-12.8H147z M151.1,441.2v1.4h-9.9v-1.4
	H151.1z"/>
<path class="st7" d="M124.1,494H123v-7.8l-2.4,0.9V486l3.4-1.3h0.2V494z M127.9,494.8h-1l3.9-10h1L127.9,494.8z M137.6,484.8v1h-0.2
	c-0.9,0-1.6,0.3-2.2,0.8c-0.5,0.5-0.9,1.3-0.9,2.2c0.5-0.6,1.2-0.8,2-0.8c0.8,0,1.4,0.3,1.9,0.9c0.5,0.6,0.7,1.3,0.7,2.2
	c0,1-0.3,1.7-0.8,2.3c-0.5,0.6-1.2,0.9-2.1,0.9c-0.9,0-1.6-0.3-2.2-1c-0.5-0.7-0.8-1.6-0.8-2.6V490c0-1.7,0.4-3,1.1-3.9
	c0.7-0.9,1.8-1.4,3.2-1.4H137.6z M136,488.9c-0.4,0-0.8,0.1-1.1,0.4c-0.3,0.2-0.6,0.5-0.7,0.9v0.4c0,0.8,0.2,1.4,0.5,1.8
	c0.3,0.5,0.8,0.7,1.3,0.7c0.5,0,0.9-0.2,1.2-0.6c0.3-0.4,0.5-0.9,0.5-1.5c0-0.6-0.2-1.1-0.5-1.5C136.9,489.1,136.5,488.9,136,488.9z
	"/>
<rect x="33" y="31" class="st1" width="18" height="17"/>
<path class="st10" d="M212.5,40h15"/>
<path class="st10" d="M212.5,35.5h15"/>
<path class="st10" d="M212.5,44.5h15"/>
<polygon class="st5" points="76.4,30.2 78.7,30 80,46.7 77.7,46.9 "/>
<circle class="st5" cx="78.5" cy="45.5" r="3.5"/>
<circle class="st6" cx="78.5" cy="45.5" r="1.5"/>
<ellipse transform="matrix(0.3328 -0.943 0.943 0.3328 88.4991 190.9274)" class="st5" cx="179.2" cy="32.9" rx="2" ry="1.6"/>
<ellipse transform="matrix(0.9516 -0.3074 0.3074 0.9516 -0.9822 58.7031)" class="st5" cx="185.9" cy="32.5" rx="1.6" ry="2"/>
<polygon class="st5" points="177.9,33.1 179,32.6 181.5,39.2 180.5,39.7 "/>
<polygon class="st5" points="186.1,33.1 187.2,33.3 185.7,39.6 184.6,39.3 "/>
<polygon class="st5" points="182.6,40.1 183.8,40 183.9,46.9 182.8,46.9 "/>
<polygon class="st5" points="180.1,39.1 180.7,38.3 183.1,40.4 182.5,41.1 "/>
<polygon class="st5" points="185.2,38.6 185.7,39.4 183.2,41.2 182.6,40.4 "/>
<path class="st5" d="M91.2,47l-1.7-4.9h-0.3H86V47h-1.4V34.6h4.8c0.9,0,1.6,0.2,2.1,0.5c0.5,0.3,0.8,0.7,0.9,1.2
	c0.1,0.5,0.2,1.2,0.2,2c0,0.9-0.1,1.6-0.3,2.2c-0.2,0.6-0.7,1-1.4,1.2l1.9,5.2H91.2z M88.8,40.8c0.7,0,1.1-0.1,1.5-0.3
	c0.3-0.2,0.5-0.4,0.6-0.8c0.1-0.3,0.1-0.8,0.1-1.4c0-0.6,0-1.1-0.1-1.4c-0.1-0.3-0.3-0.6-0.6-0.7c-0.3-0.2-0.8-0.3-1.4-0.3h-3v4.9
	H88.8z M95.2,47V34.6h6.9v1.3h-5.5v4.2h4.8v1.3h-4.8v4.3h5.5V47H95.2z M106.7,47V35.9h-3.3v-1.3h8.1v1.3h-3.3V47H106.7z M120.4,47
	v-5.6H115V47h-1.4V34.6h1.4v5.5h5.4v-5.5h1.4V47H120.4z M124.9,47V34.6h6.9v1.3h-5.5v4.2h4.8v1.3h-4.8v4.3h5.5V47H124.9z M140.9,47
	l-1.7-4.9h-0.3h-3.1V47h-1.4V34.6h4.8c0.9,0,1.6,0.2,2.1,0.5c0.5,0.3,0.8,0.7,0.9,1.2c0.1,0.5,0.2,1.2,0.2,2c0,0.9-0.1,1.6-0.3,2.2
	c-0.2,0.6-0.7,1-1.4,1.2l1.9,5.2H140.9z M138.6,40.8c0.7,0,1.1-0.1,1.5-0.3c0.3-0.2,0.5-0.4,0.6-0.8c0.1-0.3,0.1-0.8,0.1-1.4
	c0-0.6,0-1.1-0.1-1.4c-0.1-0.3-0.3-0.6-0.6-0.7c-0.3-0.2-0.8-0.3-1.4-0.3h-3v4.9H138.6z M152.1,47l-1.1-3.4h-4.7l-1.1,3.4h-1.5
	l4-12.4h1.9l4,12.4H152.1z M148.7,36.2L148.7,36.2l-2,6.1h3.9L148.7,36.2z M155.6,34.6h4.6c0.9,0,1.6,0.2,2.1,0.5
	c0.5,0.3,0.8,0.8,0.9,1.3c0.1,0.5,0.2,1.2,0.2,2.1c0,0.9-0.1,1.5-0.2,2.1s-0.5,1-0.9,1.3c-0.5,0.3-1.2,0.5-2.1,0.5H157V47h-1.4V34.6
	z M159.8,41.2c0.7,0,1.1-0.1,1.5-0.3s0.5-0.4,0.6-0.8c0.1-0.4,0.1-0.9,0.1-1.6c0-0.7,0-1.2-0.1-1.6s-0.3-0.6-0.6-0.8
	s-0.8-0.3-1.5-0.3H157v5.3H159.8z M172.6,47v-5.6h-5.4V47h-1.4V34.6h1.4v5.5h5.4v-5.5h1.4V47H172.6z"/>
</svg>
