<svg width="33" height="33" viewBox="0 0 33 33" fill="none" xmlns="http://www.w3.org/2000/svg">
<circle cx="16.5" cy="16.5" r="16.5" fill="#924FC3"/>
<path d="M15.0004 12.4004C15.3665 12.0343 15.3665 11.4407 15.0004 11.0746C14.6343 10.7085 14.0407 10.7085 13.6746 11.0746L8.67459 16.0746C8.49153 16.2576 8.4 16.4976 8.4 16.7375C8.4 16.8646 8.4253 16.9858 8.47114 17.0963C8.51689 17.2069 8.5847 17.3105 8.67459 17.4004L13.6746 22.4004C14.0407 22.7665 14.6343 22.7665 15.0004 22.4004C15.3665 22.0343 15.3665 21.4407 15.0004 21.0746L11.6008 17.675H23.7125C24.2303 17.675 24.65 17.2553 24.65 16.7375C24.65 16.2197 24.2303 15.8 23.7125 15.8H11.6008L15.0004 12.4004Z" fill="white"/>
</svg>
