<svg width="486" height="162" viewBox="0 0 486 162" fill="none" xmlns="http://www.w3.org/2000/svg">
<g clip-path="url(#clip0_121_3768)">
<rect x="1" y="2" width="485" height="160" rx="5" fill="#E5E5E5" fill-opacity="0.7"/>
<g filter="url(#filter0_d_121_3768)">
<path d="M236.797 28H58.2026C54.777 28 52 30.3374 52 33.2208V172.779C52 175.663 54.777 178 58.2026 178H236.797C240.223 178 243 175.663 243 172.779V33.2208C243 30.3374 240.223 28 236.797 28Z" fill="white"/>
</g>
<path d="M69.1517 44.665C69.1517 44.9627 68.9103 45.2041 68.6126 45.2041C68.3149 45.2041 68.0735 44.9627 68.0735 44.665V41.712C68.0735 41.3308 67.7645 41.0218 67.3832 41.0218H67.141C66.8936 41.0218 66.693 40.8212 66.693 40.5737C66.693 40.3263 66.8936 40.1257 67.141 40.1257H70.0841C70.3316 40.1257 70.5322 40.3263 70.5322 40.5737C70.5322 40.8212 70.3316 41.0218 70.0841 41.0218H69.8419C69.4607 41.0218 69.1517 41.3308 69.1517 41.712V44.665ZM72.076 43.2553C72.076 43.6397 72.1387 43.9304 72.264 44.1274C72.3914 44.324 72.5977 44.4225 72.8828 44.4225C73.1658 44.4225 73.3686 44.3252 73.4912 44.1306C73.6165 43.934 73.6792 43.6421 73.6792 43.2553C73.6792 42.8709 73.6165 42.5826 73.4912 42.3904C73.3662 42.1982 73.161 42.1021 72.876 42.1021C72.593 42.1021 72.389 42.1982 72.264 42.3904C72.1387 42.5805 72.076 42.8688 72.076 43.2553ZM74.7642 43.2553C74.7642 43.8877 74.597 44.3819 74.2633 44.7387C73.9295 45.0952 73.4648 45.2735 72.8688 45.2735C72.4956 45.2735 72.1666 45.1925 71.8812 45.0303C71.5961 44.866 71.377 44.631 71.2241 44.3252C71.0711 44.0197 70.9945 43.6629 70.9945 43.2553C70.9945 42.6209 71.1602 42.1276 71.4919 41.7758C71.8233 41.4237 72.2892 41.2478 72.8899 41.2478C73.2629 41.2478 73.5922 41.3288 73.8773 41.4907C74.1626 41.653 74.3815 41.8855 74.5347 42.189C74.6876 42.4924 74.7642 42.8478 74.7642 43.2553ZM76.8713 45.2735C76.4146 45.2735 76.0553 45.0964 75.7934 44.742C75.5339 44.3878 75.4038 43.8969 75.4038 43.2693C75.4038 42.6324 75.536 42.1368 75.8003 41.7826C76.0669 41.4261 76.4333 41.2478 76.8992 41.2478C77.3845 41.2478 77.7558 41.4347 78.013 41.8085C78.0168 41.814 78.023 41.8173 78.0297 41.8173C78.0422 41.8173 78.0517 41.8059 78.0494 41.7936C77.9989 41.5137 77.9739 41.2635 77.9739 41.0428V40.3311C77.9739 40.0373 78.212 39.7991 78.5058 39.7991C78.7997 39.7991 79.0378 40.0373 79.0378 40.3311V44.7176C79.0378 44.9863 78.82 45.2041 78.5513 45.2041H78.4961C78.3317 45.2041 78.1836 45.1045 78.1216 44.9523L78.0284 44.7234C78.0227 44.7095 78.0092 44.7004 77.9942 44.7004C77.9816 44.7004 77.9698 44.707 77.9629 44.7176C77.7216 45.0882 77.3577 45.2735 76.8713 45.2735ZM77.2434 44.4296C77.5148 44.4296 77.7129 44.3507 77.8382 44.1932C77.9656 44.0357 78.0351 43.7685 78.0466 43.3909V43.2764C78.0466 42.8593 77.9819 42.5606 77.8521 42.38C77.7244 42.1994 77.516 42.1092 77.2262 42.1092C76.9895 42.1092 76.8054 42.2097 76.6733 42.4114C76.5435 42.6105 76.4785 42.9012 76.4785 43.2832C76.4785 43.6652 76.5444 43.9524 76.6765 44.1446C76.8087 44.3344 76.9978 44.4296 77.2434 44.4296ZM82.8992 45.2041C82.7285 45.2041 82.5753 45.0993 82.5134 44.9401L82.4167 44.6912C82.4131 44.6821 82.4044 44.6761 82.3946 44.6761C82.3874 44.6761 82.3806 44.6794 82.376 44.6851C82.1995 44.9048 82.0178 45.0582 81.8303 45.1451C81.6423 45.2308 81.3967 45.2735 81.093 45.2735C80.7197 45.2735 80.4255 45.167 80.2096 44.9541C79.9964 44.7411 79.8898 44.4376 79.8898 44.044C79.8898 43.6317 80.0335 43.3283 80.3209 43.1337C80.6107 42.937 81.0466 42.8282 81.6284 42.8074L82.1331 42.7917C82.2278 42.7887 82.303 42.7111 82.303 42.6164C82.303 42.2225 82.1014 42.0258 81.6982 42.0258C81.4821 42.0258 81.2399 42.0711 80.9714 42.1617C80.7618 42.2324 80.5255 42.1498 80.428 41.9512C80.3298 41.7512 80.4083 41.5062 80.6178 41.4301C80.9656 41.3038 81.3396 41.2407 81.7397 41.2407C82.2614 41.2407 82.6611 41.3543 82.9394 41.5812C83.2176 41.8081 83.3569 42.1531 83.3569 42.6164V44.7642C83.3569 45.0072 83.1599 45.2041 82.917 45.2041H82.8992ZM82.303 43.7243C82.303 43.5496 82.1583 43.4097 81.9838 43.4157L81.8926 43.4188C81.5844 43.428 81.3549 43.4834 81.2043 43.5855C81.0535 43.6872 80.9784 43.8423 80.9784 44.0509C80.9784 44.3495 81.1497 44.499 81.493 44.499C81.7385 44.499 81.9345 44.4284 82.0806 44.287C82.2288 44.1458 82.303 43.9583 82.303 43.7243ZM84.1862 42.0457C84.0471 41.6984 84.3029 41.3205 84.677 41.3205C84.9041 41.3205 85.1059 41.4656 85.1782 41.6809L85.7909 43.5054C85.8527 43.6929 85.8952 43.9139 85.9185 44.1687C85.9191 44.1747 85.9241 44.1793 85.9301 44.1793C85.9361 44.1793 85.9411 44.1748 85.9417 44.1689C85.9676 43.9343 86.0168 43.7132 86.0899 43.5054L86.6909 41.6811C86.7618 41.4659 86.9628 41.3205 87.1894 41.3205C87.5559 41.3205 87.8095 41.6866 87.6807 42.0298L86.3023 45.7009C86.1514 46.1061 85.9358 46.4096 85.6552 46.611C85.3773 46.8124 85.0515 46.9132 84.6783 46.9132C84.6056 46.9132 84.5334 46.9101 84.4618 46.9039C84.2717 46.8873 84.1393 46.7184 84.1393 46.5276V46.4341C84.1393 46.2193 84.3417 46.0587 84.5565 46.0587C84.7442 46.0587 84.9078 46.0008 85.0468 45.8848C85.1881 45.7715 85.2983 45.5989 85.3773 45.3672C85.4176 45.2438 85.4132 45.1102 85.3649 44.9897L84.1862 42.0457Z" fill="#181135"/>
<path d="M229.443 54.399H69.1706C66.5754 54.399 64.4716 56.5005 64.4716 59.0927V77.1455C64.4716 79.7378 66.5754 81.8393 69.1706 81.8393H229.443C232.038 81.8393 234.142 79.7378 234.142 77.1455V59.0927C234.142 56.5005 232.038 54.399 229.443 54.399Z" fill="#F0C789" fill-opacity="0.3"/>
<path d="M79.176 66.0371C78.4787 66.0371 77.9135 65.4719 77.9135 64.7747V62.387C77.9135 62.1476 78.1075 61.9536 78.3469 61.9536C78.5862 61.9536 78.7803 62.1476 78.7803 62.387V64.4932C78.7803 64.9511 79.1515 65.3223 79.6093 65.3223H80.081C80.2784 65.3223 80.4384 65.4823 80.4384 65.6797C80.4384 65.8771 80.2784 66.0371 80.081 66.0371H79.176ZM83.2973 66.0371C83.16 66.0371 83.0369 65.9528 82.9872 65.8249L82.9095 65.6248C82.9067 65.6175 82.8996 65.6126 82.8918 65.6126C82.8859 65.6126 82.8804 65.6153 82.8768 65.6199C82.7349 65.7966 82.5886 65.92 82.4377 65.9896C82.2869 66.0588 82.0891 66.0932 81.845 66.0932C81.5448 66.0932 81.3082 66.0074 81.1347 65.836C80.9631 65.6649 80.8776 65.4207 80.8776 65.1043C80.8776 64.7729 80.9931 64.5288 81.2241 64.3725C81.4572 64.2141 81.8076 64.1266 82.2756 64.11L82.6814 64.0973C82.7576 64.095 82.8181 64.0325 82.8181 63.9563C82.8181 63.6395 82.656 63.4815 82.3314 63.4815C82.1579 63.4815 81.9631 63.5178 81.7472 63.5907C81.5787 63.6476 81.3886 63.5812 81.3102 63.4215C81.2313 63.2606 81.2944 63.0637 81.4629 63.0026C81.7425 62.901 82.0431 62.8503 82.365 62.8503C82.7846 62.8503 83.1062 62.9413 83.3298 63.124C83.5536 63.3064 83.6653 63.5838 83.6653 63.9563V65.6835C83.6653 65.8788 83.507 66.0371 83.3117 66.0371H83.2973ZM82.8181 64.8474C82.8181 64.7068 82.7016 64.5942 82.5611 64.599L82.4882 64.6015C82.2403 64.6089 82.0556 64.6537 81.9344 64.7356C81.8133 64.8174 81.7527 64.9423 81.7527 65.1099C81.7527 65.3501 81.8908 65.4703 82.1666 65.4703C82.3641 65.4703 82.5218 65.4133 82.6391 65.2997C82.7584 65.1861 82.8181 65.0354 82.8181 64.8474ZM86.9686 66.0371C86.8457 66.0371 86.7376 65.9557 86.7036 65.8375L86.6535 65.6627C86.6492 65.648 86.6358 65.6379 86.6204 65.6379C86.6086 65.6379 86.5977 65.6439 86.5912 65.6538C86.5004 65.7912 86.3744 65.8986 86.2128 65.9757C86.045 66.054 85.8541 66.0932 85.6397 66.0932C85.2724 66.0932 84.9956 65.9953 84.8091 65.7998C84.6226 65.6023 84.5294 65.3193 84.5294 64.9506V63.3407C84.5294 63.1052 84.7203 62.9143 84.9558 62.9143C85.1913 62.9143 85.3822 63.1052 85.3822 63.3407V64.7382C85.3822 64.9637 85.4223 65.133 85.5025 65.2466C85.5827 65.3584 85.7103 65.4142 85.8855 65.4142C86.1243 65.4142 86.2968 65.3353 86.4028 65.1769C86.5091 65.0167 86.5623 64.7525 86.5623 64.3838V63.3407C86.5623 63.1052 86.7532 62.9143 86.9887 62.9143C87.2242 62.9143 87.4151 63.1052 87.4151 63.3407V65.664C87.4151 65.8701 87.2481 66.0371 87.042 66.0371H86.9686ZM91.1958 65.6107C91.1958 65.8462 91.0049 66.0371 90.7694 66.0371C90.5339 66.0371 90.343 65.8462 90.343 65.6107V64.2132C90.343 63.9878 90.3029 63.8193 90.2227 63.7078C90.1425 63.5942 90.0148 63.5372 89.8396 63.5372C89.6009 63.5372 89.4284 63.6173 89.3224 63.7775C89.2161 63.9359 89.1629 64.1993 89.1629 64.568V65.6107C89.1629 65.8462 88.972 66.0371 88.7365 66.0371C88.501 66.0371 88.3101 65.8462 88.3101 65.6107V63.2859C88.3101 63.0807 88.4764 62.9143 88.6816 62.9143H88.7538C88.8768 62.9143 88.985 62.9958 89.0189 63.1141L89.0686 63.2875C89.0731 63.3031 89.0874 63.3139 89.1036 63.3139C89.1161 63.3139 89.1277 63.3074 89.1346 63.297C89.2286 63.1544 89.3556 63.0464 89.5151 62.9731C89.6828 62.8947 89.8732 62.8556 90.0855 62.8556C90.4493 62.8556 90.7251 62.9544 90.9134 63.1519C91.1017 63.3474 91.1958 63.6304 91.1958 64.0008V65.6107ZM93.0636 66.0932C92.6965 66.0932 92.4076 65.9505 92.1968 65.6657C91.988 65.3807 91.8835 64.9859 91.8835 64.4814C91.8835 63.9694 91.9898 63.5707 92.2024 63.286C92.4168 62.9992 92.7114 62.8556 93.0861 62.8556C93.4762 62.8556 93.7748 63.006 93.9816 63.3068C93.9847 63.3112 93.9897 63.3139 93.995 63.3139C94.0051 63.3139 94.0127 63.3047 94.0109 63.2948C93.9705 63.0697 93.9502 62.8684 93.9502 62.691V62.1188C93.9502 61.8826 94.1417 61.6911 94.378 61.6911C94.6142 61.6911 94.8057 61.8826 94.8057 62.1188V65.6459C94.8057 65.862 94.6306 66.0371 94.4145 66.0371H94.3702C94.238 66.0371 94.1189 65.9571 94.069 65.8347L93.994 65.6507C93.9894 65.6395 93.9786 65.6322 93.9666 65.6322C93.9564 65.6322 93.9469 65.6375 93.9414 65.646C93.7474 65.9441 93.4549 66.0932 93.0636 66.0932ZM93.3629 65.4142C93.5808 65.4142 93.7403 65.351 93.841 65.2244C93.9437 65.0977 93.9995 64.8827 94.0087 64.5792V64.487C94.0087 64.1518 93.9565 63.9115 93.8522 63.7662C93.7498 63.6212 93.582 63.5485 93.3489 63.5485C93.1589 63.5485 93.0104 63.6295 92.9044 63.7914C92.7999 63.9516 92.7476 64.1853 92.7476 64.4926C92.7476 64.7999 92.8008 65.0307 92.9071 65.1852C93.0134 65.338 93.1654 65.4142 93.3629 65.4142ZM97.4426 62.8556C97.6085 62.8556 97.7207 63.0042 97.7074 63.1696L97.6868 63.4264C97.6762 63.5582 97.547 63.6517 97.4147 63.6517C97.1424 63.6517 96.9301 63.7217 96.7771 63.8614C96.626 64.0008 96.5506 64.1966 96.5506 64.4478V65.6107C96.5506 65.8462 96.3597 66.0371 96.1242 66.0371C95.8887 66.0371 95.6978 65.8462 95.6978 65.6107V63.2754C95.6978 63.076 95.8594 62.9143 96.0588 62.9143H96.0735C96.2319 62.9143 96.3696 63.0229 96.4066 63.177L96.4639 63.4163C96.4672 63.43 96.4794 63.4396 96.4935 63.4396C96.5045 63.4396 96.5147 63.4336 96.5202 63.424C96.6163 63.256 96.7437 63.1209 96.903 63.0178C97.0687 62.9099 97.2487 62.8556 97.4426 62.8556ZM98.0844 63.4975C97.9726 63.2182 98.1782 62.9143 98.4791 62.9143C98.6617 62.9143 98.824 63.031 98.8821 63.2041L99.3748 64.6712C99.4246 64.8219 99.4588 64.9998 99.4777 65.2047C99.4781 65.2095 99.4821 65.2131 99.4868 65.2131C99.4915 65.2131 99.4954 65.2096 99.4959 65.2049C99.5167 65.0163 99.5565 64.8384 99.6153 64.6712L100.099 63.2043C100.156 63.0313 100.317 62.9143 100.499 62.9143C100.794 62.9143 100.998 63.2088 100.894 63.4847L99.7861 66.4367C99.6646 66.7626 99.4915 67.0065 99.2658 67.1684C99.0422 67.3304 98.7803 67.4113 98.4801 67.4113C98.4214 67.4113 98.3632 67.4088 98.3054 67.4038C98.1528 67.3906 98.0466 67.255 98.0466 67.1018V67.0262C98.0466 66.8535 98.2094 66.7244 98.3821 66.7244C98.5333 66.7244 98.6645 66.6778 98.7765 66.5847C98.8902 66.4933 98.9787 66.3548 99.0422 66.1685C99.0746 66.0692 99.0711 65.9617 99.0323 65.8648L98.0844 63.4975ZM106.505 63.9563C106.505 64.6285 106.313 65.1434 105.929 65.5008C105.547 65.8585 104.994 66.0371 104.271 66.0371C103.632 66.0371 103.114 65.5189 103.114 64.8796V63.237C103.114 62.5282 103.688 61.9536 104.397 61.9536C105.064 61.9536 105.583 62.1295 105.952 62.4816C106.321 62.8333 106.505 63.3251 106.505 63.9563ZM105.605 63.9786C105.605 63.1015 105.217 62.6631 104.442 62.6631C104.187 62.6631 103.98 62.8697 103.98 63.1245V64.9505C103.98 65.1558 104.147 65.3223 104.352 65.3223C105.187 65.3223 105.605 64.8744 105.605 63.9786ZM109.499 66.0371C109.361 66.0371 109.238 65.9528 109.188 65.8249L109.111 65.6248C109.108 65.6175 109.101 65.6126 109.093 65.6126C109.087 65.6126 109.082 65.6153 109.078 65.6199C108.936 65.7966 108.79 65.92 108.639 65.9896C108.488 66.0588 108.29 66.0932 108.046 66.0932C107.746 66.0932 107.509 66.0074 107.336 65.836C107.165 65.6649 107.079 65.4207 107.079 65.1043C107.079 64.7729 107.194 64.5288 107.425 64.3725C107.658 64.2141 108.009 64.1266 108.477 64.11L108.883 64.0973C108.959 64.095 109.019 64.0325 109.019 63.9563C109.019 63.6395 108.857 63.4815 108.533 63.4815C108.359 63.4815 108.164 63.5178 107.948 63.5907C107.78 63.6476 107.59 63.5812 107.511 63.4215C107.432 63.2606 107.496 63.0637 107.664 63.0026C107.944 62.901 108.244 62.8503 108.566 62.8503C108.986 62.8503 109.307 62.9413 109.531 63.124C109.755 63.3064 109.866 63.5838 109.866 63.9563V65.6836C109.866 65.8788 109.708 66.0371 109.513 66.0371H109.499ZM109.019 64.8474C109.019 64.7068 108.903 64.5942 108.762 64.599L108.689 64.6015C108.441 64.6089 108.257 64.6537 108.136 64.7356C108.014 64.8174 107.954 64.9423 107.954 65.1099C107.954 65.3501 108.092 65.4703 108.368 65.4703C108.565 65.4703 108.723 65.4133 108.84 65.2997C108.96 65.1861 109.019 65.0354 109.019 64.8474ZM110.533 63.4975C110.422 63.2182 110.627 62.9143 110.928 62.9143C111.111 62.9143 111.273 63.031 111.331 63.2041L111.824 64.6712C111.874 64.8219 111.908 64.9998 111.927 65.2047C111.927 65.2095 111.931 65.2131 111.936 65.2131C111.941 65.2131 111.944 65.2096 111.945 65.2049C111.966 65.0163 112.006 64.8384 112.064 64.6712L112.548 63.2043C112.605 63.0313 112.766 62.9143 112.948 62.9143C113.243 62.9143 113.447 63.2088 113.343 63.4847L112.235 66.4367C112.114 66.7626 111.941 67.0065 111.715 67.1684C111.491 67.3304 111.229 67.4113 110.929 67.4113C110.87 67.4113 110.812 67.4088 110.754 67.4038C110.602 67.3906 110.496 67.255 110.496 67.1019V67.0262C110.496 66.8535 110.659 66.7244 110.831 66.7244C110.982 66.7244 111.114 66.6778 111.226 66.5847C111.339 66.4933 111.428 66.3548 111.491 66.1685C111.524 66.0692 111.52 65.9617 111.481 65.8648L110.533 63.4975Z" fill="#3E3D3D"/>
<path d="M79.4769 70.5888C79.5179 70.4601 79.6375 70.3726 79.7726 70.3726C79.9853 70.3726 80.135 70.5817 80.0665 70.7831L79.2728 73.1154C79.2041 73.3171 79.0147 73.4527 78.8016 73.4527C78.5884 73.4527 78.3989 73.3169 78.3303 73.1151L77.5381 70.7826C77.4697 70.5814 77.6193 70.3726 77.8318 70.3726C77.967 70.3726 78.0867 70.4603 78.1275 70.5893L78.6389 72.2057C78.6713 72.3137 78.7045 72.4401 78.7381 72.5848C78.7495 72.6312 78.8515 72.6301 78.8626 72.5837C78.888 72.4774 78.9211 72.3515 78.9617 72.2057L79.4769 70.5888ZM80.5182 70.4886C80.5182 70.2792 80.6349 70.1748 80.8683 70.1748C81.1017 70.1748 81.2184 70.2792 81.2184 70.4886C81.2184 70.5883 81.1887 70.6663 81.1296 70.7224C81.072 70.7772 80.985 70.8045 80.8683 70.8045C80.6349 70.8045 80.5182 70.6992 80.5182 70.4886ZM81.1887 73.1311C81.1887 73.3087 81.0448 73.4527 80.8671 73.4527C80.6895 73.4527 80.5455 73.3087 80.5455 73.1311V71.4192C80.5455 71.2416 80.6895 71.0976 80.8671 71.0976C81.0448 71.0976 81.1887 71.2416 81.1887 71.4192V73.1311ZM82.8234 73.4948C82.0894 73.4948 81.7223 73.0926 81.7223 72.2879C81.7223 71.8875 81.8221 71.582 82.022 71.3714C82.2215 71.1593 82.5078 71.0531 82.8804 71.0531C83.0591 71.0531 83.2258 71.076 83.3804 71.1219C83.5169 71.1624 83.5753 71.315 83.5245 71.4481C83.4695 71.5922 83.3076 71.6609 83.1598 71.6169C83.1537 71.6151 83.1477 71.6133 83.1417 71.6116C83.0547 71.5849 82.9674 71.5716 82.8804 71.5716C82.5458 71.5716 82.3783 71.8089 82.3783 72.2835C82.3783 72.7441 82.5458 72.9746 82.8804 72.9746C83.004 72.9746 83.1186 72.9586 83.224 72.9262C83.3681 72.88 83.5405 72.9729 83.5405 73.1242V73.1949C83.5405 73.2729 83.5013 73.347 83.4314 73.3815C83.3628 73.4153 83.2937 73.4405 83.224 73.4572C83.1186 73.4824 82.9849 73.4948 82.8234 73.4948ZM85.0823 72.9829C85.1104 72.9829 85.14 72.9814 85.171 72.9783C85.3309 72.9625 85.487 73.0726 85.487 73.2333C85.487 73.3271 85.4323 73.4142 85.3421 73.4398C85.2125 73.4766 85.0639 73.4948 84.8967 73.4948C84.6392 73.4948 84.4516 73.4305 84.3334 73.3012C84.2167 73.1706 84.1585 72.9752 84.1585 72.7153V71.7338C84.1585 71.6488 84.0895 71.5799 84.0045 71.5799C83.9195 71.5799 83.8505 71.5109 83.8505 71.4259V71.406C83.8505 71.3453 83.8822 71.2889 83.9342 71.2574L84.0697 71.1751C84.1572 71.122 84.2243 71.041 84.2601 70.9451L84.3314 70.7539C84.3669 70.6589 84.4575 70.596 84.5589 70.596C84.693 70.596 84.8016 70.7047 84.8016 70.8388V70.8468C84.8016 70.9853 84.9139 71.0976 85.0524 71.0976H85.2206C85.3538 71.0976 85.4618 71.2055 85.4618 71.3387C85.4618 71.4719 85.3538 71.5799 85.2206 71.5799H85.1317C84.9494 71.5799 84.8016 71.7277 84.8016 71.9099V72.7153C84.8016 72.8067 84.8269 72.874 84.8777 72.9176C84.9296 72.9612 84.9979 72.9829 85.0823 72.9829ZM86.4785 72.271C86.4785 72.5041 86.5162 72.6803 86.5922 72.7999C86.6697 72.9191 86.7947 72.9787 86.9675 72.9787C87.1392 72.9787 87.2621 72.9197 87.3366 72.8019C87.4127 72.6824 87.4507 72.5056 87.4507 72.271C87.4507 72.0379 87.4127 71.8629 87.3366 71.7463C87.2609 71.6297 87.1365 71.5716 86.9634 71.5716C86.7918 71.5716 86.6682 71.6297 86.5922 71.7463C86.5162 71.8617 86.4785 72.0364 86.4785 72.271ZM88.1087 72.271C88.1087 72.6542 88.0074 72.9541 87.8049 73.1706C87.6024 73.3869 87.3206 73.4948 86.9592 73.4948C86.733 73.4948 86.5331 73.4459 86.3603 73.3474C86.1872 73.2478 86.0544 73.1051 85.9615 72.9197C85.8689 72.7343 85.8225 72.5181 85.8225 72.271C85.8225 71.886 85.9229 71.587 86.1239 71.3734C86.325 71.1599 86.6077 71.0531 86.972 71.0531C87.1983 71.0531 87.3978 71.1023 87.5709 71.2008C87.7438 71.299 87.8768 71.4402 87.9694 71.6241C88.0624 71.8083 88.1087 72.0236 88.1087 72.271ZM89.9563 71.0531C90.0813 71.0531 90.1659 71.1651 90.1559 71.2897L90.1403 71.484C90.1323 71.5831 90.0346 71.6537 89.9352 71.6537C89.7297 71.6537 89.5697 71.7062 89.4542 71.8115C89.3404 71.9171 89.2834 72.0646 89.2834 72.2541V73.1311C89.2834 73.3087 89.1394 73.4527 88.9618 73.4527C88.7842 73.4527 88.6402 73.3087 88.6402 73.1311V71.3699C88.6402 71.2195 88.7621 71.0976 88.9125 71.0976H88.9236C89.043 71.0976 89.1469 71.1795 89.1747 71.2956L89.218 71.4759C89.2205 71.4863 89.2298 71.4936 89.2404 71.4936C89.2488 71.4936 89.2565 71.489 89.2607 71.4817C89.333 71.3552 89.4291 71.253 89.5492 71.1753C89.6742 71.094 89.8099 71.0531 89.9563 71.0531ZM90.5742 70.4886C90.5742 70.2792 90.6909 70.1748 90.9243 70.1748C91.1577 70.1748 91.2744 70.2792 91.2744 70.4886C91.2744 70.5883 91.2447 70.6663 91.1856 70.7224C91.128 70.7772 91.041 70.8045 90.9243 70.8045C90.6909 70.8045 90.5742 70.6992 90.5742 70.4886ZM91.2447 73.1311C91.2447 73.3087 91.1007 73.4527 90.9231 73.4527C90.7455 73.4527 90.6015 73.3087 90.6015 73.1311V71.4192C90.6015 71.2416 90.7455 71.0976 90.9231 71.0976C91.1007 71.0976 91.2447 71.2416 91.2447 71.4192V73.1311ZM93.5909 73.4527C93.4874 73.4527 93.3945 73.3892 93.357 73.2927L93.2984 73.1419C93.2962 73.1363 93.2909 73.1327 93.2849 73.1327C93.2805 73.1327 93.2763 73.1347 93.2735 73.1382C93.1668 73.2714 93.0563 73.3645 92.9426 73.4171C92.8286 73.469 92.6796 73.4948 92.4955 73.4948C92.2692 73.4948 92.0904 73.4305 91.9598 73.3012C91.8303 73.1718 91.7659 72.9879 91.7659 72.7491C91.7659 72.4991 91.8529 72.3152 92.0272 72.1971C92.203 72.0779 92.4672 72.0118 92.8203 71.9993L93.1263 71.9898C93.1838 71.988 93.2295 71.9408 93.2295 71.8833C93.2295 71.6445 93.1072 71.525 92.8625 71.525C92.7314 71.525 92.5846 71.5525 92.4218 71.6075C92.2947 71.6505 92.1513 71.6004 92.0922 71.48C92.0325 71.3587 92.0801 71.2101 92.2071 71.1639C92.418 71.0872 92.6449 71.0489 92.8877 71.0489C93.2043 71.0489 93.4466 71.1178 93.6155 71.2554C93.7842 71.393 93.8685 71.6024 93.8685 71.8833V73.186C93.8685 73.3333 93.7491 73.4527 93.6017 73.4527H93.5909ZM93.2295 72.5555C93.2295 72.4494 93.1416 72.3645 93.0356 72.3682L92.9807 72.3701C92.7936 72.3757 92.6543 72.4092 92.5629 72.4712C92.4717 72.5329 92.426 72.6269 92.426 72.7533C92.426 72.9345 92.5299 73.025 92.738 73.025C92.8871 73.025 93.0059 72.9823 93.0944 72.8966C93.1844 72.8108 93.2295 72.6972 93.2295 72.5555ZM98.7363 71.5716C99.0609 71.5716 99.3162 71.6523 99.5018 71.8139C99.6889 71.9738 99.7822 72.1936 99.7822 72.4733C99.7822 72.7919 99.6803 73.0419 99.4766 73.2231C99.2741 73.4044 98.9941 73.4948 98.6371 73.4948C98.3316 73.4948 98.0899 73.4519 97.9117 73.3661C97.8673 73.3448 97.8419 73.2984 97.8419 73.2491C97.8419 73.1377 97.969 73.0649 98.0743 73.1013C98.1167 73.1159 98.1616 73.1291 98.2089 73.141C98.355 73.1763 98.4993 73.1938 98.6413 73.1938C98.8886 73.1938 99.0808 73.1353 99.2171 73.0188C99.3548 72.9022 99.4237 72.7337 99.4237 72.5133C99.4237 72.0835 99.1601 71.8685 98.633 71.8685C98.5165 71.8685 98.3657 71.884 98.1809 71.915C98.1271 71.924 98.0717 71.9133 98.0257 71.8839C97.9581 71.8409 97.9199 71.764 97.9263 71.6841L97.9727 71.1062C98.006 70.6919 98.352 70.3726 98.7676 70.3726H99.4039C99.4929 70.3726 99.5651 70.4448 99.5651 70.5339C99.5651 70.6229 99.4929 70.6951 99.4039 70.6951H98.7106C98.4961 70.6951 98.3174 70.8593 98.2994 71.073L98.2941 71.1353C98.2736 71.3779 98.4929 71.5716 98.7363 71.5716ZM100.354 73.2294C100.354 73.1353 100.375 73.0644 100.417 73.0167C100.461 72.9675 100.522 72.9428 100.603 72.9428C100.684 72.9428 100.748 72.9675 100.793 73.0167C100.839 73.0644 100.862 73.1353 100.862 73.2294C100.862 73.3207 100.839 73.391 100.793 73.4403C100.746 73.4892 100.683 73.5138 100.603 73.5138C100.531 73.5138 100.471 73.4922 100.424 73.4486C100.377 73.4038 100.354 73.3305 100.354 73.2294ZM100.354 71.3693C100.354 71.1797 100.437 71.0848 100.603 71.0848C100.776 71.0848 100.862 71.1797 100.862 71.3693C100.862 71.4606 100.839 71.5306 100.793 71.5799C100.746 71.6291 100.683 71.6537 100.603 71.6537C100.531 71.6537 100.471 71.6318 100.424 71.5885C100.377 71.5434 100.354 71.4704 100.354 71.3693ZM103.439 71.9085C103.439 72.441 103.355 72.8384 103.186 73.1009C103.019 73.3637 102.762 73.4948 102.417 73.4948C102.085 73.4948 101.832 73.3608 101.659 73.0926C101.486 72.823 101.4 72.4282 101.4 71.9085C101.4 71.372 101.484 70.9739 101.651 70.7141C101.818 70.4542 102.073 70.3243 102.417 70.3243C102.751 70.3243 103.005 70.4599 103.178 70.731C103.352 71.0021 103.439 71.3945 103.439 71.9085ZM101.754 71.9085C101.754 72.3567 101.807 72.6833 101.912 72.8883C102.018 73.0917 102.186 73.1938 102.417 73.1938C102.65 73.1938 102.819 73.0906 102.923 72.8841C103.028 72.6762 103.081 72.3511 103.081 71.9085C103.081 71.4663 103.028 71.1424 102.923 70.9374C102.819 70.731 102.65 70.6277 102.417 70.6277C102.186 70.6277 102.018 70.7295 101.912 70.9333C101.807 71.1353 101.754 71.4606 101.754 71.9085ZM105.911 71.9085C105.911 72.441 105.827 72.8384 105.658 73.1009C105.491 73.3637 105.234 73.4948 104.888 73.4948C104.556 73.4948 104.304 73.3608 104.131 73.0926C103.958 72.823 103.872 72.4282 103.872 71.9085C103.872 71.372 103.955 70.9739 104.123 70.7141C104.29 70.4542 104.545 70.3243 104.888 70.3243C105.223 70.3243 105.477 70.4599 105.65 70.731C105.824 71.0021 105.911 71.3945 105.911 71.9085ZM104.226 71.9085C104.226 72.3567 104.279 72.6833 104.384 72.8883C104.49 73.0917 104.658 73.1938 104.888 73.1938C105.122 73.1938 105.29 73.0906 105.394 72.8841C105.5 72.6762 105.553 72.3511 105.553 71.9085C105.553 71.4663 105.5 71.1424 105.394 70.9374C105.29 70.731 105.122 70.6277 104.888 70.6277C104.658 70.6277 104.49 70.7295 104.384 70.9333C104.279 71.1353 104.226 71.4606 104.226 71.9085ZM106.466 72.4564C106.377 72.4564 106.306 72.3847 106.306 72.2962C106.306 72.2077 106.377 72.136 106.466 72.136H107.181C107.269 72.136 107.341 72.2077 107.341 72.2962C107.341 72.3847 107.269 72.4564 107.181 72.4564H106.466ZM108.396 73.4527C108.268 73.4527 108.183 73.3198 108.237 73.2035L108.968 71.6258C109.169 71.1915 108.852 70.6951 108.374 70.6951H107.88C107.791 70.6951 107.719 70.6229 107.719 70.5339C107.719 70.4448 107.791 70.3726 107.88 70.3726H109.54C109.667 70.3726 109.771 70.476 109.771 70.6034C109.771 70.6361 109.764 70.6684 109.75 70.6981L108.556 73.3493C108.528 73.4123 108.465 73.4527 108.396 73.4527ZM110.313 73.2294C110.313 73.1353 110.334 73.0644 110.376 73.0167C110.42 72.9675 110.482 72.9428 110.562 72.9428C110.643 72.9428 110.706 72.9675 110.752 73.0167C110.798 73.0644 110.821 73.1353 110.821 73.2294C110.821 73.3207 110.798 73.391 110.752 73.4403C110.705 73.4892 110.642 73.5138 110.562 73.5138C110.49 73.5138 110.43 73.4922 110.382 73.4486C110.336 73.4038 110.313 73.3305 110.313 73.2294ZM110.313 71.3693C110.313 71.1797 110.396 71.0848 110.562 71.0848C110.735 71.0848 110.821 71.1797 110.821 71.3693C110.821 71.4606 110.798 71.5306 110.752 71.5799C110.705 71.6291 110.642 71.6537 110.562 71.6537C110.49 71.6537 110.43 71.6318 110.382 71.5885C110.336 71.5434 110.313 71.4704 110.313 71.3693ZM113.398 71.9085C113.398 72.441 113.314 72.8384 113.145 73.1009C112.978 73.3637 112.721 73.4948 112.376 73.4948C112.044 73.4948 111.791 73.3608 111.618 73.0926C111.445 72.823 111.359 72.4282 111.359 71.9085C111.359 71.372 111.443 70.9739 111.61 70.7141C111.777 70.4542 112.032 70.3243 112.376 70.3243C112.71 70.3243 112.964 70.4599 113.137 70.731C113.311 71.0021 113.398 71.3945 113.398 71.9085ZM111.713 71.9085C111.713 72.3567 111.766 72.6833 111.871 72.8883C111.977 73.0917 112.145 73.1938 112.376 73.1938C112.609 73.1938 112.778 73.0906 112.882 72.8841C112.987 72.6762 113.04 72.3511 113.04 71.9085C113.04 71.4663 112.987 71.1424 112.882 70.9374C112.778 70.731 112.609 70.6277 112.376 70.6277C112.145 70.6277 111.977 70.7295 111.871 70.9333C111.766 71.1353 111.713 71.4606 111.713 71.9085ZM115.87 71.9085C115.87 72.441 115.786 72.8384 115.617 73.1009C115.45 73.3637 115.193 73.4948 114.847 73.4948C114.516 73.4948 114.263 73.3608 114.09 73.0926C113.917 72.823 113.831 72.4282 113.831 71.9085C113.831 71.372 113.914 70.9739 114.082 70.7141C114.249 70.4542 114.504 70.3243 114.847 70.3243C115.182 70.3243 115.436 70.4599 115.609 70.731C115.783 71.0021 115.87 71.3945 115.87 71.9085ZM114.185 71.9085C114.185 72.3567 114.238 72.6833 114.343 72.8883C114.449 73.0917 114.617 73.1938 114.847 73.1938C115.081 73.1938 115.249 73.0906 115.354 72.8841C115.459 72.6762 115.512 72.3511 115.512 71.9085C115.512 71.4663 115.459 71.1424 115.354 70.9374C115.249 70.731 115.081 70.6277 114.847 70.6277C114.617 70.6277 114.449 70.7295 114.343 70.9333C114.238 71.1353 114.185 71.4606 114.185 71.9085ZM118.466 71.2702C118.466 71.582 118.36 71.8222 118.146 71.9907C117.933 72.158 117.629 72.2413 117.233 72.2413C117.032 72.2413 116.87 72.4038 116.87 72.6042V73.2735C116.87 73.3725 116.79 73.4527 116.691 73.4527C116.592 73.4527 116.511 73.3725 116.511 73.2735V71.172C116.511 70.7305 116.869 70.3726 117.311 70.3726C118.081 70.3726 118.466 70.6719 118.466 71.2702ZM116.87 71.611C116.87 71.7892 117.014 71.9337 117.193 71.9337C117.51 71.9337 117.74 71.8827 117.882 71.7801C118.024 71.6775 118.095 71.5131 118.095 71.2871C118.095 71.0833 118.028 70.9318 117.895 70.8321C117.761 70.7324 117.553 70.6823 117.271 70.6823C117.049 70.6823 116.87 70.8618 116.87 71.0832V71.611ZM120.623 73.4527C120.536 73.4527 120.458 73.399 120.427 73.3176L119.435 70.7285C119.433 70.7248 119.43 70.7224 119.426 70.7224C119.42 70.7224 119.416 70.7271 119.416 70.7327C119.435 70.947 119.445 71.2005 119.445 71.4936V73.2872C119.445 73.3786 119.371 73.4527 119.28 73.4527C119.188 73.4527 119.114 73.3786 119.114 73.2872V70.6926C119.114 70.5159 119.257 70.3726 119.434 70.3726C119.566 70.3726 119.685 70.4542 119.733 70.5779L120.627 72.9056C120.629 72.9103 120.634 72.9135 120.639 72.9135C120.644 72.9135 120.648 72.9103 120.65 72.9056L121.553 70.5757C121.601 70.4533 121.719 70.3726 121.85 70.3726C122.025 70.3726 122.168 70.515 122.168 70.6906V73.2735C122.168 73.3725 122.088 73.4527 121.989 73.4527C121.89 73.4527 121.809 73.3725 121.809 73.2735V71.4684C121.809 71.2438 121.819 70.9999 121.838 70.7371C121.838 70.7316 121.834 70.7268 121.828 70.7268C121.825 70.7268 121.821 70.7292 121.82 70.733L120.819 73.3182C120.788 73.3993 120.71 73.4527 120.623 73.4527Z" fill="#5C5C5C"/>
<path d="M71.1993 59.5052V76.4104" stroke="#F1B252" stroke-width="3.95606" stroke-linecap="round"/>
<path d="M224.857 72.1812C226.965 72.1812 228.675 70.4738 228.675 68.3676C228.675 66.2613 226.965 64.5539 224.857 64.5539C222.748 64.5539 221.039 66.2613 221.039 68.3676C221.039 70.4738 222.748 72.1812 224.857 72.1812Z" fill="#FEFEFE" stroke="#C5C5C5" stroke-width="0.989016"/>
<path d="M229.318 94.5586H69.0457C66.4505 94.5586 64.3467 96.6601 64.3467 99.2523V117.305C64.3467 119.897 66.4505 121.999 69.0457 121.999H229.318C231.914 121.999 234.017 119.897 234.017 117.305V99.2523C234.017 96.6601 231.914 94.5586 229.318 94.5586Z" fill="#C0B6FF" fill-opacity="0.3"/>
<path d="M79.0596 101.754C79.114 101.583 79.2725 101.467 79.4515 101.467C79.7334 101.467 79.9317 101.744 79.8409 102.011L78.7885 105.104C78.6975 105.371 78.4464 105.551 78.1639 105.551C77.8813 105.551 77.63 105.371 77.5391 105.103L76.4888 102.011C76.3982 101.744 76.5965 101.467 76.8782 101.467C77.0576 101.467 77.2163 101.584 77.2704 101.755L77.9483 103.897C77.9913 104.041 78.035 104.208 78.0798 104.4C78.0951 104.462 78.2299 104.461 78.2448 104.399C78.2785 104.258 78.3223 104.091 78.3762 103.897L79.0596 101.754ZM82.6892 105.551C82.552 105.551 82.4288 105.467 82.3791 105.339L82.3015 105.139C82.2986 105.131 82.2915 105.126 82.2835 105.126C82.2776 105.126 82.272 105.129 82.2683 105.134C82.1267 105.31 81.9805 105.434 81.8296 105.503C81.6785 105.572 81.481 105.607 81.2369 105.607C80.9367 105.607 80.7001 105.521 80.5266 105.35C80.355 105.179 80.2692 104.934 80.2692 104.618C80.2692 104.287 80.385 104.043 80.616 103.886C80.8491 103.728 81.1995 103.64 81.6675 103.624L82.0733 103.611C82.1495 103.609 82.21 103.546 82.21 103.47C82.21 103.153 82.0476 102.995 81.7233 102.995C81.5498 102.995 81.3551 103.032 81.1392 103.104C80.9706 103.161 80.7805 103.095 80.7021 102.935C80.6232 102.774 80.6863 102.577 80.8547 102.516C81.1343 102.415 81.4351 102.364 81.7569 102.364C82.1765 102.364 82.4981 102.455 82.7217 102.637C82.9453 102.82 83.0572 103.097 83.0572 103.47V105.197C83.0572 105.392 82.8989 105.551 82.7036 105.551H82.6892ZM82.21 104.361C82.21 104.221 82.0935 104.108 81.953 104.113L81.8798 104.115C81.6319 104.123 81.4475 104.167 81.3263 104.249C81.2052 104.331 81.1446 104.456 81.1446 104.624C81.1446 104.864 81.2824 104.984 81.5582 104.984C81.756 104.984 81.9134 104.927 82.031 104.813C82.1503 104.7 82.21 104.549 82.21 104.361ZM85.2077 105.607C84.2343 105.607 83.7479 105.073 83.7479 104.006C83.7479 103.476 83.8803 103.071 84.1449 102.791C84.4098 102.51 84.789 102.369 85.2831 102.369C85.5202 102.369 85.7413 102.4 85.9463 102.461C86.1273 102.514 86.2047 102.716 86.1374 102.893C86.0643 103.084 85.8493 103.175 85.6531 103.117C85.6453 103.114 85.6374 103.112 85.6296 103.11C85.5141 103.074 85.3986 103.057 85.2831 103.057C84.8395 103.057 84.6177 103.371 84.6177 104.001C84.6177 104.611 84.8395 104.917 85.2831 104.917C85.447 104.917 85.599 104.895 85.7389 104.853C85.9299 104.791 86.1582 104.914 86.1582 105.115V105.209C86.1582 105.312 86.1064 105.411 86.0139 105.456C85.923 105.501 85.8314 105.535 85.7389 105.556C85.599 105.59 85.4218 105.607 85.2077 105.607ZM88.1548 105.607C87.1818 105.607 86.6951 105.073 86.6951 104.006C86.6951 103.476 86.8275 103.071 87.0921 102.791C87.357 102.51 87.7362 102.369 88.2303 102.369C88.4675 102.369 88.6886 102.4 88.8937 102.461C89.0745 102.514 89.152 102.716 89.0847 102.893C89.0118 103.084 88.7967 103.175 88.6005 103.117C88.5927 103.114 88.5849 103.112 88.5771 103.11C88.4616 103.074 88.3458 103.057 88.2303 103.057C87.7866 103.057 87.5648 103.371 87.5648 104.001C87.5648 104.611 87.7866 104.917 88.2303 104.917C88.3945 104.917 88.5462 104.895 88.6861 104.853C88.8772 104.791 89.1057 104.914 89.1057 105.115V105.209C89.1057 105.312 89.0538 105.411 88.9612 105.456C88.8702 105.501 88.7785 105.535 88.6861 105.556C88.5462 105.59 88.3692 105.607 88.1548 105.607ZM92.2549 105.551C92.1319 105.551 92.0238 105.469 91.9899 105.351L91.9397 105.176C91.9355 105.162 91.922 105.152 91.9067 105.152C91.8949 105.152 91.8839 105.158 91.8774 105.168C91.7869 105.305 91.6606 105.412 91.499 105.489C91.3313 105.568 91.1403 105.607 90.9259 105.607C90.5586 105.607 90.2818 105.509 90.0954 105.314C89.9089 105.116 89.8159 104.833 89.8159 104.464V102.854C89.8159 102.619 90.0069 102.428 90.2424 102.428C90.4779 102.428 90.6688 102.619 90.6688 102.854V104.252C90.6688 104.477 90.7088 104.647 90.789 104.76C90.8692 104.872 90.9969 104.928 91.1721 104.928C91.4105 104.928 91.5831 104.849 91.6894 104.691C91.7957 104.53 91.8488 104.266 91.8488 103.897V102.854C91.8488 102.619 92.0397 102.428 92.2752 102.428C92.5107 102.428 92.7016 102.619 92.7016 102.854V105.178C92.7016 105.384 92.5345 105.551 92.3284 105.551H92.2549ZM96.3953 105.124C96.3953 105.36 96.2044 105.551 95.9689 105.551C95.7334 105.551 95.5425 105.36 95.5425 105.124V103.727C95.5425 103.501 95.5045 103.333 95.4279 103.221C95.3533 103.108 95.2349 103.051 95.0727 103.051C94.8548 103.051 94.6962 103.131 94.5973 103.291C94.4987 103.451 94.4492 103.715 94.4492 104.082V105.124C94.4492 105.36 94.2582 105.551 94.0227 105.551C93.7872 105.551 93.5963 105.36 93.5963 105.124V102.8C93.5963 102.594 93.7627 102.428 93.9679 102.428H94.04C94.163 102.428 94.2712 102.51 94.3051 102.628L94.355 102.802C94.3594 102.817 94.3734 102.828 94.3894 102.828C94.4021 102.828 94.4139 102.821 94.4205 102.81C94.504 102.675 94.6217 102.569 94.7737 102.492C94.932 102.411 95.1137 102.369 95.3189 102.369C95.7696 102.369 96.0801 102.511 96.2507 102.794C96.2629 102.815 96.2844 102.828 96.308 102.828C96.331 102.828 96.352 102.815 96.3644 102.796C96.4473 102.666 96.5641 102.564 96.7142 102.489C96.8782 102.409 97.0629 102.369 97.2677 102.369C97.622 102.369 97.8895 102.461 98.0704 102.643C98.253 102.824 98.3445 103.114 98.3445 103.515V105.123C98.3445 105.359 98.1529 105.551 97.9166 105.551C97.6802 105.551 97.4887 105.359 97.4887 105.123V103.727C97.4887 103.501 97.4507 103.333 97.374 103.221C97.2995 103.108 97.1813 103.051 97.0189 103.051C96.8102 103.051 96.6537 103.125 96.5491 103.275C96.4467 103.423 96.3953 103.66 96.3953 103.984V105.124ZM104.169 103.47C104.169 104.142 103.977 104.657 103.593 105.015C103.211 105.372 102.658 105.551 101.935 105.551C101.296 105.551 100.777 105.033 100.777 104.393V102.751C100.777 102.042 101.352 101.467 102.061 101.467C102.728 101.467 103.246 101.643 103.615 101.995C103.985 102.347 104.169 102.839 104.169 103.47ZM103.269 103.492C103.269 102.615 102.881 102.177 102.106 102.177C101.851 102.177 101.644 102.383 101.644 102.638V104.464C101.644 104.67 101.811 104.836 102.016 104.836C102.851 104.836 103.269 104.388 103.269 103.492ZM107.162 105.551C107.025 105.551 106.902 105.467 106.852 105.339L106.774 105.139C106.772 105.131 106.764 105.126 106.757 105.126C106.751 105.126 106.745 105.129 106.742 105.134C106.6 105.31 106.453 105.434 106.303 105.503C106.152 105.572 105.954 105.607 105.71 105.607C105.41 105.607 105.173 105.521 105 105.35C104.828 105.179 104.742 104.934 104.742 104.618C104.742 104.287 104.858 104.043 105.089 103.886C105.322 103.728 105.672 103.64 106.14 103.624L106.546 103.611C106.622 103.609 106.683 103.546 106.683 103.47C106.683 103.153 106.521 102.995 106.197 102.995C106.023 102.995 105.828 103.032 105.612 103.104C105.443 103.161 105.253 103.095 105.175 102.935C105.096 102.774 105.159 102.577 105.328 102.516C105.607 102.415 105.908 102.364 106.23 102.364C106.649 102.364 106.971 102.455 107.195 102.637C107.418 102.82 107.53 103.097 107.53 103.47V105.197C107.53 105.393 107.372 105.551 107.177 105.551H107.162ZM106.683 104.361C106.683 104.221 106.566 104.108 106.426 104.113L106.353 104.115C106.105 104.123 105.92 104.167 105.799 104.249C105.678 104.331 105.617 104.456 105.617 104.624C105.617 104.864 105.756 104.984 106.031 104.984C106.229 104.984 106.387 104.927 106.504 104.813C106.623 104.7 106.683 104.549 106.683 104.361ZM108.197 103.011C108.085 102.732 108.291 102.428 108.592 102.428C108.774 102.428 108.937 102.545 108.995 102.718L109.488 104.185C109.537 104.336 109.572 104.513 109.59 104.718C109.591 104.723 109.595 104.727 109.6 104.727C109.604 104.727 109.608 104.723 109.609 104.719C109.629 104.53 109.669 104.352 109.728 104.185L110.211 102.718C110.268 102.545 110.43 102.428 110.612 102.428C110.907 102.428 111.111 102.722 111.007 102.998L109.899 105.95C109.777 106.276 109.604 106.52 109.379 106.682C109.155 106.844 108.893 106.925 108.593 106.925C108.534 106.925 108.476 106.923 108.418 106.918C108.265 106.904 108.159 106.769 108.159 106.616V106.54C108.159 106.367 108.322 106.238 108.495 106.238C108.646 106.238 108.777 106.192 108.889 106.098C109.003 106.007 109.091 105.868 109.155 105.682C109.187 105.583 109.184 105.475 109.145 105.379L108.197 103.011ZM76.321 113.826C76.2472 113.826 76.1797 113.821 76.1188 113.811C76.0305 113.796 75.9751 113.714 75.9751 113.625C75.9751 113.485 76.1065 113.387 76.2461 113.393C76.2587 113.394 76.271 113.394 76.283 113.394C76.5586 113.394 76.6964 113.22 76.6964 112.872V110.139C76.6964 110 76.8097 109.886 76.9495 109.886C77.0893 109.886 77.2027 110 77.2027 110.139V112.855C77.2027 113.169 77.1275 113.409 76.977 113.575C76.8279 113.742 76.6094 113.826 76.321 113.826ZM78.968 113.008C78.6051 113.008 78.3213 112.903 78.1158 112.692C77.9121 112.48 77.8099 112.189 77.8099 111.818C77.8099 111.437 77.9049 111.138 78.0947 110.921C78.2844 110.703 78.5454 110.594 78.8771 110.594C79.1851 110.594 79.4283 110.688 79.607 110.874C79.7855 111.061 79.8749 111.318 79.8749 111.645C79.8749 111.793 79.7551 111.913 79.6073 111.913H78.8865C78.5768 111.913 78.2914 112.21 78.5039 112.435C78.6191 112.556 78.7815 112.617 78.9912 112.617C79.1289 112.617 79.2569 112.604 79.3751 112.579C79.4131 112.57 79.452 112.56 79.4917 112.548C79.6203 112.51 79.7588 112.599 79.7588 112.733C79.7588 112.805 79.7179 112.871 79.6513 112.897C79.5655 112.931 79.479 112.956 79.3917 112.973C79.2682 112.996 79.1269 113.008 78.968 113.008ZM78.8771 110.969C78.7197 110.969 78.5933 111.019 78.4976 111.119C78.3225 111.305 78.5499 111.555 78.8054 111.555H78.9193C79.1769 111.555 79.422 111.309 79.2483 111.119C79.1583 111.019 79.0348 110.969 78.8771 110.969ZM82.49 112.717C82.49 112.855 82.3786 112.966 82.2412 112.966C82.1038 112.966 81.9924 112.855 81.9924 112.717V111.534C81.9924 111.354 81.9558 111.22 81.8825 111.131C81.8109 111.043 81.6963 110.998 81.5389 110.998C81.3293 110.998 81.1761 111.06 81.079 111.184C80.9822 111.308 80.9335 111.515 80.9335 111.806V112.718C80.9335 112.855 80.8225 112.966 80.6857 112.966C80.5488 112.966 80.4379 112.855 80.4379 112.718V110.852C80.4379 110.733 80.5345 110.636 80.6537 110.636H80.6693C80.7609 110.636 80.8404 110.7 80.8607 110.789L80.8921 110.927C80.8941 110.936 80.9017 110.942 80.9106 110.942C80.9171 110.942 80.9231 110.938 80.9266 110.933C80.9964 110.826 81.0946 110.744 81.2203 110.685C81.3498 110.624 81.4932 110.594 81.6506 110.594C82.2103 110.594 82.49 110.879 82.49 111.447V112.717ZM85.2317 112.717C85.2317 112.855 85.1203 112.966 84.9829 112.966C84.8455 112.966 84.734 112.855 84.734 112.717V111.534C84.734 111.354 84.6975 111.22 84.6245 111.131C84.5526 111.043 84.438 110.998 84.2806 110.998C84.0713 110.998 83.9177 111.06 83.8209 111.184C83.7238 111.308 83.6754 111.515 83.6754 111.806V112.718C83.6754 112.855 83.5645 112.966 83.4276 112.966C83.2908 112.966 83.1798 112.855 83.1798 112.718V110.852C83.1798 110.733 83.2764 110.636 83.3956 110.636H83.411C83.5026 110.636 83.5821 110.7 83.6025 110.789L83.6341 110.927C83.6361 110.936 83.6436 110.942 83.6524 110.942C83.6588 110.942 83.6647 110.939 83.6683 110.933C83.7383 110.826 83.8362 110.744 83.9623 110.685C84.0915 110.624 84.2349 110.594 84.3923 110.594C84.952 110.594 85.2317 110.879 85.2317 111.447V112.717ZM85.7037 110.976C85.6384 110.813 85.7581 110.636 85.9332 110.636C86.0375 110.636 86.1306 110.702 86.1659 110.8L86.5816 111.957C86.652 112.142 86.6994 112.316 86.7238 112.48C86.7245 112.485 86.7287 112.488 86.7336 112.488C86.7384 112.488 86.7425 112.485 86.7434 112.48C86.7561 112.404 86.7788 112.314 86.8115 112.208C86.8433 112.104 87.0025 111.636 87.2895 110.803C87.324 110.703 87.4181 110.636 87.5239 110.636C87.6974 110.636 87.8173 110.81 87.756 110.972L86.8854 113.276C86.704 113.761 86.4017 114.003 85.9785 114.003C85.9209 114.003 85.864 114 85.808 113.993C85.7194 113.982 85.6578 113.904 85.6578 113.815C85.6578 113.692 85.7728 113.599 85.8955 113.6C85.9012 113.6 85.9071 113.6 85.9129 113.6C86.152 113.6 86.32 113.462 86.4171 113.185C86.4726 113.045 86.4721 112.888 86.4157 112.748L85.7037 110.976ZM91.635 112.795C91.635 112.89 91.5585 112.966 91.4641 112.966C91.3697 112.966 91.2932 112.89 91.2932 112.795V110.771C91.2932 110.638 91.2962 110.511 91.3022 110.388C91.3045 110.341 91.2462 110.314 91.211 110.346C91.1797 110.373 91.052 110.478 90.8285 110.66C90.7631 110.713 90.6667 110.702 90.6152 110.635C90.5646 110.569 90.5767 110.475 90.6423 110.425L91.2801 109.932C91.3186 109.902 91.366 109.886 91.4147 109.886C91.5364 109.886 91.635 109.985 91.635 110.106V112.795ZM92.9193 112.743C92.9193 112.649 92.9404 112.578 92.9825 112.53C93.0262 112.481 93.088 112.456 93.1681 112.456C93.2498 112.456 93.313 112.481 93.3579 112.53C93.4045 112.578 93.4277 112.649 93.4277 112.743C93.4277 112.834 93.4045 112.905 93.3579 112.954C93.3116 113.003 93.2483 113.027 93.1681 113.027C93.0966 113.027 93.0366 113.006 92.9891 112.962C92.9424 112.917 92.9193 112.844 92.9193 112.743ZM92.9193 110.883C92.9193 110.693 93.0021 110.598 93.1681 110.598C93.3413 110.598 93.4277 110.693 93.4277 110.883C93.4277 110.974 93.4045 111.044 93.3579 111.093C93.3116 111.143 93.2483 111.167 93.1681 111.167C93.0966 111.167 93.0366 111.145 92.9891 111.102C92.9424 111.057 92.9193 110.984 92.9193 110.883ZM96.0048 111.422C96.0048 111.954 95.9205 112.352 95.7518 112.614C95.5844 112.877 95.3278 113.008 94.9819 113.008C94.6502 113.008 94.3978 112.874 94.225 112.606C94.0518 112.337 93.9654 111.942 93.9654 111.422C93.9654 110.885 94.0492 110.487 94.2164 110.228C94.3838 109.968 94.6389 109.838 94.9819 109.838C95.3165 109.838 95.5704 109.973 95.7432 110.244C95.9178 110.516 96.0048 110.908 96.0048 111.422ZM94.3197 111.422C94.3197 111.87 94.3725 112.197 94.478 112.402C94.5834 112.605 94.7514 112.707 94.9819 112.707C95.2153 112.707 95.3842 112.604 95.4882 112.398C95.5936 112.19 95.6464 111.865 95.6464 111.422C95.6464 110.98 95.5936 110.656 95.4882 110.451C95.3842 110.244 95.2153 110.141 94.9819 110.141C94.7514 110.141 94.5834 110.243 94.478 110.447C94.3725 110.649 94.3197 110.974 94.3197 111.422ZM98.4766 111.422C98.4766 111.954 98.3923 112.352 98.2236 112.614C98.0564 112.877 97.7996 113.008 97.4539 113.008C97.1219 113.008 96.8695 112.874 96.6967 112.606C96.5236 112.337 96.4372 111.942 96.4372 111.422C96.4372 110.885 96.5209 110.487 96.6881 110.228C96.8556 109.968 97.1106 109.838 97.4539 109.838C97.7886 109.838 98.0422 109.973 98.2153 110.244C98.3896 110.516 98.4766 110.908 98.4766 111.422ZM96.7914 111.422C96.7914 111.87 96.8443 112.197 96.9497 112.402C97.0551 112.605 97.2232 112.707 97.4539 112.707C97.6873 112.707 97.856 112.604 97.9599 112.398C98.0653 112.19 98.1182 111.865 98.1182 111.422C98.1182 110.98 98.0653 110.656 97.9599 110.451C97.856 110.244 97.6873 110.141 97.4539 110.141C97.2232 110.141 97.0551 110.243 96.9497 110.447C96.8443 110.649 96.7914 110.974 96.7914 111.422ZM102.195 110.784C102.195 111.095 102.088 111.336 101.875 111.504C101.662 111.672 101.358 111.755 100.961 111.755C100.761 111.755 100.599 111.917 100.599 112.117V112.787C100.599 112.886 100.518 112.966 100.419 112.966C100.32 112.966 100.24 112.886 100.24 112.787V110.686C100.24 110.244 100.598 109.886 101.039 109.886C101.81 109.886 102.195 110.185 102.195 110.784ZM100.599 111.125C100.599 111.303 100.743 111.447 100.921 111.447C101.239 111.447 101.469 111.396 101.611 111.294C101.753 111.191 101.824 111.027 101.824 110.801C101.824 110.597 101.757 110.445 101.623 110.346C101.49 110.246 101.282 110.196 100.999 110.196C100.778 110.196 100.599 110.375 100.599 110.596V111.125ZM104.352 112.966C104.265 112.966 104.186 112.913 104.155 112.831L103.163 110.242C103.162 110.238 103.158 110.236 103.154 110.236C103.149 110.236 103.144 110.241 103.145 110.246C103.164 110.461 103.174 110.714 103.174 111.007V112.801C103.174 112.892 103.1 112.966 103.008 112.966C102.917 112.966 102.843 112.892 102.843 112.801V110.206C102.843 110.029 102.986 109.886 103.163 109.886C103.295 109.886 103.414 109.968 103.461 110.091L104.356 112.419C104.358 112.424 104.362 112.427 104.367 112.427C104.372 112.427 104.377 112.424 104.379 112.419L105.282 110.089C105.329 109.967 105.447 109.886 105.578 109.886C105.754 109.886 105.896 110.029 105.896 110.204V112.787C105.896 112.886 105.816 112.966 105.717 112.966C105.618 112.966 105.538 112.886 105.538 112.787V110.982C105.538 110.757 105.547 110.513 105.567 110.251C105.567 110.245 105.563 110.24 105.557 110.24C105.553 110.24 105.549 110.243 105.548 110.246L104.548 112.832C104.517 112.913 104.439 112.966 104.352 112.966Z" fill="#3E3D3D"/>
<path d="M70.1049 99.9873V116.892" stroke="#C0B6FF" stroke-width="3.95606" stroke-linecap="round"/>
<path d="M224.263 112.828C226.461 112.828 228.243 111.048 228.243 108.852C228.243 106.656 226.461 104.876 224.263 104.876C222.065 104.876 220.283 106.656 220.283 108.852C220.283 111.048 222.065 112.828 224.263 112.828Z" fill="#FEFEFE" stroke="#C5C5C5" stroke-width="0.989016"/>
<path d="M139.228 157.647C139.051 157.647 138.893 157.534 138.835 157.367L137.751 154.25C137.749 154.245 137.745 154.241 137.739 154.241C137.732 154.241 137.726 154.248 137.727 154.255C137.758 154.756 137.774 155.225 137.774 155.664V157.344C137.774 157.511 137.638 157.647 137.471 157.647C137.303 157.647 137.168 157.511 137.168 157.344V154.12C137.168 153.816 137.414 153.569 137.718 153.569C137.952 153.569 138.16 153.717 138.237 153.938L139.239 156.805C139.241 156.81 139.245 156.813 139.25 156.813C139.255 156.813 139.26 156.81 139.262 156.805L140.294 153.936C140.373 153.716 140.582 153.569 140.815 153.569C141.121 153.569 141.37 153.817 141.37 154.123V157.325C141.37 157.503 141.226 157.647 141.048 157.647C140.871 157.647 140.727 157.503 140.727 157.325V155.63C140.727 155.428 140.732 155.164 140.741 154.838C140.752 154.532 140.761 154.34 140.768 154.261C140.768 154.253 140.763 154.247 140.755 154.247C140.75 154.247 140.746 154.25 140.744 154.255L139.62 157.371C139.561 157.537 139.404 157.647 139.228 157.647ZM145.113 156.099C145.113 156.603 144.984 156.996 144.725 157.279C144.466 157.561 144.106 157.702 143.645 157.702C143.356 157.702 143.101 157.637 142.88 157.507C142.658 157.377 142.488 157.19 142.369 156.947C142.25 156.703 142.19 156.42 142.19 156.099C142.19 155.599 142.319 155.208 142.575 154.928C142.832 154.647 143.194 154.506 143.662 154.506C144.108 154.506 144.462 154.65 144.722 154.939C144.983 155.225 145.113 155.612 145.113 156.099ZM142.866 156.099C142.866 156.811 143.129 157.167 143.656 157.167C144.177 157.167 144.438 156.811 144.438 156.099C144.438 155.394 144.175 155.042 143.65 155.042C143.375 155.042 143.175 155.133 143.05 155.315C142.927 155.497 142.866 155.759 142.866 156.099ZM147.436 154.506C147.456 154.506 147.475 154.507 147.494 154.507C147.648 154.51 147.751 154.65 147.734 154.804L147.729 154.854C147.713 155.008 147.564 155.112 147.408 155.112C147.146 155.112 146.933 155.197 146.769 155.368C146.607 155.539 146.526 155.761 146.526 156.035V157.319C146.526 157.5 146.379 157.647 146.198 157.647C146.017 157.647 145.87 157.5 145.87 157.319V154.839C145.87 154.686 145.994 154.562 146.147 154.562C146.283 154.562 146.399 154.661 146.421 154.796L146.467 155.086C146.469 155.098 146.479 155.106 146.49 155.106C146.498 155.106 146.506 155.102 146.51 155.094C146.612 154.916 146.743 154.774 146.903 154.668C147.069 154.56 147.246 154.506 147.436 154.506ZM149.686 157.702C149.206 157.702 148.83 157.563 148.559 157.284C148.289 157.003 148.154 156.618 148.154 156.127C148.154 155.623 148.279 155.227 148.531 154.939C148.782 154.65 149.127 154.506 149.566 154.506C149.974 154.506 150.296 154.63 150.532 154.877C150.769 155.124 150.887 155.465 150.887 155.898C150.887 156.094 150.728 156.252 150.533 156.252H149.579C149.169 156.252 148.791 156.645 149.072 156.944C149.225 157.104 149.44 157.184 149.717 157.184C149.9 157.184 150.069 157.167 150.225 157.133C150.276 157.122 150.327 157.109 150.38 157.093C150.55 157.042 150.733 157.161 150.733 157.338C150.733 157.433 150.679 157.52 150.591 157.555C150.478 157.599 150.363 157.633 150.248 157.655C150.084 157.687 149.897 157.702 149.686 157.702ZM149.566 155.003C149.358 155.003 149.19 155.069 149.064 155.201C148.832 155.446 149.133 155.778 149.471 155.778H149.622C149.963 155.778 150.288 155.452 150.058 155.201C149.938 155.069 149.775 155.003 149.566 155.003Z" fill="#7751E8"/>
<path d="M52 147.87H243" stroke="#E8E8E8" stroke-width="1.08836"/>
<path d="M206.134 41.1956C205.829 41.1956 205.591 41.303 205.416 41.5177C205.244 41.7328 205.158 42.0294 205.158 42.4076C205.158 42.8036 205.241 43.1031 205.407 43.3063C205.573 43.5095 205.817 43.611 206.134 43.611C206.271 43.611 206.405 43.5979 206.532 43.5712C206.568 43.5634 206.604 43.555 206.641 43.546C206.786 43.5106 206.93 43.6167 206.93 43.7656C206.93 43.8573 206.874 43.9406 206.786 43.9664C206.57 44.0299 206.33 44.0615 206.069 44.0615C205.597 44.0615 205.232 43.9188 204.979 43.6332C204.727 43.3461 204.599 42.9362 204.599 42.4031C204.599 42.0677 204.662 41.774 204.783 41.5222C204.908 41.2706 205.086 41.0778 205.318 40.9438C205.55 40.8097 205.823 40.743 206.137 40.743C206.386 40.743 206.622 40.7823 206.842 40.8611C206.963 40.9042 207.012 41.0424 206.961 41.1598C206.907 41.2853 206.759 41.3396 206.631 41.2937C206.593 41.2802 206.554 41.2674 206.515 41.2552C206.396 41.2155 206.268 41.1956 206.134 41.1956ZM209.742 42.792C209.742 43.1906 209.638 43.5021 209.434 43.7257C209.229 43.9497 208.944 44.0615 208.578 44.0615C208.35 44.0615 208.148 44.0099 207.973 43.907C207.797 43.8037 207.664 43.656 207.569 43.4632C207.474 43.2701 207.426 43.0465 207.426 42.792C207.426 42.396 207.527 42.0866 207.732 41.8645C207.934 41.6423 208.222 41.5311 208.59 41.5311C208.947 41.5311 209.226 41.6453 209.431 41.8734C209.638 42.1 209.742 42.4061 209.742 42.792ZM207.961 42.792C207.961 43.3556 208.172 43.6376 208.587 43.6376C209 43.6376 209.205 43.3556 209.205 42.792C209.205 42.2341 208.997 41.9549 208.581 41.9549C208.365 41.9549 208.207 42.027 208.106 42.1715C208.011 42.3156 207.961 42.5224 207.961 42.792ZM212.4 43.756C212.4 43.9003 212.283 44.0173 212.139 44.0173C211.994 44.0173 211.877 43.9003 211.877 43.756V42.5114C211.877 42.3245 211.842 42.1854 211.773 42.0941C211.702 42.0015 211.592 41.9549 211.441 41.9549C211.239 41.9549 211.093 42.0205 210.998 42.1516C210.906 42.2812 210.859 42.4975 210.859 42.8006V43.7575C210.859 43.901 210.743 44.0173 210.599 44.0173C210.456 44.0173 210.339 43.901 210.339 43.7575V41.802C210.339 41.6768 210.441 41.5753 210.566 41.5753H210.582C210.678 41.5753 210.761 41.6416 210.783 41.7353L210.817 41.8802C210.819 41.889 210.827 41.8953 210.836 41.8953C210.843 41.8953 210.849 41.8916 210.853 41.8857C210.921 41.7741 211.017 41.6877 211.141 41.626C211.269 41.5628 211.411 41.5311 211.566 41.5311C211.934 41.5311 212.181 41.6536 212.306 41.8984C212.311 41.9086 212.321 41.9152 212.333 41.9152C212.343 41.9152 212.353 41.9096 212.358 41.9007C212.429 41.7869 212.527 41.6977 212.655 41.6325C212.786 41.5649 212.935 41.5311 213.107 41.5311C213.398 41.5311 213.609 41.6046 213.742 41.7518C213.876 41.8992 213.944 42.1237 213.944 42.4254V43.7575C213.944 43.901 213.828 44.0173 213.684 44.0173C213.541 44.0173 213.424 43.901 213.424 43.7575V42.5114C213.424 42.3245 213.389 42.1854 213.315 42.0941C213.243 42.0015 213.133 41.9549 212.985 41.9549C212.783 41.9549 212.635 42.0184 212.54 42.1448C212.448 42.2699 212.4 42.4627 212.4 42.7235V43.756ZM215.907 44.0615C215.602 44.0615 215.363 43.953 215.195 43.7361C215.191 43.7311 215.185 43.7281 215.178 43.7281C215.166 43.7281 215.157 43.7386 215.158 43.7506C215.177 43.9434 215.188 44.0608 215.188 44.1033V44.8437C215.188 44.9872 215.072 45.1035 214.928 45.1035C214.785 45.1035 214.669 44.9872 214.669 44.8437V41.8114C214.669 41.681 214.774 41.5753 214.905 41.5753H214.923C215.02 41.5753 215.103 41.6411 215.124 41.7357C215.134 41.7785 215.145 41.8288 215.158 41.8866C215.16 41.8957 215.168 41.9021 215.178 41.9021C215.184 41.9021 215.191 41.8987 215.194 41.8931C215.355 41.6517 215.596 41.5311 215.916 41.5311C216.222 41.5311 216.459 41.6414 216.628 41.8624C216.801 42.0831 216.884 42.393 216.884 42.792C216.884 43.1906 216.798 43.5021 216.626 43.7257C216.453 43.9497 216.213 44.0615 215.907 44.0615ZM215.782 41.9549C215.577 41.9549 215.426 42.0154 215.328 42.1362C215.236 42.2569 215.188 42.4497 215.188 42.7146V42.792C215.188 43.0892 215.236 43.3048 215.328 43.4389C215.423 43.5712 215.577 43.6376 215.791 43.6376C215.972 43.6376 216.109 43.5641 216.207 43.4167C216.305 43.2695 216.352 43.0598 216.352 42.7875C216.352 42.5138 216.305 42.3067 216.207 42.167C216.112 42.0258 215.969 41.9549 215.782 41.9549ZM218.009 43.7575C218.009 43.901 217.893 44.0173 217.749 44.0173C217.606 44.0173 217.49 43.901 217.49 43.7575V40.8414C217.49 40.6979 217.606 40.5816 217.749 40.5816C217.893 40.5816 218.009 40.6979 218.009 40.8414V43.7575ZM219.821 44.0615C219.441 44.0615 219.144 43.9512 218.927 43.7302C218.713 43.508 218.606 43.2025 218.606 42.8139C218.606 42.415 218.707 42.1015 218.906 41.8734C219.105 41.6453 219.378 41.5311 219.726 41.5311C220.049 41.5311 220.305 41.629 220.492 41.8247C220.679 42.0205 220.771 42.2898 220.771 42.633C220.771 42.7878 220.645 42.9133 220.491 42.9133H219.734C219.41 42.9133 219.113 43.2233 219.334 43.4609C219.455 43.5875 219.625 43.6507 219.844 43.6507C219.99 43.6507 220.123 43.6376 220.248 43.611C220.288 43.6021 220.328 43.5915 220.37 43.579C220.504 43.5386 220.649 43.6323 220.649 43.7728C220.649 43.848 220.606 43.9174 220.536 43.9448C220.446 43.9799 220.356 44.0063 220.266 44.0238C220.135 44.0491 219.987 44.0615 219.821 44.0615ZM219.726 41.9241C219.559 41.9241 219.429 41.9763 219.328 42.081C219.145 42.2757 219.382 42.5381 219.649 42.5381H219.77C220.039 42.5381 220.298 42.2792 220.115 42.081C220.02 41.9763 219.892 41.9241 219.726 41.9241ZM222.273 43.6421C222.314 43.6421 222.356 43.64 222.397 43.6357C222.527 43.6223 222.653 43.7146 222.653 43.8448C222.653 43.9225 222.607 43.9938 222.532 44.013C222.5 44.0211 222.465 44.0285 222.428 44.0351C222.339 44.0526 222.247 44.0615 222.149 44.0615C221.656 44.0615 221.409 43.8023 221.409 43.2844V42.1346C221.409 42.0427 221.335 41.9683 221.243 41.9683H221.22C221.141 41.9683 221.077 41.9041 221.077 41.8248C221.077 41.7718 221.106 41.7231 221.153 41.6982L221.292 41.624C221.383 41.5757 221.452 41.4949 221.485 41.3978L221.568 41.1584C221.594 41.0828 221.665 41.0322 221.745 41.0322C221.848 41.0322 221.932 41.116 221.932 41.2194V41.3037C221.932 41.4537 222.053 41.5753 222.203 41.5753H222.43C222.539 41.5753 222.627 41.6632 222.627 41.7718C222.627 41.8803 222.539 41.9683 222.43 41.9683H222.279C222.087 41.9683 221.932 42.1238 221.932 42.3157V43.2755C221.932 43.4006 221.962 43.4932 222.024 43.5537C222.089 43.6124 222.169 43.6421 222.273 43.6421ZM224.209 44.0615C223.829 44.0615 223.532 43.9512 223.319 43.7302C223.105 43.508 222.998 43.2025 222.998 42.8139C222.998 42.415 223.096 42.1015 223.295 41.8734C223.494 41.6453 223.767 41.5311 224.114 41.5311C224.438 41.5311 224.693 41.629 224.881 41.8247C225.068 42.0205 225.16 42.2898 225.16 42.633C225.16 42.7878 225.034 42.9133 224.879 42.9133H224.127C223.801 42.9133 223.501 43.2247 223.725 43.4609C223.844 43.5875 224.016 43.6507 224.236 43.6507C224.379 43.6507 224.512 43.6376 224.637 43.611C224.678 43.6019 224.719 43.5909 224.762 43.5781C224.897 43.5374 225.041 43.6314 225.041 43.7721C225.041 43.8477 224.998 43.9176 224.927 43.945C224.837 43.98 224.747 44.0063 224.655 44.0238C224.524 44.0491 224.376 44.0615 224.209 44.0615ZM224.114 41.9241C223.951 41.9241 223.817 41.9763 223.717 42.081C223.533 42.2764 223.772 42.5381 224.04 42.5381H224.16C224.431 42.5381 224.687 42.2796 224.503 42.081C224.411 41.9763 224.281 41.9241 224.114 41.9241ZM226.576 44.0615C226.27 44.0615 226.033 43.9512 225.86 43.7302C225.691 43.5095 225.605 43.1995 225.605 42.8006C225.605 42.4005 225.691 42.089 225.863 41.8668C226.039 41.6429 226.279 41.5311 226.585 41.5311C226.903 41.5311 227.145 41.6475 227.314 41.88C227.317 41.8842 227.321 41.8867 227.327 41.8867C227.336 41.8867 227.344 41.878 227.342 41.8684C227.318 41.7018 227.307 41.5696 227.307 41.4715V40.8429C227.307 40.6986 227.424 40.5816 227.568 40.5816C227.712 40.5816 227.829 40.6986 227.829 40.8429V43.7852C227.829 43.9134 227.725 44.0173 227.597 44.0173H227.589C227.49 44.0173 227.404 43.952 227.376 43.8573L227.334 43.7107C227.332 43.7027 227.325 43.6973 227.316 43.6973C227.31 43.6973 227.304 43.7003 227.301 43.7053C227.135 43.9426 226.893 44.0615 226.576 44.0615ZM226.716 43.6421C226.929 43.6421 227.084 43.5825 227.182 43.4632C227.28 43.3425 227.327 43.1473 227.33 42.878V42.805C227.33 42.4974 227.283 42.2788 227.182 42.1492C227.081 42.0199 226.923 41.9549 226.71 41.9549C226.529 41.9549 226.386 42.0294 226.288 42.178C226.19 42.3251 226.14 42.5357 226.14 42.8095C226.14 43.0803 226.187 43.2873 226.285 43.43C226.38 43.5712 226.523 43.6421 226.716 43.6421Z" fill="#7751E8"/>
<g clip-path="url(#clip1_121_3768)">
<path d="M315.077 108.253C318.194 108.253 320.72 103.098 320.72 96.7387C320.72 90.3794 318.194 85.2241 315.077 85.2241C311.96 85.2241 309.434 90.3794 309.434 96.7387C309.434 103.098 311.96 108.253 315.077 108.253Z" fill="#E6E6E6"/>
<path d="M315.598 115.586C313.338 102.026 315.575 88.5138 315.598 88.379L316.038 88.4534C316.015 88.5876 313.79 102.028 316.038 115.513L315.598 115.586Z" fill="#3F3D56"/>
<path d="M320.045 94.2627L314.942 96.9923L315.153 97.3855L320.256 94.656L320.045 94.2627Z" fill="#3F3D56"/>
<path d="M309.767 95.63L309.556 96.0232L314.659 98.7543L314.869 98.3611L309.767 95.63Z" fill="#3F3D56"/>
<path d="M428.892 33.7685H419.643V65.7857H428.892V33.7685Z" fill="#3F3D56"/>
<path d="M435 59.7626L412.504 33L367.348 33.4129L339.955 60.0937L340.509 60.4496H340.311V115.946H434.94V60.4496L435 59.7626Z" fill="#3F3D56"/>
<path d="M412.528 33.057L384.424 66.0059V115.946H434.94V59.738L412.528 33.057Z" fill="#C6BDFF"/>
<path d="M415.018 88.3285H404.701V97.4472H415.018V88.3285Z" fill="#3F3D56"/>
<path d="M415.018 72.5449H404.701V81.519H415.018V72.5449Z" fill="#3F3D56"/>
<path d="M415.018 88.3285H404.701V97.4472H415.018V88.3285Z" fill="white"/>
<path d="M415.018 72.5449H404.701V81.519H415.018V72.5449Z" fill="white"/>
<path d="M377.418 114.319C377.418 114.319 377.639 109.684 382.173 110.223L377.418 114.319Z" fill="#E6E6E6"/>
<path d="M376.137 109.909C377.39 109.909 378.406 108.893 378.406 107.64C378.406 106.386 377.39 105.37 376.137 105.37C374.884 105.37 373.868 106.386 373.868 107.64C373.868 108.893 374.884 109.909 376.137 109.909Z" fill="#C6BDFF"/>
<path d="M376.408 111.461H375.768V115.944H376.408V111.461Z" fill="#E6E6E6"/>
<path d="M301.518 101.502C307.614 101.502 312.555 91.4187 312.555 78.9806C312.555 66.5425 307.614 56.4594 301.518 56.4594C295.422 56.4594 290.48 66.5425 290.48 78.9806C290.48 91.4187 295.422 101.502 301.518 101.502Z" fill="#C6BDFF"/>
<path d="M302.747 115.809C298.332 89.321 302.703 62.9291 302.747 62.6657L303.187 62.7401C303.142 63.003 298.785 89.3238 303.187 115.736L302.747 115.809Z" fill="#3F3D56"/>
<path d="M311.336 74.3257L301.355 79.6645L301.565 80.0578L311.546 74.719L311.336 74.3257Z" fill="#3F3D56"/>
<path d="M291.031 77.0001L290.821 77.3933L300.801 82.7349L301.011 82.3417L291.031 77.0001Z" fill="#3F3D56"/>
<path d="M327.66 96.2441C336.001 96.2441 342.764 82.4462 342.764 65.4256C342.764 48.4051 336.001 34.6071 327.66 34.6071C319.318 34.6071 312.555 48.4051 312.555 65.4256C312.555 82.4462 319.318 96.2441 327.66 96.2441Z" fill="#C6BDFF"/>
<path d="M329.423 115.809C323.384 79.5755 329.362 43.4741 329.423 43.1137L329.863 43.1881C329.802 43.5479 323.836 79.5783 329.863 115.736L329.423 115.809Z" fill="#3F3D56"/>
<path d="M341.134 59.1282L327.475 66.4339L327.686 66.8271L341.344 59.5214L341.134 59.1282Z" fill="#3F3D56"/>
<path d="M313.271 62.788L313.06 63.1812L326.717 70.4905L326.928 70.0973L313.271 62.788Z" fill="#3F3D56"/>
<path d="M443 115.579H280V115.967H443V115.579Z" fill="#3F3D56"/>
<path d="M369.17 85.9088H358.853V95.0275H369.17V85.9088Z" fill="#3F3D56"/>
<path d="M369.17 70.1253H358.853V79.0994H369.17V70.1253Z" fill="#3F3D56"/>
<path d="M369.17 85.9088H358.853V95.0275H369.17V85.9088Z" fill="white"/>
<path d="M369.17 70.1253H358.853V79.0994H369.17V70.1253Z" fill="white"/>
</g>
<g clip-path="url(#clip2_121_3768)">
<path d="M334.909 98.3815C334.707 98.4019 334.503 98.4067 334.3 98.3957C334.265 98.392 334.23 98.4019 334.203 98.4235C334.175 98.4451 334.158 98.4766 334.153 98.5111L333.764 101.428C333.734 101.639 333.648 101.839 333.514 102.005C333.403 102.138 333.321 102.292 333.272 102.457C333.223 102.623 333.209 102.797 333.23 102.968V107.922C333.23 107.922 333.205 108.583 333.713 108.583C334.32 108.659 334.935 108.659 335.542 108.583C335.542 108.583 335.948 108.506 335.948 107.896V103.018C335.979 102.848 335.973 102.673 335.93 102.505C335.886 102.338 335.807 102.182 335.698 102.048C335.568 101.881 335.484 101.683 335.454 101.474L335.05 98.4961C335.046 98.4626 335.029 98.4321 335.002 98.4109C334.976 98.3896 334.943 98.3791 334.909 98.3815Z" fill="white"/>
<path d="M334.625 108.723C334.318 108.723 334.012 108.704 333.707 108.666C333.639 108.668 333.571 108.655 333.508 108.63C333.445 108.604 333.388 108.565 333.341 108.516C333.134 108.302 333.146 107.934 333.146 107.919L333.146 102.973C333.125 102.791 333.14 102.607 333.192 102.431C333.245 102.256 333.332 102.093 333.449 101.952C333.573 101.797 333.654 101.612 333.681 101.416L334.07 98.5001C334.078 98.444 334.107 98.393 334.151 98.3581C334.196 98.3231 334.252 98.3068 334.308 98.3126C334.506 98.323 334.704 98.3183 334.9 98.2983L334.903 98.2981C334.958 98.2941 335.012 98.3112 335.055 98.3459C335.098 98.3805 335.126 98.4302 335.133 98.4847L335.537 101.462C335.565 101.657 335.643 101.841 335.763 101.997C335.88 102.139 335.964 102.304 336.01 102.482C336.056 102.659 336.064 102.845 336.032 103.025V107.896C336.032 108.567 335.562 108.664 335.557 108.665C335.248 108.704 334.937 108.723 334.625 108.723ZM334.288 98.4789C334.275 98.4783 334.263 98.4823 334.254 98.4902C334.244 98.4981 334.238 98.5093 334.236 98.5217L333.847 101.439C333.815 101.666 333.722 101.88 333.578 102.058C333.475 102.182 333.398 102.326 333.352 102.48C333.307 102.635 333.293 102.797 333.313 102.958L333.313 102.968V107.922C333.313 107.928 333.304 108.238 333.462 108.401C333.494 108.434 333.533 108.46 333.576 108.477C333.62 108.494 333.666 108.501 333.712 108.499L333.723 108.5C334.323 108.575 334.931 108.575 335.531 108.5C335.539 108.498 335.865 108.424 335.865 107.896L335.866 103.003C335.895 102.845 335.889 102.682 335.849 102.526C335.808 102.371 335.735 102.225 335.633 102.101C335.493 101.922 335.403 101.71 335.371 101.485L334.967 98.5073C334.966 98.4951 334.959 98.484 334.95 98.4761C334.94 98.4683 334.928 98.4643 334.916 98.4649C334.709 98.4855 334.502 98.4903 334.295 98.4792C334.292 98.479 334.29 98.4789 334.288 98.4789H334.288Z" fill="#3F3D56"/>
<path d="M334.295 103.057H334.911C335.157 103.057 335.392 103.154 335.565 103.327C335.738 103.5 335.835 103.735 335.835 103.98V106.299C335.835 106.544 335.738 106.779 335.565 106.952C335.392 107.126 335.157 107.223 334.911 107.223H334.295C334.05 107.223 333.815 107.126 333.642 106.952C333.469 106.779 333.371 106.544 333.371 106.299V103.98C333.371 103.859 333.395 103.739 333.442 103.627C333.488 103.515 333.556 103.413 333.642 103.327C333.728 103.241 333.83 103.173 333.942 103.127C334.054 103.08 334.174 103.057 334.295 103.057Z" fill="#E6E2FF"/>
<path d="M322.966 145.643H324.975L325.931 137.893L322.965 137.894L322.966 145.643Z" fill="#9F616A"/>
<path d="M322.453 144.987L326.41 144.987H326.41C327.079 144.987 327.72 145.253 328.193 145.726C328.666 146.198 328.932 146.84 328.932 147.508V147.59L322.453 147.591L322.453 144.987Z" fill="#2F2E41"/>
<path d="M321.703 117.964C321.703 117.964 320.832 118.948 322.274 122.785L322.02 143.823L326.692 143.732L327.719 133.469L329.589 118.494L321.703 117.964Z" fill="#2F2E41"/>
<path d="M331.192 120.872L331.141 120.865C325.163 119.953 320.653 119.079 320.608 119.07L320.552 119.059L322.119 115.248C322.106 114.85 321.767 103.667 322.416 100.454C323.045 97.3436 326.008 96.8339 326.345 96.7859L326.684 95.6626L330.967 97.8913L331.714 100.462L331.866 107.509L331.192 120.872Z" fill="#3F3D56"/>
<path d="M333.771 106.37C333.578 106.37 333.388 106.409 333.211 106.487C333.034 106.564 332.875 106.677 332.744 106.819H325.545L322.908 107.38L323.341 110.719L332.722 108.702C332.877 108.877 333.074 109.011 333.294 109.091C333.514 109.171 333.751 109.194 333.983 109.159C334.214 109.124 334.434 109.031 334.62 108.889C334.807 108.747 334.955 108.561 335.051 108.348C335.147 108.134 335.188 107.9 335.17 107.666C335.153 107.433 335.077 107.207 334.95 107.01C334.822 106.814 334.648 106.652 334.442 106.54C334.236 106.428 334.006 106.37 333.771 106.37H333.771Z" fill="#9F616A"/>
<path d="M333.834 94.4003C334.753 92.7189 334.135 90.6108 332.454 89.6917C330.772 88.7725 328.664 89.3905 327.745 91.0718C326.826 92.7532 327.444 94.8614 329.125 95.7805C330.807 96.6996 332.915 96.0817 333.834 94.4003Z" fill="#9F616A"/>
<path d="M327.526 89.9623L327.358 89.6237L328.204 89.2032C328.204 89.2032 329.138 87.684 330.828 88.111C332.517 88.5379 333.277 88.7934 333.277 88.7934L334.122 89.2182L333.698 89.6398L334.458 89.8953L333.95 90.1476L334.541 90.4872L334.223 92.2281C334.223 92.2281 333.695 90.9077 332.679 91.4123C331.663 91.9169 329.806 91.1515 329.806 91.1515L328.192 94.275C328.192 94.275 327.859 93.18 327.265 93.472C327.265 93.472 325.748 91.0567 327.526 89.9623Z" fill="#2F2E41"/>
<path d="M323.387 111.345L322.564 108.896L322.365 100.733L322.716 99.5749C322.842 99.158 323.051 98.771 323.331 98.4368C323.61 98.1027 323.954 97.8285 324.342 97.6305C324.73 97.4325 325.154 97.3149 325.589 97.2848C326.023 97.2546 326.459 97.3124 326.871 97.4548C327.282 97.5972 327.661 97.8213 327.984 98.1136C328.307 98.4058 328.568 98.7603 328.75 99.1557C328.933 99.5511 329.034 99.9793 329.047 100.415C329.06 100.85 328.986 101.284 328.827 101.689L326.947 106.507L327.043 106.693L331.116 106.66L332.563 109.264L323.387 111.345Z" fill="#3F3D56"/>
<path d="M364.142 110.339C364.294 110.237 364.422 110.102 364.517 109.945C364.611 109.788 364.67 109.612 364.689 109.43C364.708 109.248 364.687 109.063 364.627 108.89C364.567 108.717 364.47 108.559 364.343 108.427L366.351 104.45L364.051 104.717L362.497 108.453C362.29 108.681 362.174 108.978 362.171 109.287C362.168 109.595 362.279 109.894 362.482 110.127C362.685 110.359 362.966 110.509 363.272 110.549C363.578 110.588 363.888 110.513 364.142 110.339Z" fill="#FFB7B7"/>
<path d="M380.245 138.511L378.436 138.511L377.575 131.532L380.245 131.532L380.245 138.511Z" fill="#FFB7B7"/>
<path d="M380.706 140.265L374.872 140.265V140.191C374.872 139.589 375.111 139.011 375.537 138.586C375.963 138.16 376.541 137.92 377.143 137.92H377.143L380.707 137.92L380.706 140.265Z" fill="#2F2E41"/>
<path d="M370.356 138.511L368.547 138.511L367.686 131.532L370.356 131.532L370.356 138.511Z" fill="#FFB7B7"/>
<path d="M370.375 140.265L364.54 140.265V140.191C364.54 139.589 364.779 139.011 365.205 138.586C365.631 138.16 366.209 137.92 366.811 137.92H366.811L370.375 137.92L370.375 140.265Z" fill="#2F2E41"/>
<path d="M370.208 109.033L368.437 113.113L366.976 136.567L370.665 136.419L371.673 125.239L374.782 115.281L376.569 126.382L377.307 136.124L380.361 136.256L381.577 109.033H370.208Z" fill="#2F2E41"/>
<path d="M379.061 88.8983L373.928 89.0267L370.914 90.5739L370.749 101.989L368.869 109.87C368.869 109.87 380.613 110.678 382.237 109.497L380.318 100.494L382.892 90.7636L379.061 88.8983Z" fill="#E6E2FF"/>
<path d="M371.707 90.763L371.229 90.4403C371.229 90.4403 369.249 91.0337 368.664 93.6736C368.664 93.6736 368.216 94.9981 368.02 95.9087C367.794 96.9531 362.818 106.547 362.818 106.547L365.797 107.402L371.26 98.5682L371.707 90.763Z" fill="#E6E2FF"/>
<path d="M382.811 111.803C382.693 111.663 382.608 111.498 382.56 111.321C382.513 111.144 382.505 110.959 382.537 110.778C382.569 110.598 382.64 110.426 382.745 110.276C382.85 110.126 382.987 110.001 383.146 109.91L382.313 105.533L384.45 106.424L384.913 110.443C385.049 110.72 385.079 111.038 384.996 111.335C384.914 111.632 384.725 111.889 384.466 112.057C384.207 112.224 383.896 112.291 383.591 112.244C383.286 112.197 383.008 112.04 382.811 111.803Z" fill="#FFB7B7"/>
<path d="M382.119 90.8999L382.668 90.7214C382.668 90.7214 384.407 91.8377 384.242 94.5367C384.242 94.5367 384.307 95.9333 384.245 96.8627C384.173 97.9289 385.13 108.523 385.13 108.523H382.031L380.702 98.9291L382.119 90.8999Z" fill="#E6E2FF"/>
<path d="M380.321 84.1092C380.321 84.8131 380.113 85.5011 379.722 86.0863C379.331 86.6715 378.775 87.1276 378.125 87.3969C377.474 87.6663 376.759 87.7367 376.069 87.5994C375.378 87.4621 374.744 87.1232 374.247 86.6255C373.749 86.1279 373.41 85.4938 373.273 84.8035C373.135 84.1132 373.206 83.3977 373.475 82.7474C373.744 82.0972 374.201 81.5414 374.786 81.1504C375.371 80.7594 376.059 80.5507 376.763 80.5507C377.704 80.5483 378.608 80.92 379.275 81.5841C379.943 82.2481 380.319 83.1501 380.321 84.0915C380.321 84.0974 380.321 84.1033 380.321 84.1092Z" fill="#FFB7B7"/>
<path d="M373.216 79.3294C373.633 78.433 374.44 78.6103 375.145 78.9141C376.039 78.7159 376.888 78.1226 377.851 78.4735C378.799 79.8527 381.983 79.4469 381.306 81.6922C381.305 82.2302 382.318 81.917 382.141 82.7982C382.678 84.494 380.204 87.7055 378.783 87.0292C379.135 86.3854 379.937 84.923 378.72 84.778C376.102 87.2142 378.45 80.139 375.16 82.1965C374.071 83.1934 372.58 80.3265 373.216 79.3294Z" fill="#2F2E41"/>
<path d="M383.434 112.158C383.604 112.192 383.779 112.188 383.947 112.147C384.115 112.107 384.272 112.029 384.407 111.921C384.542 111.813 384.651 111.677 384.728 111.522C384.804 111.367 384.846 111.197 384.85 111.024L393.785 102.614L391.774 101.01L383.608 109.803C383.318 109.816 383.042 109.935 382.833 110.137C382.624 110.34 382.497 110.613 382.475 110.903C382.454 111.193 382.54 111.481 382.716 111.712C382.893 111.944 383.149 112.102 383.434 112.158Z" fill="#9F616A"/>
<path d="M392.519 103.973L390.78 101.936C390.731 101.878 390.695 101.81 390.674 101.737C390.653 101.664 390.648 101.587 390.66 101.512C390.671 101.436 390.699 101.364 390.741 101.301C390.783 101.237 390.838 101.183 390.902 101.143L393.166 99.7259C393.464 99.4745 393.849 99.3515 394.238 99.3839C394.626 99.4163 394.986 99.6015 395.238 99.8989C395.49 100.196 395.614 100.581 395.583 100.97C395.552 101.359 395.367 101.719 395.071 101.972L393.322 103.978C393.272 104.035 393.21 104.081 393.14 104.113C393.071 104.144 392.995 104.16 392.919 104.16C392.843 104.159 392.768 104.142 392.699 104.11C392.63 104.078 392.568 104.031 392.519 103.974V103.973Z" fill="#CBCBCB"/>
<path d="M387.844 145.473L385.659 145.473L384.62 137.046L387.845 137.046L387.844 145.473Z" fill="#9F616A"/>
<path d="M388.401 147.591L381.357 147.59V147.501C381.357 146.774 381.646 146.077 382.16 145.563C382.674 145.048 383.372 144.759 384.099 144.759H384.099L388.402 144.76L388.401 147.591Z" fill="#2F2E41"/>
<path d="M405.307 145.473L403.123 145.473L402.084 137.046L405.308 137.046L405.307 145.473Z" fill="#9F616A"/>
<path d="M405.865 147.591L398.82 147.59V147.501C398.821 146.774 399.109 146.077 399.624 145.563C400.138 145.048 400.835 144.759 401.562 144.759H401.563L405.865 144.76L405.865 147.591Z" fill="#2F2E41"/>
<path d="M399.431 108.44L401.633 100.304L398.776 98.6984H394.789L393.238 100.358C393.238 100.358 390.646 102.161 391.274 104.158L392.285 108.708L390.738 115.934L382.941 126.746L381.096 137.367L388.361 139.272L396.217 123.802L400.026 140.931L407.112 140.575L404.671 119.806C404.671 119.806 403.974 113.479 400.326 109.529L399.431 108.44Z" fill="#2F2E41"/>
<path d="M403.979 115.639C404.102 115.517 404.196 115.37 404.256 115.208C404.316 115.046 404.339 114.872 404.325 114.7C404.311 114.528 404.259 114.361 404.173 114.211C404.087 114.061 403.969 113.932 403.827 113.832L402.119 102.305L399.666 103.079L402.121 114.181C401.97 114.43 401.915 114.725 401.967 115.012C402.018 115.298 402.174 115.555 402.403 115.735C402.632 115.915 402.918 116.004 403.209 115.987C403.5 115.969 403.773 115.845 403.979 115.639Z" fill="#9F616A"/>
<path d="M402.541 104.114L399.881 104.421C399.805 104.43 399.728 104.422 399.656 104.398C399.583 104.375 399.517 104.336 399.461 104.284C399.405 104.233 399.36 104.169 399.331 104.099C399.301 104.029 399.287 103.953 399.29 103.877L399.376 101.208C399.334 100.821 399.447 100.432 399.69 100.128C399.934 99.8235 400.288 99.6282 400.676 99.5847C401.063 99.5411 401.452 99.653 401.757 99.8958C402.062 100.138 402.258 100.492 402.303 100.88L402.993 103.45C403.012 103.524 403.016 103.601 403.003 103.676C402.99 103.751 402.962 103.822 402.919 103.885C402.876 103.948 402.82 104.001 402.755 104.041C402.69 104.08 402.617 104.105 402.541 104.114V104.114Z" fill="#CBCBCB"/>
<path d="M392.323 96.3847V92.9566C392.323 91.7383 392.807 90.5699 393.669 89.7084C394.53 88.8469 395.698 88.363 396.917 88.363C398.135 88.363 399.303 88.8469 400.165 89.7084C401.026 90.5699 401.51 91.7383 401.51 92.9566V96.3847C401.51 96.5483 401.445 96.7051 401.329 96.8208C401.214 96.9365 401.057 97.0015 400.893 97.0017H392.94C392.777 97.0015 392.62 96.9365 392.504 96.8208C392.388 96.7051 392.323 96.5483 392.323 96.3847Z" fill="#2F2E41"/>
<path d="M397.588 96.5092C399.221 95.617 399.82 93.5707 398.928 91.9386C398.036 90.3065 395.99 89.7067 394.358 90.5989C392.726 91.4911 392.126 93.5374 393.018 95.1695C393.91 96.8016 395.956 97.4014 397.588 96.5092Z" fill="#9F616A"/>
<path d="M391.237 93.2308C391.238 92.2675 391.621 91.3438 392.302 90.6626C392.983 89.9814 393.907 89.5982 394.87 89.5971H395.556C396.519 89.5982 397.443 89.9814 398.124 90.6626C398.805 91.3438 399.189 92.2675 399.19 93.2309V93.2994H397.741L397.247 91.9156L397.148 93.2994H396.399L396.15 92.6012L396.1 93.2994H391.237V93.2308Z" fill="#2F2E41"/>
<path d="M395.641 97.3872C395.573 97.2951 395.533 97.1856 395.524 97.0714C395.516 96.9573 395.54 96.843 395.593 96.7418C396.32 95.3598 397.337 92.8063 395.987 91.2315L395.89 91.1184H399.81V97.0037L396.249 97.632C396.213 97.6384 396.176 97.6416 396.139 97.6416C396.042 97.6416 395.946 97.6186 395.86 97.5743C395.773 97.5301 395.698 97.466 395.641 97.3872Z" fill="#2F2E41"/>
<path d="M359.612 100.521C359.562 100.572 359.516 100.627 359.475 100.685L353.088 100.529L352.343 99.1676L350.141 100.024L351.226 102.562C351.314 102.767 351.466 102.938 351.659 103.05C351.852 103.161 352.076 103.207 352.298 103.18L359.514 102.309C359.684 102.524 359.916 102.683 360.178 102.763C360.441 102.844 360.722 102.842 360.983 102.759C361.245 102.676 361.476 102.516 361.644 102.299C361.812 102.082 361.91 101.819 361.925 101.544C361.94 101.27 361.871 100.998 361.728 100.764C361.584 100.53 361.373 100.345 361.122 100.234C360.871 100.122 360.592 100.09 360.322 100.142C360.052 100.193 359.805 100.325 359.612 100.521H359.612Z" fill="#FFB7B7"/>
<path d="M338.791 139.31H340.891L341.89 131.21L338.79 131.21L338.791 139.31Z" fill="#FFB7B7"/>
<path d="M338.255 138.625L342.391 138.624H342.391C343.09 138.624 343.761 138.902 344.255 139.396C344.749 139.891 345.027 140.561 345.027 141.26V141.346L338.255 141.346L338.255 138.625Z" fill="#2F2E41"/>
<path d="M357.86 139.263L359.792 138.438L357.528 130.597L354.678 131.814L357.86 139.263Z" fill="#FFB7B7"/>
<path d="M357.098 138.843L360.902 137.219L360.902 137.218C361.545 136.944 362.27 136.936 362.919 137.196C363.568 137.457 364.086 137.964 364.361 138.607L364.395 138.686L358.168 141.346L357.098 138.843Z" fill="#2F2E41"/>
<path d="M348.999 102.276L349.151 104.737L344.712 105.212L340.067 105.709L341.434 101.972L348.999 102.276Z" fill="#FFB7B7"/>
<path d="M349.155 103.159C349.104 103.139 344.09 101.189 341.011 102.783L340.935 102.823L340.321 99.7986L339.971 93.297L342.249 92.2205L342.876 90.8156L347.148 90.5628L348.026 91.7668L351.015 92.7464L349.228 103.188L349.155 103.159Z" fill="#E4E4E4"/>
<path d="M349.312 97.2902L349.84 93.1382L351.043 92.772L351.064 92.7794C351.091 92.7896 351.745 93.0399 351.924 93.9452C352.096 94.8142 353.39 100.222 353.403 100.276L353.416 100.33L350.376 101.547L349.312 97.2902Z" fill="#E4E4E4"/>
<path d="M356.296 137.84L360.343 137.01L353.875 119.161L351.661 113.073C351.661 113.073 350.257 108.191 349.623 106.302L349.24 103.768L340.177 104.771C340.177 104.771 337.646 108.488 338.415 114.547L338.067 137.321L342.114 137.528L345.504 114.56L351.454 127.151C351.454 127.151 353.329 132.524 354.67 133.689L356.296 137.84Z" fill="#2F2E41"/>
<path d="M343.811 105.616C343.74 105.614 343.669 105.618 343.598 105.628L339.37 100.838L339.862 99.3659L337.737 98.3333L336.613 100.855C336.522 101.058 336.5 101.286 336.55 101.504C336.599 101.721 336.718 101.916 336.888 102.061L342.434 106.76C342.392 107.031 342.433 107.309 342.552 107.556C342.672 107.803 342.864 108.008 343.102 108.144C343.341 108.279 343.616 108.339 343.889 108.315C344.163 108.291 344.422 108.184 344.634 108.008C344.845 107.833 344.998 107.597 345.072 107.333C345.146 107.068 345.138 106.788 345.049 106.528C344.96 106.268 344.793 106.042 344.572 105.879C344.351 105.716 344.086 105.624 343.811 105.616Z" fill="#FFB7B7"/>
<path d="M337.355 99.0428L339.007 94.3347C339.193 93.7797 339.426 93.4426 339.699 93.3326C339.753 93.3083 339.811 93.2955 339.87 93.295C339.93 93.2944 339.988 93.3061 340.042 93.3294L340.783 94.2657L341.471 97.1555L339.708 101.304L337.355 99.0428Z" fill="#E4E4E4"/>
<path d="M348.295 89.5885H341.039C340.89 89.5883 340.746 89.529 340.641 89.4234C340.535 89.3179 340.476 89.1748 340.476 89.0255V85.8978C340.476 84.7863 340.917 83.7203 341.703 82.9343C342.489 82.1483 343.555 81.7067 344.667 81.7067C345.778 81.7067 346.845 82.1483 347.631 82.9343C348.416 83.7203 348.858 84.7863 348.858 85.8978V89.0255C348.858 89.1748 348.799 89.3179 348.693 89.4234C348.587 89.529 348.444 89.5883 348.295 89.5885Z" fill="#2F2E41"/>
<path d="M345.528 89.5157C347.225 89.5157 348.601 88.14 348.601 86.4429C348.601 84.7459 347.225 83.3701 345.528 83.3701C343.831 83.3701 342.455 84.7459 342.455 86.4429C342.455 88.14 343.831 89.5157 345.528 89.5157Z" fill="#FFB7B7"/>
<path d="M349.849 86.2106H345.412L345.367 85.5736L345.139 86.2106H344.456L344.366 84.948L343.915 86.2106H342.593V86.148C342.594 85.2691 342.944 84.4264 343.565 83.8048C344.187 83.1833 345.03 82.8337 345.909 82.8327H346.534C347.413 82.8337 348.256 83.1833 348.877 83.8048C349.499 84.4264 349.848 85.2691 349.849 86.148L349.849 86.2106Z" fill="#2F2E41"/>
<path d="M345.376 90.1723C345.343 90.1723 345.31 90.1694 345.277 90.1635L342.028 89.5903V84.2207H345.604L345.516 84.3239C344.284 85.7607 345.212 88.0905 345.875 89.3513C345.924 89.4437 345.945 89.5479 345.938 89.6521C345.93 89.7563 345.893 89.8562 345.831 89.9402C345.779 90.0121 345.71 90.0706 345.631 90.1109C345.552 90.1513 345.465 90.1723 345.376 90.1723Z" fill="#2F2E41"/>
<path d="M384.295 103.079C384.092 103.1 383.889 103.104 383.685 103.093C383.651 103.09 383.616 103.1 383.589 103.121C383.561 103.143 383.544 103.174 383.539 103.209L383.15 106.125C383.12 106.337 383.034 106.537 382.899 106.703C382.789 106.836 382.707 106.989 382.658 107.155C382.609 107.32 382.595 107.494 382.616 107.666V112.62C382.616 112.62 382.591 113.28 383.098 113.28C383.706 113.357 384.321 113.357 384.928 113.28C384.928 113.28 385.334 113.203 385.334 112.594V107.716C385.365 107.546 385.359 107.371 385.316 107.203C385.272 107.036 385.193 106.88 385.084 106.746C384.954 106.579 384.87 106.381 384.84 106.171L384.436 103.194C384.432 103.16 384.415 103.13 384.388 103.109C384.362 103.087 384.329 103.077 384.295 103.079Z" fill="white"/>
<path d="M384.012 113.421C383.705 113.421 383.398 113.402 383.093 113.364C383.025 113.366 382.957 113.353 382.894 113.327C382.831 113.301 382.774 113.263 382.727 113.214C382.52 113 382.532 112.632 382.533 112.617L382.532 107.671C382.511 107.489 382.527 107.304 382.579 107.129C382.631 106.953 382.718 106.79 382.835 106.649C382.96 106.495 383.04 106.31 383.068 106.114L383.456 103.198C383.464 103.142 383.493 103.091 383.538 103.056C383.582 103.021 383.638 103.004 383.695 103.01C383.892 103.021 384.09 103.016 384.287 102.996L384.289 102.996C384.344 102.992 384.398 103.009 384.441 103.044C384.484 103.078 384.512 103.128 384.519 103.182L384.923 106.16C384.951 106.355 385.029 106.539 385.15 106.694C385.266 106.836 385.35 107.002 385.396 107.179C385.443 107.357 385.45 107.542 385.418 107.723V112.594C385.418 113.265 384.948 113.362 384.944 113.363C384.634 113.401 384.323 113.421 384.012 113.421ZM383.674 103.177C383.662 103.176 383.65 103.18 383.64 103.188C383.63 103.196 383.624 103.207 383.622 103.219L383.233 106.136C383.201 106.363 383.108 106.577 382.965 106.756C382.861 106.879 382.784 107.023 382.739 107.178C382.693 107.333 382.68 107.495 382.699 107.655L382.7 107.666V112.62C382.7 112.626 382.691 112.936 382.848 113.098C382.88 113.132 382.92 113.157 382.963 113.174C383.006 113.191 383.052 113.199 383.099 113.197L383.109 113.197C383.71 113.273 384.317 113.273 384.918 113.197C384.926 113.195 385.251 113.121 385.251 112.594L385.252 107.701C385.281 107.542 385.275 107.38 385.235 107.224C385.195 107.068 385.121 106.923 385.019 106.799C384.88 106.62 384.79 106.408 384.758 106.183L384.354 103.205C384.352 103.193 384.346 103.182 384.336 103.174C384.326 103.166 384.314 103.162 384.302 103.163C384.096 103.183 383.888 103.188 383.681 103.177C383.679 103.177 383.676 103.177 383.674 103.177Z" fill="#3F3D56"/>
<path d="M383.681 107.754H384.298C384.543 107.754 384.778 107.852 384.951 108.025C385.124 108.198 385.222 108.433 385.222 108.678V110.997C385.222 111.242 385.124 111.477 384.951 111.65C384.778 111.823 384.543 111.921 384.298 111.921H383.681C383.436 111.921 383.201 111.823 383.028 111.65C382.855 111.477 382.757 111.242 382.757 110.997V108.678C382.757 108.433 382.855 108.198 383.028 108.025C383.201 107.852 383.436 107.754 383.681 107.754Z" fill="#E6E2FF"/>
<path d="M363.383 99.0621C363.18 99.0825 362.976 99.0873 362.773 99.0763C362.739 99.0725 362.704 99.0825 362.676 99.1041C362.649 99.1257 362.631 99.1571 362.627 99.1917L362.238 102.108C362.208 102.32 362.121 102.52 361.987 102.686C361.877 102.818 361.794 102.972 361.746 103.138C361.697 103.303 361.683 103.477 361.704 103.648V108.603C361.704 108.603 361.679 109.263 362.186 109.263C362.794 109.34 363.408 109.34 364.016 109.263C364.016 109.263 364.422 109.186 364.422 108.577V103.699C364.453 103.528 364.447 103.354 364.403 103.186C364.36 103.019 364.281 102.863 364.171 102.729C364.042 102.562 363.958 102.364 363.928 102.154L363.524 99.1767C363.52 99.1432 363.502 99.1127 363.476 99.0914C363.45 99.0702 363.416 99.0597 363.383 99.0621Z" fill="white"/>
<path d="M363.099 109.404C362.792 109.404 362.485 109.385 362.181 109.347C362.113 109.348 362.045 109.336 361.982 109.31C361.919 109.284 361.862 109.246 361.815 109.197C361.608 108.982 361.62 108.615 361.62 108.6L361.62 103.654C361.599 103.472 361.614 103.287 361.666 103.112C361.718 102.936 361.806 102.773 361.923 102.632C362.047 102.478 362.128 102.293 362.155 102.097L362.544 99.1807C362.552 99.1246 362.581 99.0736 362.625 99.0386C362.67 99.0037 362.726 98.9874 362.782 98.9932C362.98 99.0036 363.178 98.9988 363.374 98.9789L363.377 98.9787C363.432 98.9747 363.486 98.9918 363.529 99.0265C363.571 99.0611 363.599 99.1108 363.607 99.1653L364.011 102.143C364.039 102.338 364.117 102.522 364.237 102.677C364.353 102.819 364.438 102.985 364.484 103.162C364.53 103.34 364.538 103.525 364.506 103.706V108.577C364.506 109.248 364.036 109.345 364.031 109.345C363.722 109.384 363.411 109.404 363.099 109.404ZM362.762 99.1595C362.749 99.1589 362.737 99.1629 362.728 99.1708C362.718 99.1787 362.712 99.1899 362.71 99.2023L362.321 102.119C362.289 102.346 362.196 102.56 362.052 102.739C361.949 102.862 361.872 103.006 361.826 103.161C361.781 103.316 361.767 103.478 361.787 103.638L361.787 103.648V108.603C361.787 108.609 361.778 108.919 361.935 109.081C361.968 109.115 362.007 109.14 362.05 109.157C362.094 109.174 362.14 109.182 362.186 109.18L362.197 109.18C362.797 109.256 363.405 109.256 364.005 109.18C364.013 109.178 364.338 109.104 364.338 108.577L364.34 103.684C364.369 103.525 364.363 103.363 364.323 103.207C364.282 103.051 364.209 102.906 364.107 102.782C363.967 102.603 363.877 102.39 363.845 102.166L363.441 99.1879C363.439 99.1757 363.433 99.1645 363.424 99.1567C363.414 99.1489 363.402 99.1449 363.39 99.1455C363.183 99.1661 362.976 99.1709 362.769 99.1598C362.766 99.1596 362.764 99.1595 362.762 99.1595Z" fill="#3F3D56"/>
<path d="M362.769 103.737H363.385C363.63 103.737 363.865 103.834 364.039 104.008C364.212 104.181 364.309 104.416 364.309 104.661V106.98C364.309 107.225 364.212 107.46 364.039 107.633C363.865 107.806 363.63 107.904 363.385 107.904H362.769C362.524 107.904 362.289 107.806 362.116 107.633C361.942 107.46 361.845 107.225 361.845 106.98V104.661C361.845 104.416 361.942 104.181 362.116 104.008C362.289 103.834 362.524 103.737 362.769 103.737Z" fill="#E6E2FF"/>
<path d="M359.838 94.8088C359.636 94.8292 359.432 94.8339 359.229 94.823C359.194 94.8192 359.159 94.8292 359.132 94.8508C359.105 94.8723 359.087 94.9038 359.082 94.9384L358.694 97.8549C358.664 98.0666 358.577 98.2663 358.443 98.4327C358.332 98.5651 358.25 98.7189 358.201 98.8845C358.152 99.05 358.138 99.2238 358.159 99.3951V104.349C358.159 104.349 358.134 105.01 358.642 105.01C359.249 105.086 359.864 105.086 360.471 105.01C360.471 105.01 360.878 104.933 360.878 104.323V99.4453C360.909 99.2751 360.902 99.1002 360.859 98.9327C360.816 98.7652 360.736 98.6092 360.627 98.4753C360.497 98.3083 360.413 98.1103 360.384 97.9009L359.98 94.9233C359.975 94.8899 359.958 94.8594 359.932 94.8381C359.905 94.8168 359.872 94.8063 359.838 94.8088Z" fill="white"/>
<path d="M359.555 105.151C359.248 105.151 358.941 105.132 358.636 105.094C358.568 105.095 358.501 105.083 358.438 105.057C358.375 105.031 358.318 104.993 358.27 104.944C358.064 104.729 358.075 104.362 358.076 104.346L358.076 99.4002C358.054 99.2183 358.07 99.034 358.122 98.8584C358.174 98.6829 358.261 98.5198 358.379 98.3791C358.503 98.2246 358.583 98.0395 358.611 97.8432L359 94.9273C359.007 94.8712 359.036 94.8203 359.081 94.7853C359.125 94.7503 359.182 94.734 359.238 94.7399C359.435 94.7503 359.633 94.7455 359.83 94.7256L359.832 94.7254C359.887 94.7214 359.941 94.7385 359.984 94.7731C360.027 94.8078 360.055 94.8574 360.062 94.9119L360.466 97.8897C360.494 98.0844 360.572 98.2686 360.693 98.424C360.809 98.566 360.893 98.7314 360.939 98.909C360.986 99.0865 360.993 99.272 360.961 99.4527V104.323C360.961 104.994 360.492 105.091 360.487 105.092C360.178 105.131 359.866 105.151 359.555 105.151ZM359.217 94.9061C359.205 94.9055 359.193 94.9096 359.183 94.9175C359.173 94.9254 359.167 94.9366 359.165 94.9489L358.776 97.8659C358.744 98.0928 358.652 98.3068 358.508 98.4852C358.404 98.609 358.328 98.7528 358.282 98.9075C358.236 99.0622 358.223 99.2247 358.242 99.3848L358.243 99.3951V104.349C358.243 104.356 358.234 104.665 358.391 104.828C358.424 104.861 358.463 104.887 358.506 104.904C358.549 104.921 358.595 104.929 358.642 104.926L358.652 104.927C359.253 105.002 359.86 105.002 360.461 104.927C360.469 104.925 360.794 104.851 360.794 104.323L360.795 99.4303C360.824 99.272 360.818 99.1093 360.778 98.9536C360.738 98.7978 360.664 98.6527 360.562 98.5283C360.423 98.3494 360.333 98.1371 360.301 97.9126L359.897 94.9345C359.895 94.9223 359.889 94.9112 359.879 94.9033C359.87 94.8955 359.858 94.8915 359.845 94.8921C359.639 94.9127 359.431 94.9176 359.224 94.9065C359.222 94.9062 359.22 94.9061 359.217 94.9061Z" fill="#3F3D56"/>
<path d="M359.225 99.4837H359.841C360.086 99.4837 360.321 99.5811 360.494 99.7544C360.667 99.9276 360.765 100.163 360.765 100.408V102.726C360.765 102.971 360.667 103.206 360.494 103.38C360.321 103.553 360.086 103.65 359.841 103.65H359.225C358.979 103.65 358.744 103.553 358.571 103.38C358.398 103.206 358.301 102.971 358.301 102.726V100.408C358.301 100.163 358.398 99.9276 358.571 99.7544C358.744 99.5811 358.979 99.4837 359.225 99.4837Z" fill="#E6E2FF"/>
</g>
<path d="M234 42L232.5 43.5L231 42" stroke="#7751E8" stroke-width="0.5" stroke-linejoin="round"/>
<path d="M158 155L156.5 156.5L155 155" stroke="#7751E8" stroke-width="0.5" stroke-linejoin="round"/>
</g>
<defs>
<filter id="filter0_d_121_3768" x="22.45" y="2.45" width="250.1" height="209.1" filterUnits="userSpaceOnUse" color-interpolation-filters="sRGB">
<feFlood flood-opacity="0" result="BackgroundImageFix"/>
<feColorMatrix in="SourceAlpha" type="matrix" values="0 0 0 0 0 0 0 0 0 0 0 0 0 0 0 0 0 0 127 0" result="hardAlpha"/>
<feOffset dy="4"/>
<feGaussianBlur stdDeviation="14.775"/>
<feComposite in2="hardAlpha" operator="out"/>
<feColorMatrix type="matrix" values="0 0 0 0 0 0 0 0 0 0 0 0 0 0 0 0 0 0 0.25 0"/>
<feBlend mode="normal" in2="BackgroundImageFix" result="effect1_dropShadow_121_3768"/>
<feBlend mode="normal" in="SourceGraphic" in2="effect1_dropShadow_121_3768" result="shape"/>
</filter>
<clipPath id="clip0_121_3768">
<rect width="486" height="162" fill="white"/>
</clipPath>
<clipPath id="clip1_121_3768">
<rect width="163" height="82.9667" fill="white" transform="translate(280 33)"/>
</clipPath>
<clipPath id="clip2_121_3768">
<rect width="86.5608" height="75.4877" fill="white" transform="translate(320.552 72.1029)"/>
</clipPath>
</defs>
</svg>
