<svg width="48" height="55" viewBox="0 0 48 55" fill="none" xmlns="http://www.w3.org/2000/svg">
<path d="M44.3262 16.1869L28.1199 2.20438C26.7013 0.982815 24.9414 0.331037 23.1352 0.35824C21.3289 0.385444 19.5862 1.08998 18.1989 2.3538L2.99343 16.1869C2.10992 16.9965 1.39895 18.0072 0.910236 19.1482C0.421518 20.2892 0.16684 21.5331 0.164001 22.7928V46.3853C0.164001 48.6649 0.993069 50.8512 2.46882 52.4632C3.94457 54.0751 5.9461 54.9808 8.03313 54.9808H8.99068C10.805 54.9808 12.7632 53.4079 12.7632 51.3947V26.9293C12.7632 23.587 14.7719 19.2854 17.8029 19.2854H30.899C33.9588 19.2854 36.457 23.587 36.457 26.9293C36.4532 28.5389 35.8667 30.0815 34.8254 31.2204C33.784 32.3594 32.3726 33.0021 30.899 33.0083L25.7225 33.3386C25.3956 33.3571 25.079 33.4701 24.8051 33.6658C24.5312 33.8616 24.3097 34.1333 24.1633 34.4531C24.017 34.7729 23.9509 35.1294 23.9718 35.4863C23.9927 35.8431 24.1 36.1875 24.2826 36.4843C27.1984 41.2735 29.6318 46.9672 34.2324 52.9439C34.7608 53.5804 35.4053 54.089 36.1245 54.4371C36.8436 54.7852 37.6215 54.965 38.4081 54.965H39.4521C41.5391 54.965 43.5406 54.0594 45.0164 52.4475C46.4921 50.8355 47.3212 48.6492 47.3212 46.3695V22.9343C47.3216 21.6355 47.0523 20.3534 46.5335 19.1846C46.0148 18.0159 45.26 16.9909 44.3262 16.1869Z" fill="url(#paint0_linear_219_1486)"/>
<defs>
<linearGradient id="paint0_linear_219_1486" x1="0.164001" y1="27.6607" x2="47.3212" y2="27.6607" gradientUnits="userSpaceOnUse">
<stop stop-color="#7751E8"/>
<stop offset="1" stop-color="#4D3FE8"/>
</linearGradient>
</defs>
</svg>
