<svg width="182" height="45" viewBox="0 0 182 45" fill="none" xmlns="http://www.w3.org/2000/svg">
<g clip-path="url(#clip0_982_3269)">
<path d="M78.3879 0C75.3408 0 73.0172 0.991738 71.417 2.97521C69.8163 4.95852 69.016 7.75734 69.0161 11.3717V23.9699C69.0161 27.5847 69.8164 30.3835 71.417 32.3665C73.0168 34.35 75.3404 35.3417 78.3879 35.3417C81.4339 35.3417 83.7574 34.3499 85.3586 32.3665C86.9584 30.383 87.7587 27.5841 87.7594 23.9699V20.4886H81.7429V24.4989C81.7429 27.32 80.6823 28.7304 78.5612 28.7302C76.4399 28.7302 75.3793 27.3198 75.3795 24.4989V10.909C75.3795 8.0443 76.4401 6.6118 78.5612 6.61147C80.6819 6.61147 81.7425 8.04397 81.7429 10.909V16.2643H87.7594V11.3717C87.7594 7.75813 86.9591 4.95931 85.3586 2.9752C83.7579 0.991724 81.4344 -1.08074e-05 78.3879 0Z" fill="#E50914"/>
<path d="M24.9909 0.631104L22.0408 31.9319L19.0324 0.631104H12.0906L8.96665 31.9319L6.13207 0.631104H0L3.93779 44.9999C5.65718 44.6857 8.75258 44.131 12.8756 43.4369L15.4458 15.7054H15.5613L18.0527 42.5826C20.7433 42.1474 23.7074 41.6815 26.886 41.202L30.4868 0.631104H24.9909Z" fill="#E50914"/>
<path d="M36.1098 0.631104L30.4395 40.4234C32.3549 40.1472 34.329 39.8696 36.3502 39.5938L37.384 31.8575H42.9028L43.9145 38.6008C45.9262 38.3475 47.966 38.1001 50.034 37.8586L44.7291 0.631104H36.1098ZM37.8486 25.5764L40.1012 8.6972H40.217L42.2993 25.5764H37.8486Z" fill="#E50914"/>
<path d="M48.0396 7.2426H54.6923V37.1177C56.8043 36.895 58.9254 36.6838 61.0557 36.4841V7.2426H67.7084V0.631104H48.0396L48.0396 7.2426Z" fill="#E50914"/>
<path d="M103.59 16.891H96.7643V0.631104H90.4009V34.8323C92.4656 34.8397 94.5909 34.8769 96.7643 34.9406V23.5025H103.59V35.2166C105.685 35.3229 107.806 35.4483 109.954 35.5927V0.631104H103.59V16.891Z" fill="#E50914"/>
<path d="M113.261 35.9354C115.373 36.0987 117.494 36.2758 119.624 36.4667V24.1635H127.839V17.552H119.624V7.2426H130.095V0.631104H113.261V35.9354Z" fill="#E50914"/>
<path d="M151.624 40.2729C153.813 40.5674 155.94 40.8608 157.987 41.1496V0.631104H151.624V40.2729Z" fill="#E50914"/>
<path d="M182 0.631104H175.984L171.587 15.573H171.471L167.19 0.631104H160.48L167.479 23.2426L161.717 41.8082C163.715 42.0994 165.615 42.3824 167.401 42.653L170.893 30.7795H171.009L174.742 43.7929C177.793 44.2787 180.182 44.6746 181.734 44.9359L175 23.2426L182 0.631104Z" fill="#E50914"/>
<path d="M138.949 0.631104H132.586V37.8262C132.598 37.8275 132.61 37.8289 132.622 37.8302L132.586 37.8636L149.42 39.6572V33.0457L138.949 32.0525L138.949 0.631104Z" fill="#E50914"/>
</g>
<defs>
<clipPath id="clip0_982_3269">
<rect width="182" height="45" fill="white"/>
</clipPath>
</defs>
</svg>
