<svg width="33" height="33" viewBox="0 0 33 33" fill="none" xmlns="http://www.w3.org/2000/svg">
<circle cx="16.5" cy="16.5" r="16.5" fill="#C34F4F"/>
<path d="M15.0004 12.4005C15.3665 12.0343 15.3665 11.4408 15.0004 11.0746C14.6343 10.7085 14.0407 10.7085 13.6746 11.0746L8.67458 16.0746C8.49152 16.2577 8.39999 16.4976 8.39999 16.7375C8.39999 16.8647 8.42529 16.9859 8.47113 17.0964C8.51688 17.207 8.5847 17.3106 8.67458 17.4005L13.6746 22.4005C14.0407 22.7666 14.6343 22.7666 15.0004 22.4005C15.3665 22.0343 15.3665 21.4408 15.0004 21.0746L11.6008 17.675H23.7125C24.2303 17.675 24.65 17.2553 24.65 16.7375C24.65 16.2198 24.2303 15.8 23.7125 15.8H11.6008L15.0004 12.4005Z" fill="white"/>
</svg>
