<svg width="45" height="44" viewBox="0 0 45 44" fill="none" xmlns="http://www.w3.org/2000/svg">
<path d="M22.5 0.599609C10.3038 0.599609 0.416687 10.4867 0.416687 22.6829C0.416687 32.4503 6.76496 40.7222 15.5552 43.6352C16.6254 43.8021 17.0344 43.1577 17.0344 42.5861C17.0344 42.0616 17.0068 40.3227 17.0068 38.4731C11.4584 39.4945 10.0229 37.1205 9.58132 35.8784C9.09111 34.6703 8.3142 33.5998 7.31773 32.7591C6.54486 32.3451 5.44069 31.3237 7.2901 31.296C8.72329 31.4516 9.99067 32.2964 10.6855 33.5596C10.6877 33.5635 10.6898 33.5673 10.692 33.5712C11.9664 35.8453 14.843 36.6558 17.1172 35.3814C17.2128 34.2587 17.7131 33.209 18.5251 32.4278C13.6116 31.8757 8.47717 29.9709 8.47717 21.5242C8.44603 19.3293 9.25596 17.2059 10.7406 15.5893C10.0655 13.6817 10.1445 11.5883 10.9615 9.73714C10.9615 9.73714 12.8109 9.15743 17.0344 12.0007C20.6479 11.0068 24.4626 11.0068 28.0761 12.0007C32.2995 9.12978 34.149 9.73714 34.149 9.73714C34.966 11.5883 35.0449 13.6816 34.3698 15.5893C35.8589 17.2032 36.6695 19.3284 36.6334 21.5242C36.6334 29.9986 31.4714 31.8757 26.5579 32.4278C27.6243 33.5085 28.1683 34.9995 28.0485 36.5132C28.0485 39.4669 28.0209 41.8409 28.0209 42.5861C28.0194 42.7038 28.0369 42.8209 28.0729 42.9329C28.2566 43.5045 28.8683 43.8188 29.4399 43.6369C38.2328 40.7254 44.5834 32.4522 44.5834 22.6829C44.5834 10.4867 34.6963 0.599609 22.5 0.599609Z" fill="#414141"/>
</svg>
